CommissionerLoud-SemiBoldItalic.ufo
<glyph name="numbersign" format="2">
  <advance width="693.6315789473684"/>
  <unicode hex="0023"/>
  <outline>
    <contour>
      <point x="-9.68421052631579" y="132.68421052631578" type="line"/>
      <point x="57.789473684210535" y="134.73684210526318"/>
      <point x="129.5263157894737" y="136.78947368421052"/>
      <point x="176.6315789473684" y="137.8421052631579" type="curve"/>
      <point x="418.2105263157895" y="137.8421052631579" type="line"/>
      <point x="464.2631578947368" y="136.78947368421052"/>
      <point x="536.0" y="134.73684210526318"/>
      <point x="602.421052631579" y="132.68421052631578" type="curve"/>
      <point x="624.7368421052631" y="240.47368421052633" type="line"/>
      <point x="557.7894736842104" y="238.42105263157893"/>
      <point x="485.52631578947364" y="236.3684210526316"/>
      <point x="438.9473684210526" y="235.31578947368422" type="curve"/>
      <point x="197.3684210526316" y="235.31578947368422" type="line"/>
      <point x="150.78947368421055" y="236.3684210526316"/>
      <point x="79.57894736842105" y="238.42105263157893"/>
      <point x="12.631578947368421" y="240.47368421052633" type="curve"/>
    </contour>
    <contour>
      <point x="46.05263157894737" y="0.0" type="curve"/>
      <point x="168.8421052631579" y="0.0" type="line"/>
      <point x="193.15789473684208" y="68.05263157894737"/>
      <point x="214.52631578947367" y="129.73684210526315"/>
      <point x="244.78947368421052" y="214.26315789473685" type="curve"/>
      <point x="336.5263157894737" y="445.42105263157896" type="line"/>
      <point x="375.0526315789473" y="535.578947368421"/>
      <point x="398.4736842105263" y="590.4210526315788"/>
      <point x="430.0" y="663.5263157894736" type="curve"/>
      <point x="309.8421052631579" y="663.5263157894736" type="line"/>
      <point x="283.9473684210526" y="590.2631578947368"/>
      <point x="263.6842105263158" y="533.9473684210526"/>
      <point x="232.4736842105263" y="445.42105263157896" type="curve"/>
      <point x="140.73684210526318" y="214.26315789473685" type="line"/>
      <point x="103.15789473684211" y="129.1578947368421"/>
      <point x="75.05263157894737" y="65.94736842105263"/>
    </contour>
    <contour>
      <point x="102.94736842105263" y="420.0526315789474" type="line"/>
      <point x="170.42105263157896" y="422.10526315789474"/>
      <point x="242.6842105263158" y="424.15789473684214"/>
      <point x="289.2631578947369" y="425.2105263157895" type="curve"/>
      <point x="530.8421052631579" y="425.2105263157895" type="line"/>
      <point x="577.421052631579" y="424.15789473684214"/>
      <point x="648.6315789473684" y="422.10526315789474"/>
      <point x="715.0526315789473" y="420.0526315789474" type="curve"/>
      <point x="737.8947368421052" y="527.8421052631579" type="line"/>
      <point x="670.4210526315788" y="525.7894736842105"/>
      <point x="598.6842105263157" y="523.7368421052632"/>
      <point x="551.578947368421" y="522.6842105263158" type="curve"/>
      <point x="310.00000000000006" y="522.6842105263158" type="line"/>
      <point x="263.94736842105266" y="523.7368421052632"/>
      <point x="192.21052631578945" y="525.7894736842105"/>
      <point x="125.78947368421052" y="527.8421052631579" type="curve"/>
    </contour>
    <contour>
      <point x="291.8421052631579" y="0.0" type="curve"/>
      <point x="414.6315789473684" y="0.0" type="line"/>
      <point x="438.9473684210526" y="68.05263157894737"/>
      <point x="460.3157894736842" y="129.73684210526315"/>
      <point x="490.57894736842104" y="214.26315789473685" type="curve"/>
      <point x="582.3157894736843" y="445.42105263157896" type="line"/>
      <point x="620.8421052631579" y="535.578947368421"/>
      <point x="644.2631578947369" y="590.4210526315788"/>
      <point x="675.7894736842105" y="663.5263157894736" type="curve"/>
      <point x="555.6315789473684" y="663.5263157894736" type="line"/>
      <point x="529.7368421052632" y="590.2631578947368"/>
      <point x="509.4736842105264" y="533.9473684210526"/>
      <point x="478.2631578947369" y="445.42105263157896" type="curve"/>
      <point x="386.52631578947364" y="214.26315789473685" type="line"/>
      <point x="348.94736842105266" y="129.1578947368421"/>
      <point x="320.8421052631578" y="65.94736842105263"/>
    </contour>
  </outline>
</glyph>
<glyph name="dollar" format="2">
  <advance width="570.9473684210526"/>
  <unicode hex="0024"/>
  <outline>
    <contour>
      <point x="259.1578947368421" y="-12.157894736842106" type="curve" smooth="yes"/>
      <point x="420.84210526315786" y="-12.157894736842106"/>
      <point x="497.10526315789474" y="45.10526315789474"/>
      <point x="522.3157894736842" y="167.1578947368421" type="curve" smooth="yes"/>
      <point x="544.0" y="271.0526315789474"/>
      <point x="504.9473684210526" y="333.57894736842104"/>
      <point x="358.68421052631584" y="391.2105263157895" type="curve" smooth="yes"/>
      <point x="248.78947368421052" y="435.05263157894734"/>
      <point x="212.1578947368421" y="463.57894736842104"/>
      <point x="223.31578947368422" y="514.421052631579" type="curve" smooth="yes"/>
      <point x="234.8947368421053" y="570.421052631579"/>
      <point x="293.7894736842105" y="585.578947368421"/>
      <point x="355.7368421052632" y="585.578947368421" type="curve"/>
      <point x="375.1052631578948" y="585.578947368421"/>
      <point x="463.42105263157896" y="556.5263157894736"/>
      <point x="545.7894736842106" y="523.4736842105264" type="curve"/>
      <point x="583.4736842105262" y="640.2105263157895" type="line"/>
      <point x="515.6315789473684" y="661.3157894736842"/>
      <point x="401.578947368421" y="698.1052631578947"/>
      <point x="348.89473684210526" y="698.1052631578947" type="curve" smooth="yes"/>
      <point x="201.47368421052633" y="698.1052631578947"/>
      <point x="124.42105263157895" y="640.9473684210526"/>
      <point x="101.21052631578947" y="529.3684210526316" type="curve" smooth="yes"/>
      <point x="76.05263157894737" y="409.4736842105263"/>
      <point x="135.68421052631578" y="354.2105263157894"/>
      <point x="255.42105263157896" y="304.6842105263158" type="curve" smooth="yes"/>
      <point x="348.3157894736842" y="266.2631578947368"/>
      <point x="411.3684210526316" y="234.36842105263156"/>
      <point x="399.6842105263158" y="178.42105263157896" type="curve" smooth="yes"/>
      <point x="386.7368421052632" y="115.0"/>
      <point x="329.4736842105263" y="98.26315789473684"/>
      <point x="262.3157894736842" y="98.26315789473684" type="curve"/>
      <point x="230.10526315789474" y="98.26315789473684"/>
      <point x="139.84210526315795" y="130.3684210526316"/>
      <point x="47.05263157894736" y="169.31578947368422" type="curve"/>
      <point x="10.368421052631579" y="47.89473684210527" type="line"/>
      <point x="100.31578947368422" y="17.63157894736842"/>
      <point x="208.10526315789474" y="-12.157894736842106"/>
    </contour>
    <contour>
      <point x="153.05263157894737" y="-137.0" type="curve"/>
      <point x="265.99999999999994" y="-137.0" type="line"/>
      <point x="292.36842105263156" y="-0.05263157894736903"/>
      <point x="321.2631578947368" y="153.4736842105263"/>
      <point x="328.7368421052631" y="192.0" type="curve"/>
      <point x="388.7368421052631" y="474.0" type="line"/>
      <point x="397.7894736842105" y="513.0526315789474"/>
      <point x="433.89473684210526" y="665.0526315789474"/>
      <point x="465.99999999999994" y="803.0" type="curve"/>
      <point x="353.0526315789474" y="803.0" type="line"/>
      <point x="326.6842105263158" y="665.0526315789474"/>
      <point x="297.7894736842105" y="512.5263157894736"/>
      <point x="290.3157894736842" y="474.0" type="curve"/>
      <point x="230.31578947368422" y="192.0" type="line"/>
      <point x="221.78947368421055" y="154.52631578947367"/>
      <point x="185.15789473684214" y="0.4736842105263158"/>
    </contour>
  </outline>
</glyph>
<glyph name="ampersand" format="2">
  <advance width="760.6893203883496"/>
  <unicode hex="0026"/>
  <outline>
    <contour>
      <point x="530.1650485436892" y="0.0" type="curve"/>
      <point x="701.8349514563107" y="0.0" type="line"/>
      <point x="644.8252427184465" y="70.76699029126215"/>
      <point x="591.4368932038835" y="136.9126213592233"/>
      <point x="537.1747572815534" y="204.05825242718447" type="curve"/>
      <point x="368.07766990291265" y="427.7961165048544" type="line" smooth="yes"/>
      <point x="328.9708737864077" y="479.65048543689323"/>
      <point x="317.85436893203877" y="521.1359223300971"/>
      <point x="328.3495145631067" y="568.6116504854368" type="curve" smooth="yes"/>
      <point x="338.5922330097087" y="613.3300970873787"/>
      <point x="368.57281553398053" y="631.8252427184466"/>
      <point x="413.4174757281553" y="633.8252427184466" type="curve"/>
      <point x="460.1359223300971" y="630.6990291262136"/>
      <point x="492.6116504854368" y="601.2038834951456"/>
      <point x="483.36893203883494" y="552.7378640776698" type="curve" smooth="yes"/>
      <point x="476.126213592233" y="517.1456310679612"/>
      <point x="415.4174757281553" y="475.9029126213593"/>
      <point x="354.0776699029126" y="435.5436893203883" type="curve"/>
      <point x="411.4757281553398" y="360.37864077669906" type="line"/>
      <point x="485.96116504854365" y="412.25242718446594"/>
      <point x="585.5728155339806" y="474.883495145631"/>
      <point x="598.4466019417475" y="539.6213592233009" type="curve" smooth="yes"/>
      <point x="619.8252427184466" y="642.7572815533981"/>
      <point x="534.8058252427185" y="727.252427184466"/>
      <point x="411.77669902912623" y="727.252427184466" type="curve" smooth="yes"/>
      <point x="312.757281553398" y="727.252427184466"/>
      <point x="223.24271844660197" y="683.3883495145633"/>
      <point x="202.6116504854369" y="580.242718446602" type="curve" smooth="yes"/>
      <point x="186.7378640776699" y="502.25242718446606"/>
      <point x="215.4757281553398" y="429.24271844660194"/>
      <point x="260.3398058252427" y="369.126213592233" type="curve" smooth="yes"/>
      <point x="436.6893203883495" y="136.0" type="line"/>
      <point x="466.9320388349514" y="91.873786407767"/>
      <point x="499.9223300970873" y="44.12621359223301"/>
    </contour>
    <contour>
      <point x="233.2233009708738" y="-11.37864077669903" type="curve" smooth="yes"/>
      <point x="294.57281553398064" y="-11.37864077669903"/>
      <point x="376.68932038834953" y="41.84466019417475"/>
      <point x="456.20388349514565" y="91.45631067961168" type="curve"/>
      <point x="470.5825242718447" y="91.45631067961168" type="line"/>
      <point x="465.3398058252427" y="114.09708737864078" type="line"/>
      <point x="412.18446601941747" y="185.75728155339806" type="line"/>
      <point x="356.7087378640776" y="144.53398058252426"/>
      <point x="276.65048543689323" y="96.33009708737865"/>
      <point x="256.1650485436893" y="96.33009708737865" type="curve"/>
      <point x="176.21359223300968" y="99.45631067961166"/>
      <point x="146.10679611650482" y="152.18446601941747"/>
      <point x="159.34951456310677" y="213.76699029126215" type="curve" smooth="yes"/>
      <point x="172.4660194174757" y="275.5922330097087"/>
      <point x="218.92233009708735" y="311.20388349514565"/>
      <point x="290.87378640776694" y="340.32038834951453" type="curve"/>
      <point x="244.59223300970874" y="418.62135922330094" type="line"/>
      <point x="146.09708737864077" y="385.36893203883494"/>
      <point x="56.349514563106794" y="328.495145631068"/>
      <point x="32.47572815533981" y="213.50485436893206" type="curve" smooth="yes"/>
      <point x="9.097087378640778" y="101.24271844660194"/>
      <point x="79.96116504854369" y="-11.37864077669903"/>
    </contour>
    <contour>
      <point x="552.8155339805825" y="170.85436893203885" type="line"/>
      <point x="614.9514563106796" y="229.22330097087377"/>
      <point x="677.8349514563106" y="287.5922330097087"/>
      <point x="740.0970873786408" y="346.0873786407767" type="curve"/>
      <point x="629.5145631067961" y="426.53398058252424" type="line"/>
      <point x="582.8932038834952" y="366.78640776699035"/>
      <point x="538.0194174757281" y="309.66019417475735"/>
      <point x="488.77669902912623" y="246.41747572815532" type="curve"/>
    </contour>
  </outline>
</glyph>
<glyph name="quotesingle" format="2">
  <advance width="219.31578947368422"/>
  <unicode hex="0027"/>
  <outline>
    <contour>
      <point x="85.68421052631578" y="409.6842105263158" type="curve"/>
      <point x="182.6842105263158" y="410.6842105263158" type="line"/>
      <point x="212.68421052631578" y="523.1578947368421"/>
      <point x="245.57894736842104" y="634.0526315789474"/>
      <point x="278.42105263157896" y="744.5263157894736" type="curve"/>
      <point x="132.78947368421052" y="741.421052631579" type="line"/>
      <point x="118.6842105263158" y="632.5263157894736"/>
      <point x="104.10526315789474" y="523.1578947368421"/>
    </contour>
  </outline>
</glyph>
<glyph name="parenleft" format="2">
  <advance width="404.5263157894737"/>
  <unicode hex="0028"/>
  <outline>
    <contour>
      <point x="199.94736842105263" y="-129.89473684210526" type="curve"/>
      <point x="308.57894736842104" y="-92.57894736842105" type="line"/>
      <point x="234.73684210526312" y="48.05263157894737"/>
      <point x="169.0526315789474" y="181.0"/>
      <point x="200.94736842105263" y="334.6842105263158" type="curve" smooth="yes"/>
      <point x="232.8421052631579" y="488.8947368421053"/>
      <point x="355.8947368421052" y="607.1578947368421"/>
      <point x="482.0" y="734.578947368421" type="curve"/>
      <point x="376.9473684210526" y="776.8421052631578" type="line"/>
      <point x="261.73684210526324" y="668.578947368421"/>
      <point x="109.63157894736842" y="539.8947368421053"/>
      <point x="70.47368421052632" y="350.3157894736842" type="curve" smooth="yes"/>
      <point x="31.31578947368421" y="161.21052631578945"/>
      <point x="132.15789473684214" y="-4.684210526315782"/>
    </contour>
  </outline>
</glyph>
<glyph name="asterisk" format="2">
  <advance width="486.9473684210526"/>
  <unicode hex="002A"/>
  <outline>
    <contour>
      <point x="436.52631578947364" y="325.8421052631579" type="curve"/>
      <point x="499.9473684210526" y="394.99999999999994" type="line"/>
      <point x="439.68421052631584" y="441.84210526315786"/>
      <point x="377.89473684210526" y="488.63157894736844"/>
      <point x="317.6315789473684" y="535.4736842105262" type="curve"/>
      <point x="266.1578947368421" y="593.1052631578948"/>
      <point x="214.26315789473682" y="650.8421052631579"/>
      <point x="163.31578947368416" y="707.5263157894736" type="curve"/>
      <point x="100.36842105263158" y="637.8421052631578" type="line"/>
      <point x="160.15789473684214" y="590.4736842105264"/>
      <point x="220.8947368421053" y="544.2105263157896"/>
      <point x="282.2105263157895" y="496.3684210526316" type="curve"/>
      <point x="333.6315789473684" y="439.6842105263158"/>
      <point x="385.57894736842104" y="382.00000000000006"/>
    </contour>
    <contour>
      <point x="97.78947368421053" y="397.63157894736844" type="line"/>
      <point x="167.8421052631579" y="428.8421052631579"/>
      <point x="237.8421052631579" y="460.0526315789474"/>
      <point x="308.36842105263156" y="491.7368421052632" type="curve"/>
      <point x="382.52631578947364" y="509.94736842105266"/>
      <point x="457.2105263157895" y="528.2105263157896"/>
      <point x="531.3684210526317" y="546.421052631579" type="curve"/>
      <point x="501.52631578947364" y="635.736842105263" type="line"/>
      <point x="432.0" y="604.5263157894738"/>
      <point x="362.0" y="573.3157894736843"/>
      <point x="291.9473684210526" y="542.1052631578947" type="curve"/>
      <point x="217.3157894736842" y="522.8947368421051"/>
      <point x="142.10526315789474" y="505.1578947368421"/>
      <point x="67.94736842105262" y="486.9473684210526" type="curve"/>
    </contour>
    <contour>
      <point x="205.6842105263158" y="302.0" type="curve"/>
      <point x="298.05263157894734" y="281.89473684210526" type="line"/>
      <point x="307.84210526315786" y="358.5263157894737"/>
      <point x="316.57894736842104" y="434.63157894736844"/>
      <point x="325.89473684210526" y="511.7368421052632" type="curve"/>
      <point x="348.63157894736844" y="584.7894736842105"/>
      <point x="370.89473684210526" y="657.842105263158"/>
      <point x="393.6315789473684" y="731.3684210526316" type="curve"/>
      <point x="301.7894736842106" y="750.9473684210526" type="line"/>
      <point x="292.0" y="674.8421052631579"/>
      <point x="283.2631578947369" y="598.2105263157895"/>
      <point x="273.94736842105266" y="522.5263157894736" type="curve"/>
      <point x="251.21052631578948" y="448.5263157894737"/>
      <point x="228.42105263157896" y="375.5263157894737"/>
    </contour>
  </outline>
</glyph>
<glyph name="plus" format="2">
  <advance width="595.7894736842105"/>
  <unicode hex="002B"/>
  <outline>
    <contour>
      <point x="191.8947368421053" y="53.94736842105263" type="curve"/>
      <point x="321.1052631578947" y="53.94736842105263" type="line"/>
      <point x="333.63157894736844" y="121.84210526315789"/>
      <point x="346.6315789473684" y="192.63157894736844"/>
      <point x="355.2105263157894" y="239.21052631578948" type="curve"/>
      <point x="382.05263157894734" y="365.5263157894737" type="line"/>
      <point x="393.73684210526307" y="413.1578947368421"/>
      <point x="410.84210526315786" y="483.8421052631579"/>
      <point x="426.99999999999994" y="550.7894736842105" type="curve"/>
      <point x="297.7894736842105" y="550.7894736842105" type="line"/>
      <point x="285.7368421052631" y="485.36842105263156"/>
      <point x="271.7368421052631" y="411.10526315789474"/>
      <point x="263.1578947368421" y="365.5263157894737" type="curve"/>
      <point x="236.31578947368422" y="239.21052631578948" type="line"/>
      <point x="225.63157894736844" y="193.10526315789477"/>
      <point x="208.52631578947376" y="121.36842105263158"/>
    </contour>
    <contour>
      <point x="52.26315789473684" y="240.10526315789474" type="line"/>
      <point x="119.73684210526316" y="242.15789473684214"/>
      <point x="192.0" y="244.21052631578948"/>
      <point x="238.57894736842104" y="245.26315789473685" type="curve"/>
      <point x="355.42105263157896" y="245.26315789473685" type="line"/>
      <point x="402.0" y="244.21052631578948"/>
      <point x="473.2105263157895" y="242.15789473684214"/>
      <point x="539.6315789473683" y="240.10526315789474" type="curve"/>
      <point x="566.1052631578947" y="364.6315789473684" type="line"/>
      <point x="499.15789473684214" y="362.57894736842104"/>
      <point x="426.42105263157896" y="360.52631578947364"/>
      <point x="379.8421052631579" y="359.4736842105263" type="curve"/>
      <point x="263.0" y="359.4736842105263" type="line"/>
      <point x="216.42105263157893" y="360.52631578947364"/>
      <point x="145.68421052631578" y="362.57894736842104"/>
      <point x="78.73684210526316" y="364.6315789473684" type="curve"/>
    </contour>
  </outline>
</glyph>
<glyph name="comma" format="2">
  <advance width="246.1052631578947"/>
  <unicode hex="002C"/>
  <outline>
    <contour>
      <point x="-52.78947368421052" y="-157.0" type="curve"/>
      <point x="17.47368421052632" y="-155.47368421052633" type="line"/>
      <point x="60.5263157894737" y="-102.57894736842105"/>
      <point x="153.57894736842107" y="8.684210526315788"/>
      <point x="163.2105263157895" y="58.42105263157895" type="curve" smooth="yes"/>
      <point x="172.42105263157896" y="107.10526315789473"/>
      <point x="160.21052631578945" y="145.68421052631578"/>
      <point x="111.89473684210526" y="156.5263157894737" type="curve"/>
      <point x="39.00000000000001" y="151.31578947368422" type="line"/>
      <point x="35.00000000000001" y="111.0"/>
      <point x="30.947368421052637" y="70.68421052631578"/>
      <point x="26.42105263157895" y="33.526315789473685" type="curve"/>
      <point x="2.9473684210526354" y="-26.631578947368418"/>
      <point x="-27.368421052631575" y="-98.52631578947368"/>
    </contour>
  </outline>
</glyph>
<glyph name="hyphen" format="2">
  <advance width="425.2631578947368"/>
  <unicode hex="002D"/>
  <outline>
    <contour>
      <point x="51.73684210526316" y="237.47368421052633" type="line"/>
      <point x="109.05263157894737" y="239.52631578947373"/>
      <point x="170.73684210526315" y="241.57894736842107"/>
      <point x="210.68421052631578" y="242.63157894736844" type="curve"/>
      <point x="250.63157894736844" y="241.57894736842107"/>
      <point x="311.2631578947368" y="239.52631578947373"/>
      <point x="368.578947368421" y="237.47368421052633" type="curve"/>
      <point x="394.5263157894737" y="362.0" type="line"/>
      <point x="336.68421052631584" y="359.94736842105266"/>
      <point x="275.0526315789474" y="357.89473684210526"/>
      <point x="234.57894736842104" y="356.8421052631579" type="curve"/>
      <point x="195.15789473684208" y="357.89473684210526"/>
      <point x="134.47368421052633" y="359.94736842105266"/>
      <point x="77.6842105263158" y="362.0" type="curve"/>
    </contour>
  </outline>
</glyph>
<glyph name="period" format="2">
  <advance width="256.63157894736844"/>
  <unicode hex="002E"/>
  <outline>
    <contour>
      <point x="84.26315789473685" y="-12.68421052631579" type="curve" smooth="yes"/>
      <point x="137.57894736842104" y="-12.68421052631579"/>
      <point x="165.73684210526315" y="12.0"/>
      <point x="176.42105263157893" y="64.47368421052633" type="curve" smooth="yes"/>
      <point x="185.10526315789474" y="111.89473684210527"/>
      <point x="158.15789473684208" y="153.6315789473684"/>
      <point x="97.57894736842104" y="153.6315789473684" type="curve" smooth="yes"/>
      <point x="39.47368421052632" y="153.6315789473684"/>
      <point x="16.105263157894736" y="129.94736842105263"/>
      <point x="7.947368421052632" y="88.15789473684212" type="curve" smooth="yes"/>
      <point x="-3.2631578947368416" y="33.0"/>
      <point x="24.789473684210535" y="-12.68421052631579"/>
    </contour>
  </outline>
</glyph>
<glyph name="slash" format="2">
  <advance width="462.7368421052631"/>
  <unicode hex="002F"/>
  <outline>
    <contour>
      <point x="-36.631578947368425" y="0.0" type="curve"/>
      <point x="116.0" y="0.0" type="line"/>
      <point x="157.68421052631578" y="74.0"/>
      <point x="192.36842105263156" y="136.0"/>
      <point x="243.94736842105263" y="228.0" type="curve"/>
      <point x="391.6842105263158" y="474.0" type="line"/>
      <point x="451.5263157894737" y="568.4736842105264"/>
      <point x="492.42105263157896" y="632.4736842105264"/>
      <point x="544.3157894736843" y="713.0" type="curve"/>
      <point x="392.2105263157895" y="713.0" type="line"/>
      <point x="349.05263157894734" y="636.4736842105264"/>
      <point x="313.3684210526316" y="572.0"/>
      <point x="259.3157894736842" y="476.5263157894737" type="curve"/>
      <point x="110.05263157894736" y="228.0" type="line"/>
      <point x="51.21052631578948" y="137.57894736842104"/>
      <point x="11.315789473684209" y="74.57894736842105"/>
    </contour>
  </outline>
</glyph>
<glyph name="zero" format="2">
  <advance width="661.421052631579"/>
  <unicode hex="0030"/>
  <outline>
    <contour>
      <point x="310.10526315789474" y="-12.157894736842106" type="curve" smooth="yes"/>
      <point x="486.3157894736842" y="-12.157894736842106"/>
      <point x="583.8947368421053" y="99.57894736842104"/>
      <point x="628.8947368421053" y="311.6842105263158" type="curve" smooth="yes"/>
      <point x="674.3157894736843" y="528.0"/>
      <point x="597.6842105263157" y="701.2631578947369"/>
      <point x="395.5263157894737" y="701.2631578947369" type="curve" smooth="yes"/>
      <point x="212.84210526315792" y="701.2631578947369"/>
      <point x="115.52631578947368" y="582.5263157894736"/>
      <point x="73.0" y="377.3157894736842" type="curve" smooth="yes"/>
      <point x="29.631578947368425" y="168.73684210526315"/>
      <point x="97.57894736842107" y="-12.157894736842106"/>
    </contour>
    <contour>
      <point x="314.3157894736842" y="101.42105263157895" type="curve"/>
      <point x="207.73684210526315" y="106.52631578947368"/>
      <point x="180.9473684210526" y="219.0"/>
      <point x="211.36842105263156" y="363.42105263157896" type="curve" smooth="yes"/>
      <point x="240.4736842105263" y="501.6315789473684"/>
      <point x="293.2105263157895" y="582.0526315789474"/>
      <point x="392.89473684210526" y="587.1578947368421" type="curve"/>
      <point x="490.2105263157895" y="582.0526315789474"/>
      <point x="523.5263157894736" y="474.36842105263156"/>
      <point x="491.57894736842104" y="324.57894736842104" type="curve" smooth="yes"/>
      <point x="462.4736842105263" y="188.47368421052633"/>
      <point x="413.10526315789474" y="106.52631578947368"/>
    </contour>
  </outline>
</glyph>
<glyph name="one" format="2">
  <advance width="451.1578947368421"/>
  <unicode hex="0031"/>
  <outline>
    <contour>
      <point x="100.05263157894737" y="440.4210526315789" type="line"/>
      <point x="184.15789473684208" y="480.7894736842105"/>
      <point x="267.3157894736842" y="520.6842105263158"/>
      <point x="352.4736842105263" y="561.578947368421" type="curve"/>
      <point x="383.15789473684214" y="691.2631578947369" type="line"/>
      <point x="284.47368421052636" y="649.8421052631579"/>
      <point x="187.3684210526316" y="609.421052631579"/>
      <point x="89.21052631578948" y="568.0" type="curve"/>
    </contour>
    <contour>
      <point x="156.42105263157893" y="0.0" type="curve"/>
      <point x="313.0" y="0.0" type="line"/>
      <point x="324.84210526315786" y="71.84210526315789"/>
      <point x="335.1578947368421" y="134.21052631578948"/>
      <point x="348.5263157894737" y="216.78947368421052" type="curve"/>
      <point x="397.57894736842104" y="448.05263157894734" type="line"/>
      <point x="418.15789473684214" y="529.8947368421053"/>
      <point x="438.7894736842105" y="609.3684210526316"/>
      <point x="458.4736842105263" y="687.1578947368421" type="curve"/>
      <point x="383.15789473684214" y="691.2631578947369" type="line"/>
      <point x="294.6842105263158" y="630.6315789473684" type="line"/>
      <point x="281.7894736842105" y="560.8421052631579"/>
      <point x="268.47368421052636" y="486.8421052631579"/>
      <point x="256.5263157894737" y="422.2631578947368" type="curve"/>
      <point x="213.26315789473685" y="216.78947368421052" type="line"/>
      <point x="191.10526315789474" y="134.21052631578948"/>
      <point x="175.52631578947367" y="71.84210526315789"/>
    </contour>
  </outline>
</glyph>
<glyph name="two" format="2">
  <advance width="565.1052631578947"/>
  <unicode hex="0032"/>
  <outline>
    <contour>
      <point x="-7.421052631578945" y="0.0" type="line"/>
      <point x="466.2631578947369" y="0.0" type="line"/>
      <point x="493.7894736842106" y="129.31578947368422" type="line"/>
      <point x="423.36842105263156" y="125.1578947368421"/>
      <point x="353.5263157894737" y="121.0"/>
      <point x="280.5263157894737" y="116.3157894736842" type="curve"/>
      <point x="152.15789473684208" y="116.3157894736842" type="line"/>
      <point x="167.05263157894737" y="85.84210526315789" type="line"/>
      <point x="285.84210526315786" y="167.57894736842107" type="line"/>
      <point x="450.42105263157896" y="280.4736842105263"/>
      <point x="533.6315789473684" y="360.36842105263156"/>
      <point x="556.5263157894736" y="469.7894736842105" type="curve" smooth="yes"/>
      <point x="583.7368421052631" y="599.6315789473684"/>
      <point x="510.68421052631584" y="701.2631578947369"/>
      <point x="350.5789473684211" y="701.2631578947369" type="curve" smooth="yes"/>
      <point x="305.05263157894734" y="701.2631578947369"/>
      <point x="190.8421052631579" y="668.2105263157896"/>
      <point x="124.6842105263158" y="649.7368421052631" type="curve"/>
      <point x="110.00000000000001" y="510.7894736842105" type="line"/>
      <point x="189.26315789473688" y="544.1052631578948"/>
      <point x="299.36842105263156" y="586.1052631578948"/>
      <point x="319.0" y="586.1052631578948" type="curve"/>
      <point x="398.15789473684214" y="584.0526315789474"/>
      <point x="431.2105263157895" y="537.3684210526317"/>
      <point x="416.5263157894737" y="469.4210526315789" type="curve" smooth="yes"/>
      <point x="397.2631578947369" y="378.1578947368421"/>
      <point x="298.421052631579" y="301.36842105263156"/>
      <point x="144.4736842105263" y="188.68421052631578" type="curve"/>
      <point x="100.89473684210526" y="159.63157894736844"/>
      <point x="57.42105263157896" y="130.6315789473684"/>
      <point x="13.842105263157896" y="101.57894736842104" type="curve"/>
    </contour>
  </outline>
</glyph>
<glyph name="four" format="2">
  <advance width="609.7766990291262"/>
  <unicode hex="0034"/>
  <outline>
    <contour>
      <point x="277.6893203883495" y="0.0" type="curve"/>
      <point x="434.4660194174757" y="0.0" type="line"/>
      <point x="445.21359223300965" y="65.50485436893203"/>
      <point x="453.0873786407767" y="119.2621359223301"/>
      <point x="465.8349514563107" y="197.27184466019418" type="curve"/>
      <point x="518.4563106796116" y="446.37864077669906" type="line"/>
      <point x="538.7087378640776" y="526.126213592233"/>
      <point x="559.0873786407767" y="604.378640776699"/>
      <point x="580.3398058252427" y="687.378640776699" type="curve"/>
      <point x="421.43689320388347" y="687.378640776699" type="line"/>
      <point x="385.32038834951453" y="644.0097087378641"/>
      <point x="349.2038834951456" y="601.6407766990291"/>
      <point x="314.0873786407767" y="559.2718446601941" type="curve"/>
      <point x="204.4757281553398" y="438.53398058252424" type="line"/>
      <point x="150.35922330097088" y="381.5436893203884"/>
      <point x="77.36893203883493" y="303.9320388349514"/>
      <point x="26.252427184466022" y="249.94174757281553" type="curve"/>
      <point x="5.233009708737863" y="148.3495145631068" type="line"/>
      <point x="370.7281553398059" y="148.3495145631068" type="line"/>
      <point x="426.99029126213594" y="146.0970873786408"/>
      <point x="508.88349514563106" y="143.71844660194174"/>
      <point x="560.8932038834953" y="141.59223300970874" type="curve"/>
      <point x="588.5436893203886" y="272.2135922330097" type="line"/>
      <point x="535.4077669902914" y="270.0873786407767"/>
      <point x="452.38834951456306" y="266.8349514563107"/>
      <point x="394.126213592233" y="264.58252427184465" type="curve"/>
      <point x="378.2427184466019" y="262.05825242718447" type="line"/>
      <point x="136.2233009708738" y="262.05825242718447" type="line"/>
      <point x="144.61165048543688" y="239.4466019417476" type="line"/>
      <point x="180.85436893203882" y="281.81553398058253"/>
      <point x="218.0970873786408" y="325.1844660194175"/>
      <point x="254.3398058252427" y="367.5533980582525" type="curve"/>
      <point x="399.68932038834953" y="526.9029126213592" type="line"/>
      <point x="443.93203883495147" y="572.7669902912622"/>
      <point x="486.9223300970874" y="618.3786407766991"/>
      <point x="532.1650485436893" y="665.2427184466019" type="curve"/>
      <point x="418.8252427184466" y="628.4563106796115" type="line"/>
      <point x="406.33009708737865" y="558.0873786407767"/>
      <point x="394.70873786407765" y="490.46601941747576"/>
      <point x="383.0873786407767" y="420.09708737864077" type="curve"/>
      <point x="340.4757281553398" y="218.28155339805826" type="line"/>
      <point x="330.20388349514565" y="197.27184466019418" type="line"/>
      <point x="309.57281553398053" y="119.38834951456312"/>
      <point x="295.19417475728153" y="66.37864077669902"/>
    </contour>
  </outline>
</glyph>
<glyph name="six" format="2">
  <advance width="614.8932038834951"/>
  <unicode hex="0036"/>
  <outline>
    <contour>
      <point x="296.2621359223301" y="-12.504854368932039" type="curve" smooth="yes"/>
      <point x="458.1650485436893" y="-12.504854368932039"/>
      <point x="539.6601941747574" y="88.36893203883496"/>
      <point x="563.6601941747574" y="201.24271844660194" type="curve" smooth="yes"/>
      <point x="592.7864077669904" y="337.126213592233"/>
      <point x="518.2815533980583" y="447.7281553398059"/>
      <point x="386.79611650485435" y="447.7281553398059" type="curve" smooth="yes"/>
      <point x="342.81553398058253" y="447.7281553398059"/>
      <point x="269.2330097087379" y="410.88349514563106"/>
      <point x="220.61165048543688" y="380.1456310679612" type="curve"/>
      <point x="204.10679611650482" y="381.0194174757282" type="line"/>
      <point x="165.19417475728156" y="335.37864077669906"/>
      <point x="161.06796116504853" y="319.631067961165"/>
      <point x="183.47572815533982" y="277.9805825242718" type="curve"/>
      <point x="229.5631067961165" y="314.82524271844665"/>
      <point x="300.9999999999999" y="341.1747572815534"/>
      <point x="335.8640776699029" y="344.3009708737864" type="curve"/>
      <point x="416.79611650485435" y="341.17475728155335"/>
      <point x="448.02912621359224" y="283.34951456310677"/>
      <point x="433.91262135922335" y="217.76699029126212" type="curve" smooth="yes"/>
      <point x="419.9223300970874" y="152.05825242718444"/>
      <point x="374.8252427184466" y="105.4757281553398"/>
      <point x="299.7669902912621" y="102.3495145631068" type="curve"/>
      <point x="209.71844660194176" y="108.85436893203882"/>
      <point x="165.7378640776699" y="186.04854368932038"/>
      <point x="199.72815533980582" y="344.50485436893206" type="curve" smooth="yes"/>
      <point x="236.2135922330097" y="517.8155339805826"/>
      <point x="299.0582524271844" y="582.7766990291262"/>
      <point x="412.2621359223301" y="585.9029126213593" type="curve"/>
      <point x="427.50485436893194" y="585.9029126213593"/>
      <point x="516.1456310679612" y="558.2718446601941"/>
      <point x="577.8834951456312" y="533.0291262135922" type="curve"/>
      <point x="616.2912621359224" y="655.5145631067961" type="line"/>
      <point x="564.4077669902913" y="671.2621359223301"/>
      <point x="449.26213592233006" y="701.6310679611651"/>
      <point x="412.2621359223301" y="701.6310679611651" type="curve" smooth="yes"/>
      <point x="248.89320388349515" y="701.6310679611651"/>
      <point x="123.48543689320388" y="614.6699029126214"/>
      <point x="69.98058252427185" y="362.0194174757282" type="curve" smooth="yes"/>
      <point x="22.475728155339805" y="134.252427184466"/>
      <point x="107.10679611650482" y="-12.504854368932039"/>
    </contour>
  </outline>
</glyph>
<glyph name="seven" format="2">
  <advance width="543.6315789473684"/>
  <unicode hex="0037"/>
  <outline>
    <contour>
      <point x="37.94736842105263" y="0.0" type="curve"/>
      <point x="211.52631578947367" y="0.0" type="line"/>
      <point x="257.47368421052624" y="78.10526315789474"/>
      <point x="301.84210526315786" y="155.63157894736844"/>
      <point x="347.3157894736842" y="232.78947368421052" type="curve"/>
      <point x="433.1578947368421" y="365.10526315789474" type="line"/>
      <point x="483.6842105263158" y="440.94736842105266"/>
      <point x="530.2631578947369" y="510.3684210526316"/>
      <point x="579.3684210526316" y="584.3157894736842" type="curve"/>
      <point x="601.1578947368421" y="687.1578947368421" type="line"/>
      <point x="117.0" y="687.1578947368421" type="line"/>
      <point x="89.47368421052632" y="556.2631578947369" type="line"/>
      <point x="169.00000000000003" y="560.9473684210527"/>
      <point x="249.05263157894743" y="566.1578947368421"/>
      <point x="328.57894736842104" y="570.8421052631579" type="curve"/>
      <point x="460.7368421052632" y="570.8421052631579" type="line"/>
      <point x="424.84210526315786" y="598.2105263157895" type="line"/>
      <point x="395.73684210526324" y="550.0"/>
      <point x="367.0526315789474" y="501.7368421052632"/>
      <point x="338.89473684210526" y="453.5263157894737" type="curve"/>
      <point x="210.3684210526316" y="257.1578947368421" type="line"/>
      <point x="153.73684210526315" y="172.57894736842104"/>
      <point x="95.57894736842105" y="86.05263157894737"/>
    </contour>
  </outline>
</glyph>
<glyph name="less" format="2">
  <advance width="575.7894736842105"/>
  <unicode hex="003C"/>
  <outline>
    <contour>
      <point x="480.2105263157895" y="52.8421052631579" type="curve"/>
      <point x="507.6842105263158" y="180.42105263157893" type="line"/>
      <point x="450.3684210526315" y="202.8421052631579"/>
      <point x="389.31578947368416" y="227.15789473684208"/>
      <point x="331.05263157894734" y="250.05263157894737" type="curve"/>
      <point x="238.36842105263156" y="290.6315789473684" type="line"/>
      <point x="240.89473684210523" y="301.89473684210526" type="line"/>
      <point x="349.6842105263158" y="341.42105263157896" type="line"/>
      <point x="417.6842105263158" y="363.7894736842105"/>
      <point x="489.4736842105263" y="388.10526315789474"/>
      <point x="556.5263157894738" y="410.0" type="curve"/>
      <point x="585.578947368421" y="550.9473684210526" type="line"/>
      <point x="512.0526315789474" y="521.8421052631579"/>
      <point x="443.68421052631584" y="494.7894736842105"/>
      <point x="383.3157894736843" y="471.2105263157895" type="curve"/>
      <point x="278.5263157894737" y="432.5263157894737" type="line"/>
      <point x="219.6315789473684" y="412.57894736842104"/>
      <point x="150.73684210526312" y="389.15789473684214"/>
      <point x="79.26315789473685" y="365.6842105263158" type="curve"/>
      <point x="51.78947368421053" y="238.10526315789474" type="line"/>
      <point x="113.26315789473685" y="214.63157894736844"/>
      <point x="172.68421052631578" y="191.21052631578948"/>
      <point x="222.6315789473684" y="171.26315789473685" type="curve"/>
      <point x="311.5263157894737" y="132.57894736842104" type="line"/>
      <point x="361.36842105263156" y="109.0"/>
      <point x="418.6842105263158" y="81.47368421052632"/>
    </contour>
  </outline>
</glyph>
<glyph name="equal" format="2">
  <advance width="575.7894736842105"/>
  <unicode hex="003D"/>
  <outline>
    <contour>
      <point x="32.89473684210526" y="121.94736842105263" type="line"/>
      <point x="100.36842105263158" y="124.0"/>
      <point x="172.6315789473684" y="126.05263157894737"/>
      <point x="219.21052631578945" y="127.10526315789474" type="curve"/>
      <point x="305.5263157894737" y="127.10526315789474" type="line"/>
      <point x="352.1052631578948" y="126.05263157894737"/>
      <point x="423.3157894736843" y="124.0"/>
      <point x="489.7368421052631" y="121.94736842105263" type="curve"/>
      <point x="516.2105263157894" y="246.47368421052633" type="line"/>
      <point x="449.2631578947368" y="244.42105263157893"/>
      <point x="376.5263157894737" y="242.3684210526316"/>
      <point x="329.9473684210526" y="241.31578947368422" type="curve"/>
      <point x="243.6315789473684" y="241.31578947368422" type="line"/>
      <point x="197.05263157894737" y="242.3684210526316"/>
      <point x="126.3157894736842" y="244.42105263157893"/>
      <point x="59.368421052631575" y="246.47368421052633" type="curve"/>
    </contour>
    <contour>
      <point x="82.21052631578947" y="358.2631578947369" type="line"/>
      <point x="149.6842105263158" y="360.3157894736842"/>
      <point x="221.94736842105263" y="362.3684210526316"/>
      <point x="268.52631578947364" y="363.42105263157896" type="curve"/>
      <point x="354.84210526315786" y="363.42105263157896" type="line"/>
      <point x="401.42105263157896" y="362.3684210526316"/>
      <point x="472.6315789473684" y="360.3157894736842"/>
      <point x="539.0526315789474" y="358.2631578947369" type="curve"/>
      <point x="565.5263157894736" y="482.7894736842105" type="line"/>
      <point x="498.57894736842104" y="480.7368421052632"/>
      <point x="425.8421052631579" y="478.6842105263158"/>
      <point x="379.2631578947368" y="477.63157894736844" type="curve"/>
      <point x="292.9473684210526" y="477.63157894736844" type="line"/>
      <point x="246.36842105263156" y="478.6842105263158"/>
      <point x="175.6315789473684" y="480.7368421052632"/>
      <point x="108.6842105263158" y="482.7894736842105" type="curve"/>
    </contour>
  </outline>
</glyph>
<glyph name="greater" format="2">
  <advance width="575.7894736842105"/>
  <unicode hex="003E"/>
  <outline>
    <contour>
      <point x="12.842105263157894" y="52.8421052631579" type="line"/>
      <point x="86.36842105263159" y="81.94736842105263"/>
      <point x="154.73684210526315" y="109.0"/>
      <point x="215.10526315789474" y="132.57894736842104" type="curve"/>
      <point x="319.89473684210526" y="171.26315789473685" type="line"/>
      <point x="378.7894736842106" y="191.21052631578948"/>
      <point x="447.6842105263158" y="214.63157894736847"/>
      <point x="519.1578947368421" y="238.10526315789474" type="curve"/>
      <point x="546.6315789473683" y="365.6842105263158" type="line"/>
      <point x="485.1578947368421" y="389.1578947368421"/>
      <point x="425.7368421052632" y="412.57894736842104"/>
      <point x="375.7894736842105" y="432.5263157894737" type="curve"/>
      <point x="286.8947368421052" y="471.2105263157895" type="line"/>
      <point x="237.05263157894734" y="494.7894736842105"/>
      <point x="179.73684210526312" y="522.3157894736842"/>
      <point x="118.21052631578948" y="550.9473684210526" type="curve"/>
      <point x="90.73684210526316" y="423.36842105263156" type="line"/>
      <point x="148.05263157894734" y="400.9473684210526"/>
      <point x="209.10526315789474" y="376.6315789473684"/>
      <point x="267.3684210526316" y="353.7368421052631" type="curve"/>
      <point x="360.0526315789474" y="313.15789473684214" type="line"/>
      <point x="357.5263157894737" y="301.89473684210526" type="line"/>
      <point x="248.73684210526318" y="262.36842105263156" type="line"/>
      <point x="180.73684210526318" y="239.99999999999997"/>
      <point x="108.94736842105263" y="215.68421052631578"/>
      <point x="41.89473684210526" y="193.78947368421052" type="curve"/>
    </contour>
  </outline>
</glyph>
<glyph name="at" format="2">
  <advance width="889.2105263157895"/>
  <unicode hex="0040"/>
  <outline>
    <contour>
      <point x="482.52631578947364" y="-140.42105263157896" type="curve" smooth="yes"/>
      <point x="547.5789473684212" y="-140.42105263157896"/>
      <point x="673.0" y="-99.10526315789473"/>
      <point x="765.578947368421" y="-71.78947368421052" type="curve"/>
      <point x="765.578947368421" y="19.421052631578945" type="line"/>
      <point x="648.2631578947369" y="-25.210526315789476"/>
      <point x="525.1052631578948" y="-60.05263157894737"/>
      <point x="482.52631578947364" y="-62.578947368421055" type="curve"/>
      <point x="214.47368421052633" y="-58.526315789473685"/>
      <point x="93.84210526315789" y="118.05263157894737"/>
      <point x="140.94736842105263" y="335.63157894736844" type="curve" smooth="yes"/>
      <point x="178.63157894736844" y="510.8947368421053"/>
      <point x="298.2631578947368" y="608.1052631578947"/>
      <point x="477.52631578947364" y="612.1578947368421" type="curve"/>
      <point x="684.6315789473684" y="608.1052631578947"/>
      <point x="801.1578947368421" y="470.2631578947369"/>
      <point x="764.2631578947369" y="268.5263157894737" type="curve" smooth="yes"/>
      <point x="758.8947368421053" y="239.68421052631578"/>
      <point x="685.6842105263158" y="149.31578947368422"/>
      <point x="653.7894736842105" y="141.94736842105266" type="curve"/>
      <point x="609.8947368421052" y="145.47368421052633"/>
      <point x="593.7894736842105" y="170.78947368421052"/>
      <point x="609.421052631579" y="246.3157894736842" type="curve"/>
      <point x="629.2631578947369" y="341.10526315789474" type="line"/>
      <point x="643.4736842105264" y="387.05263157894734"/>
      <point x="659.1052631578947" y="437.6842105263158"/>
      <point x="674.2631578947369" y="484.3157894736842" type="curve"/>
      <point x="569.6315789473684" y="478.6842105263158" type="line"/>
      <point x="553.0526315789474" y="427.4736842105263" type="line"/>
      <point x="543.842105263158" y="427.4736842105263" type="line"/>
      <point x="509.3684210526315" y="460.6842105263158"/>
      <point x="459.4736842105263" y="489.7894736842105"/>
      <point x="425.52631578947364" y="489.7894736842105" type="curve" smooth="yes"/>
      <point x="332.57894736842104" y="489.7894736842105"/>
      <point x="265.4210526315789" y="411.8421052631579"/>
      <point x="244.05263157894737" y="307.36842105263156" type="curve" smooth="yes"/>
      <point x="218.5263157894737" y="182.52631578947367"/>
      <point x="270.84210526315786" y="69.84210526315789"/>
      <point x="384.4736842105263" y="69.84210526315789" type="curve" smooth="yes"/>
      <point x="411.10526315789474" y="69.84210526315789"/>
      <point x="460.1578947368421" y="98.15789473684211"/>
      <point x="506.7368421052632" y="134.47368421052633" type="curve"/>
      <point x="515.421052631579" y="134.47368421052633" type="line"/>
      <point x="531.8947368421053" y="96.10526315789474"/>
      <point x="577.8947368421053" y="60.89473684210526"/>
      <point x="660.7894736842106" y="60.89473684210526" type="curve" smooth="yes"/>
      <point x="701.5789473684212" y="60.89473684210526"/>
      <point x="831.2105263157895" y="176.42105263157896"/>
      <point x="845.8421052631579" y="252.0" type="curve" smooth="yes"/>
      <point x="892.5263157894738" y="493.2105263157895"/>
      <point x="734.421052631579" y="690.0"/>
      <point x="479.05263157894734" y="690.0" type="curve" smooth="yes"/>
      <point x="284.84210526315786" y="690.0"/>
      <point x="108.10526315789473" y="585.8421052631579"/>
      <point x="59.42105263157895" y="352.7894736842105" type="curve" smooth="yes"/>
      <point x="5.052631578947369" y="94.36842105263158"/>
      <point x="161.21052631578948" y="-140.42105263157896"/>
    </contour>
    <contour>
      <point x="415.31578947368416" y="163.52631578947367" type="curve"/>
      <point x="356.4210526315789" y="165.52631578947367"/>
      <point x="333.10526315789474" y="221.68421052631578"/>
      <point x="347.1578947368421" y="289.10526315789474" type="curve" smooth="yes"/>
      <point x="359.84210526315786" y="349.1578947368421"/>
      <point x="394.9473684210526" y="391.5263157894737"/>
      <point x="451.2105263157895" y="394.0526315789474" type="curve"/>
      <point x="475.5263157894737" y="392.00000000000006"/>
      <point x="506.2105263157894" y="375.2105263157895"/>
      <point x="527.7894736842106" y="356.42105263157896" type="curve"/>
      <point x="497.89473684210526" y="217.68421052631578" type="line"/>
      <point x="470.8947368421053" y="185.26315789473685"/>
      <point x="437.31578947368416" y="167.1052631578947"/>
    </contour>
  </outline>
</glyph>
<glyph name="A" format="2">
  <advance width="712.7368421052631"/>
  <unicode hex="0041"/>
  <anchor x="304.1052631578947" y="0.0" name="bottom"/>
  <anchor x="644.578947368421" y="0.0" name="ogonek"/>
  <anchor x="453.05263157894734" y="713.0" name="top"/>
  <outline>
    <contour>
      <point x="-39.94736842105264" y="0.0" type="curve"/>
      <point x="137.68421052631578" y="0.0" type="line"/>
      <point x="173.31578947368422" y="77.84210526315789"/>
      <point x="211.94736842105263" y="162.31578947368425"/>
      <point x="247.1052631578947" y="239.21052631578948" type="curve"/>
      <point x="425.5263157894737" y="589.1052631578948" type="line"/>
      <point x="436.7894736842105" y="589.1052631578948" type="line"/>
      <point x="470.5263157894737" y="237.6842105263158" type="line"/>
      <point x="474.0" y="162.26315789473685"/>
      <point x="477.89473684210526" y="75.94736842105263"/>
      <point x="481.3684210526316" y="0.0" type="curve"/>
      <point x="647.7368421052631" y="0.0" type="line"/>
      <point x="634.7894736842105" y="73.94736842105263"/>
      <point x="619.3157894736842" y="163.57894736842104"/>
      <point x="605.8947368421052" y="240.3684210526316" type="curve"/>
      <point x="575.4736842105264" y="487.0" type="line"/>
      <point x="569.8421052631578" y="572.0526315789474"/>
      <point x="565.1578947368421" y="639.8947368421054"/>
      <point x="560.4736842105264" y="713.0" type="curve"/>
      <point x="348.6315789473685" y="713.0" type="line"/>
      <point x="311.9473684210527" y="638.9999999999999"/>
      <point x="278.7368421052631" y="571.4736842105264"/>
      <point x="237.10526315789474" y="487.4736842105263" type="curve"/>
      <point x="103.73684210526315" y="243.0" type="line"/>
      <point x="58.31578947368421" y="166.4736842105263"/>
      <point x="5.9473684210526345" y="77.47368421052632"/>
    </contour>
    <contour>
      <point x="165.36842105263156" y="157.21052631578948" type="line"/>
      <point x="522.4736842105264" y="157.21052631578948" type="line"/>
      <point x="532.6842105263157" y="266.1578947368421" type="line"/>
      <point x="202.42105263157896" y="266.1578947368421" type="line"/>
    </contour>
  </outline>
</glyph>
<glyph name="C" format="2">
  <advance width="683.3684210526317"/>
  <unicode hex="0043"/>
  <anchor x="344.2631578947368" y="0.0" name="bottom"/>
  <anchor x="489.52631578947364" y="713.0" name="top"/>
  <outline>
    <contour>
      <point x="383.6315789473684" y="-12.68421052631579" type="curve" smooth="yes"/>
      <point x="423.3157894736843" y="-12.68421052631579"/>
      <point x="530.421052631579" y="11.631578947368421"/>
      <point x="587.2631578947368" y="29.94736842105263" type="curve"/>
      <point x="608.2105263157895" y="170.3157894736842" type="line"/>
      <point x="537.8947368421053" y="139.0"/>
      <point x="435.63157894736844" y="107.1578947368421"/>
      <point x="406.8421052631579" y="107.1578947368421" type="curve"/>
      <point x="245.05263157894734" y="110.68421052631578"/>
      <point x="187.84210526315792" y="244.0"/>
      <point x="216.78947368421055" y="381.42105263157896" type="curve" smooth="yes"/>
      <point x="249.78947368421055" y="538.1578947368421"/>
      <point x="353.6842105263157" y="600.0526315789474"/>
      <point x="469.6842105263158" y="603.578947368421" type="curve"/>
      <point x="492.4210526315789" y="603.578947368421"/>
      <point x="593.5789473684212" y="574.4736842105262"/>
      <point x="687.5263157894738" y="538.8947368421052" type="curve"/>
      <point x="727.4210526315791" y="674.3684210526316" type="line"/>
      <point x="652.1052631578947" y="696.5263157894736"/>
      <point x="528.1052631578947" y="727.1052631578947"/>
      <point x="483.7894736842105" y="727.1052631578947" type="curve" smooth="yes"/>
      <point x="258.10526315789474" y="727.1052631578947"/>
      <point x="115.57894736842105" y="614.1052631578948"/>
      <point x="71.10526315789474" y="401.10526315789474" type="curve" smooth="yes"/>
      <point x="25.0" y="182.05263157894737"/>
      <point x="136.52631578947367" y="-12.68421052631579"/>
    </contour>
  </outline>
</glyph>
<glyph name="E" format="2">
  <advance width="598.0097087378641"/>
  <unicode hex="0045"/>
  <anchor x="259.36893203883494" y="0.0" name="bottom"/>
  <anchor x="492.01941747572823" y="0.0" name="ogonek"/>
  <anchor x="409.36893203883494" y="713.0" name="top"/>
  <anchor x="135.00000000000003" y="713.0" name="topleft"/>
  <outline>
    <contour>
      <point x="15.699029126213597" y="0.0" type="curve"/>
      <point x="179.23300970873785" y="0.0" type="line"/>
      <point x="184.73786407766988" y="22.524271844660195" type="line"/>
      <point x="197.23300970873785" y="99.14563106796116"/>
      <point x="207.8543689320388" y="167.51456310679612"/>
      <point x="222.4757281553398" y="255.89320388349515" type="curve"/>
      <point x="263.4660194174757" y="452.3495145631068" type="line"/>
      <point x="287.09708737864077" y="543.8543689320388"/>
      <point x="304.3495145631068" y="611.7281553398059"/>
      <point x="324.72815533980577" y="690.4757281553398" type="curve"/>
      <point x="329.23300970873777" y="713.0" type="line"/>
      <point x="165.6990291262136" y="713.0" type="line"/>
      <point x="152.2038834951456" y="635.1262135922331"/>
      <point x="141.58252427184465" y="567.7572815533981"/>
      <point x="126.83495145631068" y="473.126213592233" type="curve"/>
      <point x="75.70873786407766" y="233.36893203883494" type="line"/>
      <point x="52.20388349514563" y="143.99029126213594"/>
      <point x="35.95145631067961" y="78.36893203883494"/>
    </contour>
    <contour>
      <point x="151.70873786407768" y="0.0" type="line"/>
      <point x="494.52427184466023" y="0.0" type="line"/>
      <point x="522.9223300970874" y="131.4854368932039" type="line"/>
      <point x="454.9320388349514" y="128.10679611650485"/>
      <point x="381.32038834951453" y="123.85436893203884"/>
      <point x="299.70873786407765" y="119.60194174757282" type="curve"/>
      <point x="176.98058252427185" y="119.60194174757282" type="line"/>
    </contour>
    <contour>
      <point x="198.67961165048544" y="303.3300970873786" type="line"/>
      <point x="331.16504854368935" y="303.3300970873786" type="line"/>
      <point x="417.02912621359224" y="300.95145631067953"/>
      <point x="475.3980582524272" y="298.82524271844653"/>
      <point x="537.6407766990292" y="297.57281553398053" type="curve"/>
      <point x="564.6601941747573" y="424.4174757281553" type="line"/>
      <point x="504.2912621359224" y="422.29126213592235"/>
      <point x="444.0485436893204" y="420.03883495145635"/>
      <point x="355.8058252427185" y="416.7864077669903" type="curve"/>
      <point x="222.4466019417476" y="416.7864077669903" type="line"/>
    </contour>
    <contour>
      <point x="267.55339805825247" y="593.3980582524272" type="line"/>
      <point x="388.5339805825243" y="593.3980582524272" type="line"/>
      <point x="483.8932038834952" y="588.8932038834951"/>
      <point x="550.504854368932" y="584.7669902912621"/>
      <point x="614.4951456310681" y="581.5145631067961" type="curve"/>
      <point x="641.8932038834952" y="713.0" type="line"/>
      <point x="292.69902912621365" y="713.0" type="line"/>
    </contour>
  </outline>
</glyph>
<glyph name="F" format="2">
  <advance width="578.8947368421053"/>
  <unicode hex="0046"/>
  <outline>
    <contour>
      <point x="15.473684210526324" y="0.0" type="curve"/>
      <point x="179.3157894736842" y="0.0" type="line"/>
      <point x="192.15789473684208" y="77.3157894736842"/>
      <point x="202.0" y="142.73684210526315"/>
      <point x="216.8421052631579" y="233.26315789473685" type="curve"/>
      <point x="263.15789473684214" y="452.0" type="line"/>
      <point x="286.36842105263156" y="543.6842105263158"/>
      <point x="305.0" y="611.6315789473684"/>
      <point x="325.1052631578947" y="690.5263157894736" type="curve"/>
      <point x="329.3157894736842" y="713.0" type="line"/>
      <point x="165.47368421052633" y="713.0" type="line"/>
      <point x="152.63157894736844" y="635.0526315789473"/>
      <point x="141.78947368421052" y="567.7894736842105"/>
      <point x="126.42105263157896" y="473.52631578947364" type="curve"/>
      <point x="75.36842105263159" y="233.26315789473685" type="line"/>
      <point x="52.15789473684212" y="143.63157894736844"/>
      <point x="35.57894736842106" y="78.26315789473684"/>
    </contour>
    <contour>
      <point x="193.8421052631579" y="293.3157894736842" type="line"/>
      <point x="321.5263157894737" y="293.3157894736842" type="line"/>
      <point x="407.10526315789474" y="290.6842105263158"/>
      <point x="464.8421052631579" y="288.63157894736844"/>
      <point x="527.5263157894738" y="287.0526315789474" type="curve"/>
      <point x="555.0526315789474" y="417.3157894736842" type="line"/>
      <point x="494.7894736842106" y="415.2631578947368"/>
      <point x="435.0526315789474" y="412.6842105263158"/>
      <point x="346.36842105263156" y="409.57894736842104" type="curve"/>
      <point x="218.21052631578945" y="409.57894736842104" type="line"/>
    </contour>
    <contour>
      <point x="264.8947368421053" y="592.0" type="line"/>
      <point x="380.8947368421053" y="592.0" type="line"/>
      <point x="477.21052631578954" y="587.3157894736842"/>
      <point x="543.2105263157895" y="583.7368421052631"/>
      <point x="606.842105263158" y="580.6315789473684" type="curve"/>
      <point x="634.3684210526317" y="713.0" type="line"/>
      <point x="290.3157894736842" y="713.0" type="line"/>
    </contour>
  </outline>
</glyph>
<glyph name="G" format="2">
  <advance width="729.1052631578948"/>
  <unicode hex="0047"/>
  <anchor x="344.2631578947368" y="0.0" name="bottom"/>
  <anchor x="494.2631578947368" y="713.0" name="top"/>
  <outline>
    <contour>
      <point x="401.15789473684214" y="-12.157894736842106" type="curve" smooth="yes"/>
      <point x="454.8421052631579" y="-12.157894736842106"/>
      <point x="560.9473684210526" y="9.157894736842104"/>
      <point x="628.6315789473684" y="23.894736842105264" type="curve"/>
      <point x="630.3157894736843" y="157.10526315789474" type="line"/>
      <point x="552.7894736842105" y="131.31578947368422"/>
      <point x="441.9473684210526" y="104.52631578947368"/>
      <point x="410.0526315789474" y="104.52631578947368" type="curve"/>
      <point x="242.31578947368422" y="108.05263157894737"/>
      <point x="185.73684210526315" y="240.8421052631579"/>
      <point x="215.73684210526315" y="382.4736842105263" type="curve" smooth="yes"/>
      <point x="249.73684210526315" y="542.6842105263157"/>
      <point x="361.1578947368421" y="600.578947368421"/>
      <point x="474.0" y="603.578947368421" type="curve"/>
      <point x="498.2105263157895" y="603.578947368421"/>
      <point x="605.3684210526316" y="572.1052631578947"/>
      <point x="705.3684210526316" y="532.6842105263157" type="curve"/>
      <point x="745.2631578947369" y="668.157894736842" type="line"/>
      <point x="661.7368421052631" y="692.2105263157894"/>
      <point x="525.0526315789473" y="727.1052631578947"/>
      <point x="476.6842105263158" y="727.1052631578947" type="curve" smooth="yes"/>
      <point x="259.05263157894734" y="727.1052631578947"/>
      <point x="116.63157894736842" y="617.3684210526316"/>
      <point x="71.10526315789474" y="401.10526315789474" type="curve" smooth="yes"/>
      <point x="25.578947368421055" y="184.8947368421053"/>
      <point x="127.73684210526315" y="-12.157894736842106"/>
    </contour>
    <contour>
      <point x="480.52631578947364" y="23.894736842105264" type="curve"/>
      <point x="628.6315789473684" y="23.894736842105264" type="line"/>
      <point x="641.1052631578947" y="95.15789473684211"/>
      <point x="649.578947368421" y="148.42105263157896"/>
      <point x="659.578947368421" y="203.68421052631578" type="curve"/>
      <point x="677.2631578947369" y="267.89473684210526"/>
      <point x="690.9473684210526" y="314.10526315789474"/>
      <point x="705.1052631578947" y="365.8421052631579" type="curve"/>
      <point x="546.1052631578947" y="365.8421052631579" type="line"/>
      <point x="539.2105263157894" y="314.10526315789474"/>
      <point x="532.7894736842105" y="267.89473684210526"/>
      <point x="523.8947368421052" y="203.68421052631578" type="curve"/>
      <point x="510.2631578947368" y="148.42105263157896"/>
      <point x="497.1578947368421" y="94.26315789473685"/>
    </contour>
  </outline>
</glyph>
<glyph name="I" format="2">
  <advance width="310.89473684210526"/>
  <unicode hex="0049"/>
  <anchor x="100.31578947368422" y="0.0" name="bottom"/>
  <anchor x="185.10526315789474" y="0.0" name="ogonek"/>
  <anchor x="250.31578947368422" y="713.0" name="top"/>
  <anchor x="131.31578947368422" y="713.0" name="topleft"/>
  <outline>
    <contour>
      <point x="18.105263157894733" y="0.0" type="curve"/>
      <point x="187.73684210526315" y="0.0" type="line"/>
      <point x="200.05263157894737" y="76.26315789473684"/>
      <point x="210.42105263157896" y="141.6842105263158"/>
      <point x="225.26315789473685" y="233.26315789473685" type="curve"/>
      <point x="276.3157894736842" y="473.52631578947364" type="line"/>
      <point x="300.5263157894737" y="567.7368421052632"/>
      <point x="317.63157894736844" y="634.1052631578947"/>
      <point x="337.7368421052631" y="713.0" type="curve"/>
      <point x="168.10526315789474" y="713.0" type="line"/>
      <point x="155.26315789473685" y="635.0526315789473"/>
      <point x="144.42105263157893" y="567.7894736842105"/>
      <point x="129.05263157894737" y="473.52631578947364" type="curve"/>
      <point x="78.0" y="233.26315789473685" type="line"/>
      <point x="54.78947368421053" y="143.63157894736844"/>
      <point x="38.21052631578947" y="78.26315789473684"/>
    </contour>
  </outline>
</glyph>
<glyph name="J" format="2">
  <advance width="316.2631578947369"/>
  <unicode hex="004A"/>
  <anchor x="107.31578947368422" y="0.0" name="bottom"/>
  <anchor x="257.3157894736842" y="713.0" name="top"/>
  <outline>
    <contour>
      <point x="-71.15789473684211" y="-155.78947368421052" type="curve"/>
      <point x="67.05263157894737" y="-155.78947368421052" type="line"/>
      <point x="106.15789473684211" y="-106.42105263157896"/>
      <point x="191.94736842105266" y="10.57894736842105"/>
      <point x="201.78947368421052" y="58.15789473684211" type="curve" smooth="yes"/>
      <point x="219.8421052631579" y="142.52631578947367"/>
      <point x="230.10526315789474" y="230.99999999999997"/>
      <point x="249.21052631578945" y="321.5263157894737" type="curve"/>
      <point x="281.6842105263158" y="473.52631578947364" type="line"/>
      <point x="305.89473684210526" y="567.7368421052632"/>
      <point x="322.99999999999994" y="634.1052631578947"/>
      <point x="343.10526315789474" y="713.0" type="curve"/>
      <point x="176.10526315789474" y="713.0" type="line"/>
      <point x="163.26315789473682" y="635.0526315789473"/>
      <point x="152.42105263157893" y="567.7894736842105"/>
      <point x="137.05263157894737" y="473.52631578947364" type="curve"/>
      <point x="101.26315789473685" y="305.89473684210526" type="line"/>
      <point x="45.315789473684205" y="57.78947368421052" type="line"/>
      <point x="1.3684210526315819" y="-21.842105263157897"/>
      <point x="-33.94736842105263" y="-87.89473684210526"/>
    </contour>
  </outline>
</glyph>
<glyph name="K" format="2">
  <advance width="693.7368421052631"/>
  <unicode hex="004B"/>
  <anchor x="302.63157894736844" y="0.0" name="bottom"/>
  <anchor x="452.63157894736844" y="713.0" name="top"/>
  <outline>
    <contour>
      <point x="442.4736842105263" y="0.0" type="curve"/>
      <point x="630.8421052631579" y="0.0" type="line"/>
      <point x="588.4736842105262" y="63.73684210526315"/>
      <point x="520.9473684210526" y="165.68421052631578"/>
      <point x="471.2105263157895" y="240.42105263157893" type="curve"/>
      <point x="369.0" y="406.6315789473684" type="line"/>
      <point x="368.89473684210526" y="341.2631578947368" type="line"/>
      <point x="517.421052631579" y="485.10526315789474" type="line"/>
      <point x="598.2105263157895" y="559.7894736842106"/>
      <point x="678.9473684210526" y="633.8947368421053"/>
      <point x="765.1052631578948" y="713.0" type="curve"/>
      <point x="564.0526315789474" y="713.0" type="line"/>
      <point x="499.5263157894737" y="644.578947368421"/>
      <point x="454.7894736842106" y="595.3684210526316"/>
      <point x="404.2631578947369" y="540.7368421052631" type="curve"/>
      <point x="288.68421052631584" y="427.2105263157895" type="line"/>
      <point x="248.26315789473685" y="427.2105263157895" type="line"/>
      <point x="224.42105263157893" y="313.0526315789474" type="line"/>
      <point x="266.4736842105263" y="313.0526315789474" type="line"/>
      <point x="348.5263157894737" y="174.94736842105263" type="line"/>
      <point x="377.31578947368416" y="121.26315789473685"/>
      <point x="406.99999999999994" y="66.10526315789474"/>
    </contour>
    <contour>
      <point x="15.473684210526324" y="0.0" type="curve"/>
      <point x="181.94736842105263" y="0.0" type="line"/>
      <point x="194.26315789473685" y="76.26315789473684"/>
      <point x="204.63157894736844" y="141.6842105263158"/>
      <point x="219.47368421052633" y="233.26315789473685" type="curve"/>
      <point x="270.5263157894737" y="473.52631578947364" type="line"/>
      <point x="294.7368421052632" y="567.7368421052632"/>
      <point x="311.8421052631579" y="634.1052631578947"/>
      <point x="331.9473684210526" y="713.0" type="curve"/>
      <point x="165.47368421052633" y="713.0" type="line"/>
      <point x="152.63157894736844" y="635.0526315789473"/>
      <point x="141.78947368421052" y="567.7894736842105"/>
      <point x="126.42105263157896" y="473.52631578947364" type="curve"/>
      <point x="75.36842105263159" y="233.26315789473685" type="line"/>
      <point x="52.15789473684212" y="143.63157894736844"/>
      <point x="35.57894736842106" y="78.26315789473684"/>
    </contour>
  </outline>
</glyph>
<glyph name="L" format="2">
  <advance width="572.8421052631578"/>
  <unicode hex="004C"/>
  <anchor x="255.421052631579" y="0.0" name="bottom"/>
  <anchor x="457.63157894736844" y="358.57894736842104" name="center"/>
  <anchor x="318.9473684210526" y="713.0" name="top"/>
  <anchor x="351.0526315789474" y="498.2105263157895" name="topright"/>
  <outline>
    <contour>
      <point x="15.473684210526324" y="0.0" type="curve"/>
      <point x="182.4736842105263" y="0.0" type="line"/>
      <point x="187.68421052631578" y="22.94736842105263" type="line"/>
      <point x="196.3157894736842" y="100.26315789473684"/>
      <point x="206.68421052631575" y="166.6315789473684"/>
      <point x="225.21052631578945" y="256.2105263157894" type="curve"/>
      <point x="271.05263157894734" y="473.52631578947364" type="line"/>
      <point x="295.2631578947368" y="567.7368421052632"/>
      <point x="312.36842105263156" y="634.1052631578947"/>
      <point x="332.47368421052624" y="713.0" type="curve"/>
      <point x="165.47368421052633" y="713.0" type="line"/>
      <point x="152.63157894736844" y="635.0526315789473"/>
      <point x="141.78947368421052" y="567.7894736842105"/>
      <point x="126.42105263157896" y="473.52631578947364" type="curve"/>
      <point x="75.36842105263159" y="233.26315789473685" type="line"/>
      <point x="52.15789473684212" y="143.63157894736844"/>
      <point x="35.57894736842106" y="78.26315789473684"/>
    </contour>
    <contour>
      <point x="151.36842105263153" y="0.0" type="line"/>
      <point x="489.68421052631584" y="0.0" type="line"/>
      <point x="519.3157894736842" y="141.3157894736842" type="line"/>
      <point x="445.3157894736841" y="136.6315789473684"/>
      <point x="383.2631578947368" y="132.99999999999997"/>
      <point x="276.5789473684211" y="126.26315789473684" type="curve"/>
      <point x="178.36842105263153" y="126.26315789473684" type="line"/>
    </contour>
  </outline>
</glyph>
<glyph name="M" format="2">
  <advance width="961.5263157894736"/>
  <unicode hex="004D"/>
  <anchor x="427.7368421052631" y="0.0" name="bottom"/>
  <anchor x="577.7368421052632" y="713.0" name="top"/>
  <outline>
    <contour>
      <point x="-8.631578947368421" y="0.0" type="curve"/>
      <point x="151.42105263157896" y="0.0" type="line"/>
      <point x="180.5263157894737" y="104.05263157894737"/>
      <point x="208.68421052631578" y="203.10526315789474"/>
      <point x="232.4736842105263" y="288.10526315789474" type="curve"/>
      <point x="292.4210526315789" y="469.2631578947369" type="line"/>
      <point x="302.2631578947368" y="469.2631578947369" type="line"/>
      <point x="337.15789473684214" y="273.4736842105263" type="line"/>
      <point x="348.99999999999994" y="182.2105263157895"/>
      <point x="361.7368421052632" y="80.26315789473684"/>
      <point x="371.6842105263157" y="0.0" type="curve"/>
      <point x="490.0526315789474" y="0.0" type="line"/>
      <point x="534.3157894736843" y="82.10526315789474"/>
      <point x="586.684210526316" y="180.2105263157895"/>
      <point x="637.6842105263157" y="274.42105263157896" type="curve"/>
      <point x="748.2631578947369" y="469.2631578947369" type="line"/>
      <point x="758.1052631578948" y="469.2631578947369" type="line"/>
      <point x="741.8947368421052" y="288.10526315789474" type="line"/>
      <point x="729.3684210526316" y="202.68421052631578"/>
      <point x="715.8421052631579" y="106.47368421052632"/>
      <point x="700.8421052631579" y="0.0" type="curve"/>
      <point x="864.6315789473684" y="0.0" type="line"/>
      <point x="867.9473684210526" y="76.78947368421052"/>
      <point x="870.7894736842105" y="146.73684210526315"/>
      <point x="874.1052631578947" y="233.26315789473685" type="curve"/>
      <point x="894.5263157894738" y="472.4736842105263" type="line"/>
      <point x="905.6315789473683" y="559.421052631579"/>
      <point x="914.7368421052631" y="633.1052631578947"/>
      <point x="924.3157894736843" y="713.0" type="curve"/>
      <point x="754.8947368421053" y="713.0" type="line"/>
      <point x="706.1052631578948" y="623.3684210526317"/>
      <point x="663.7894736842106" y="545.3157894736842"/>
      <point x="619.0" y="463.2631578947369" type="curve"/>
      <point x="479.2105263157895" y="224.47368421052633" type="line"/>
      <point x="469.4210526315789" y="224.47368421052633" type="line"/>
      <point x="427.10526315789474" y="463.2631578947369" type="line"/>
      <point x="416.10526315789474" y="544.8421052631579"/>
      <point x="405.6315789473683" y="624.9473684210527"/>
      <point x="394.1578947368421" y="713.0" type="curve"/>
      <point x="229.9473684210526" y="713.0" type="line"/>
      <point x="206.57894736842104" y="633.1052631578947"/>
      <point x="184.6315789473684" y="558.0"/>
      <point x="159.73684210526315" y="472.4736842105263" type="curve"/>
      <point x="80.15789473684211" y="233.26315789473685" type="line"/>
      <point x="47.52631578947369" y="147.3157894736842"/>
      <point x="19.894736842105267" y="75.73684210526316"/>
    </contour>
  </outline>
</glyph>
<glyph name="N" format="2">
  <advance width="758.3684210526316"/>
  <unicode hex="004E"/>
  <anchor x="326.4736842105263" y="0.0" name="bottom"/>
  <anchor x="476.4736842105263" y="713.0" name="top"/>
  <outline>
    <contour>
      <point x="15.473684210526324" y="0.0" type="curve"/>
      <point x="173.52631578947367" y="0.0" type="line"/>
      <point x="185.8421052631579" y="76.26315789473684"/>
      <point x="196.21052631578948" y="141.6842105263158"/>
      <point x="211.05263157894737" y="233.26315789473685" type="curve"/>
      <point x="263.7368421052632" y="483.63157894736844" type="line"/>
      <point x="274.0526315789474" y="483.63157894736844" type="line"/>
      <point x="362.4736842105263" y="294.7368421052632" type="line"/>
      <point x="410.5263157894736" y="182.42105263157896"/>
      <point x="449.84210526315786" y="89.6842105263158"/>
      <point x="486.84210526315786" y="0.0" type="curve"/>
      <point x="636.4210526315788" y="0.0" type="line"/>
      <point x="648.7368421052631" y="76.26315789473684"/>
      <point x="659.1052631578947" y="141.6842105263158"/>
      <point x="673.9473684210526" y="233.26315789473685" type="curve"/>
      <point x="725.0" y="473.52631578947364" type="line"/>
      <point x="749.2105263157895" y="567.7368421052632"/>
      <point x="766.3157894736842" y="634.1052631578947"/>
      <point x="786.421052631579" y="713.0" type="curve"/>
      <point x="628.3684210526317" y="713.0" type="line"/>
      <point x="615.5263157894736" y="635.0526315789473"/>
      <point x="604.6842105263157" y="567.7894736842105"/>
      <point x="589.3157894736843" y="473.52631578947364" type="curve"/>
      <point x="537.6842105263158" y="231.26315789473682" type="line"/>
      <point x="526.8421052631579" y="231.26315789473682" type="line"/>
      <point x="440.4736842105263" y="418.6842105263158" type="line"/>
      <point x="402.7368421052632" y="509.842105263158"/>
      <point x="363.4736842105263" y="605.1052631578947"/>
      <point x="319.7368421052632" y="713.0" type="curve"/>
      <point x="165.47368421052633" y="713.0" type="line"/>
      <point x="152.63157894736844" y="635.0526315789473"/>
      <point x="141.78947368421052" y="567.7894736842105"/>
      <point x="126.42105263157896" y="473.52631578947364" type="curve"/>
      <point x="75.36842105263159" y="233.26315789473685" type="line"/>
      <point x="52.15789473684212" y="143.63157894736844"/>
      <point x="35.57894736842106" y="78.26315789473684"/>
    </contour>
  </outline>
</glyph>
<glyph name="O" format="2">
  <advance width="814.7894736842105"/>
  <unicode hex="004F"/>
  <anchor x="355.3684210526316" y="0.0" name="bottom"/>
  <anchor x="430.3684210526316" y="357.0" name="center"/>
  <anchor x="492.421052631579" y="0.0" name="ogonek"/>
  <anchor x="505.3684210526316" y="713.0" name="top"/>
  <anchor x="123.36842105263158" y="713.0" name="topleft"/>
  <anchor x="792.0526315789473" y="713.0" name="topright"/>
  <outline>
    <contour>
      <point x="401.42105263157896" y="-12.68421052631579" type="curve" smooth="yes"/>
      <point x="607.8421052631579" y="-12.68421052631579"/>
      <point x="747.1578947368421" y="119.94736842105263"/>
      <point x="788.2105263157895" y="312.15789473684214" type="curve" smooth="yes"/>
      <point x="835.7368421052631" y="533.7368421052631"/>
      <point x="712.3157894736843" y="727.1052631578947"/>
      <point x="462.1578947368421" y="727.1052631578947" type="curve" smooth="yes"/>
      <point x="253.8421052631579" y="727.1052631578947"/>
      <point x="113.57894736842105" y="600.1578947368421"/>
      <point x="70.63157894736842" y="398.2631578947369" type="curve" smooth="yes"/>
      <point x="24.63157894736842" y="180.73684210526315"/>
      <point x="144.10526315789474" y="-12.68421052631579"/>
    </contour>
    <contour>
      <point x="403.52631578947364" y="107.1578947368421" type="curve"/>
      <point x="263.84210526315786" y="115.36842105263158"/>
      <point x="184.42105263157896" y="227.0"/>
      <point x="216.84210526315792" y="379.63157894736844" type="curve" smooth="yes"/>
      <point x="245.84210526315792" y="513.3684210526314"/>
      <point x="328.7368421052631" y="600.1052631578948"/>
      <point x="460.57894736842104" y="607.2631578947369" type="curve"/>
      <point x="602.0" y="599.0526315789475"/>
      <point x="673.3157894736842" y="480.57894736842104"/>
      <point x="640.9473684210526" y="328.63157894736844" type="curve" smooth="yes"/>
      <point x="614.2631578947368" y="199.78947368421052"/>
      <point x="531.3684210526317" y="113.26315789473684"/>
    </contour>
  </outline>
</glyph>
<glyph name="P" format="2">
  <advance width="645.6699029126214"/>
  <unicode hex="0050"/>
  <outline>
    <contour>
      <point x="371.17475728155347" y="257.18446601941747" type="curve"/>
      <point x="558.9029126213592" y="257.18446601941747"/>
      <point x="631.1747572815534" y="332.68932038834953"/>
      <point x="659.6796116504854" y="471.70873786407765" type="curve" smooth="yes"/>
      <point x="692.8155339805826" y="631.6310679611652"/>
      <point x="612.9223300970875" y="717.378640776699"/>
      <point x="442.7766990291263" y="717.378640776699" type="curve"/>
      <point x="322.62135922330106" y="715.2524271844659"/>
      <point x="233.3398058252427" y="714.126213592233"/>
      <point x="165.6990291262136" y="713.0" type="curve"/>
      <point x="282.5728155339806" y="597.9029126213592" type="line"/>
      <point x="414.49514563106806" y="597.9029126213592" type="line" smooth="yes"/>
      <point x="472.8349514563107" y="597.9029126213592"/>
      <point x="533.5242718446602" y="570.5242718446602"/>
      <point x="513.9126213592232" y="478.08737864077676" type="curve" smooth="yes"/>
      <point x="496.92233009708747" y="398.6310679611651"/>
      <point x="457.0776699029127" y="372.7669902912621"/>
      <point x="361.15533980582524" y="372.7669902912621" type="curve" smooth="yes"/>
      <point x="229.8349514563107" y="372.7669902912621" type="line"/>
      <point x="206.06796116504856" y="259.31067961165047" type="line"/>
      <point x="245.94174757281556" y="259.18446601941747"/>
      <point x="321.3009708737865" y="258.18446601941747"/>
    </contour>
    <contour>
      <point x="15.699029126213597" y="0.0" type="curve"/>
      <point x="180.23300970873785" y="0.0" type="line"/>
      <point x="193.72815533980585" y="77.49514563106796"/>
      <point x="203.3495145631068" y="144.11650485436888"/>
      <point x="217.9708737864078" y="233.36893203883494" type="curve"/>
      <point x="264.46601941747576" y="452.3495145631068" type="line"/>
      <point x="287.9708737864079" y="543.8543689320388"/>
      <point x="306.3495145631069" y="611.7281553398059"/>
      <point x="326.6019417475729" y="690.4757281553398" type="curve"/>
      <point x="165.6990291262136" y="713.0" type="line"/>
      <point x="152.2038834951456" y="635.1262135922331"/>
      <point x="141.58252427184465" y="567.7572815533981"/>
      <point x="126.83495145631068" y="473.126213592233" type="curve"/>
      <point x="75.70873786407766" y="233.36893203883494" type="line"/>
      <point x="52.20388349514563" y="143.99029126213594"/>
      <point x="35.9514563106796" y="78.36893203883494"/>
    </contour>
  </outline>
</glyph>
<glyph name="R" format="2">
  <advance width="690.4174757281553"/>
  <unicode hex="0052"/>
  <anchor x="293.14563106796123" y="0.0" name="bottom"/>
  <anchor x="439.990291262136" y="713.0" name="top"/>
  <outline>
    <contour>
      <point x="442.6504854368932" y="0.0" type="curve"/>
      <point x="625.4466019417474" y="0.0" type="line"/>
      <point x="594.5825242718446" y="55.87378640776699"/>
      <point x="547.9708737864077" y="140.50485436893203"/>
      <point x="511.2330097087379" y="206.63106796116503" type="curve"/>
      <point x="439.3883495145632" y="349.1359223300971" type="line"/>
      <point x="376.6893203883496" y="293.3592233009709" type="line"/>
      <point x="558.2912621359222" y="292.4854368932039"/>
      <point x="632.4368932038835" y="361.0873786407767"/>
      <point x="658.6893203883495" y="485.9708737864078" type="curve" smooth="yes"/>
      <point x="689.5728155339806" y="631.8834951456311"/>
      <point x="607.3009708737865" y="717.378640776699"/>
      <point x="436.0291262135923" y="717.378640776699" type="curve"/>
      <point x="334.52427184466023" y="716.252427184466"/>
      <point x="238.97087378640774" y="714.126213592233"/>
      <point x="165.69902912621356" y="713.0" type="curve"/>
      <point x="251.15533980582524" y="598.0291262135922" type="line"/>
      <point x="408.747572815534" y="598.0291262135922" type="line" smooth="yes"/>
      <point x="467.21359223300976" y="598.0291262135922"/>
      <point x="527.0291262135923" y="574.5242718446603"/>
      <point x="508.4174757281554" y="486.2135922330097" type="curve" smooth="yes"/>
      <point x="489.5533980582525" y="398.5145631067962"/>
      <point x="445.20388349514565" y="376.15533980582524"/>
      <point x="354.0388349514564" y="376.15533980582524" type="curve" smooth="yes"/>
      <point x="221.20388349514565" y="376.15533980582524" type="line"/>
      <point x="198.06796116504856" y="265.8543689320388" type="line"/>
      <point x="369.82524271844665" y="265.8543689320388" type="line"/>
      <point x="297.25242718446606" y="340.1359223300971" type="line"/>
      <point x="379.21359223300976" y="159.3495145631068" type="line"/>
      <point x="399.06796116504853" y="109.6116504854369"/>
      <point x="419.92233009708735" y="58.62135922330097"/>
    </contour>
    <contour>
      <point x="15.699029126213597" y="0.0" type="curve"/>
      <point x="181.10679611650482" y="0.0" type="line"/>
      <point x="193.7281553398058" y="77.49514563106796"/>
      <point x="203.34951456310682" y="142.3689320388349"/>
      <point x="217.97087378640776" y="233.36893203883494" type="curve"/>
      <point x="264.46601941747576" y="452.3495145631068" type="line"/>
      <point x="287.9708737864078" y="543.8543689320388"/>
      <point x="306.3495145631069" y="611.7281553398059"/>
      <point x="326.6019417475728" y="690.4757281553398" type="curve"/>
      <point x="165.6990291262136" y="713.0" type="line"/>
      <point x="152.2038834951456" y="635.1262135922331"/>
      <point x="141.58252427184465" y="567.7572815533981"/>
      <point x="126.83495145631068" y="473.126213592233" type="curve"/>
      <point x="75.70873786407766" y="233.36893203883494" type="line"/>
      <point x="52.20388349514563" y="143.99029126213594"/>
      <point x="35.9514563106796" y="78.36893203883494"/>
    </contour>
  </outline>
</glyph>
<glyph name="T" format="2">
  <advance width="644.3684210526316"/>
  <unicode hex="0054"/>
  <anchor x="271.1578947368421" y="0.0" name="bottom"/>
  <anchor x="339.3157894736842" y="326.4736842105263" name="center"/>
  <anchor x="421.1578947368421" y="713.0" name="top"/>
  <outline>
    <contour>
      <point x="187.3684210526316" y="0.0" type="curve"/>
      <point x="353.8421052631579" y="0.0" type="line"/>
      <point x="366.1578947368421" y="76.26315789473684"/>
      <point x="376.52631578947364" y="141.6842105263158"/>
      <point x="391.36842105263156" y="233.26315789473685" type="curve"/>
      <point x="438.2105263157895" y="452.0" type="line"/>
      <point x="458.2105263157894" y="544.6315789473684"/>
      <point x="476.36842105263156" y="611.6315789473684"/>
      <point x="500.1578947368421" y="690.5263157894736" type="curve"/>
      <point x="504.3684210526316" y="713.0" type="line"/>
      <point x="337.89473684210526" y="713.0" type="line"/>
      <point x="333.2105263157894" y="690.5263157894736" type="line"/>
      <point x="324.05263157894734" y="611.6315789473684"/>
      <point x="313.1578947368421" y="544.1578947368421"/>
      <point x="294.10526315789474" y="452.0" type="curve"/>
      <point x="247.26315789473685" y="233.26315789473685" type="line"/>
      <point x="224.05263157894737" y="143.63157894736844"/>
      <point x="207.4736842105263" y="78.26315789473684"/>
    </contour>
    <contour>
      <point x="95.94736842105263" y="571.6842105263157" type="line"/>
      <point x="150.21052631578948" y="575.8421052631579"/>
      <point x="209.05263157894737" y="581.0"/>
      <point x="285.63157894736844" y="586.7368421052631" type="curve"/>
      <point x="346.3157894736842" y="586.7368421052631" type="line"/>
      <point x="372.7894736842105" y="713.0" type="line"/>
      <point x="125.57894736842105" y="713.0" type="line"/>
    </contour>
    <contour>
      <point x="442.05263157894734" y="586.7368421052631" type="line"/>
      <point x="502.7368421052631" y="586.7368421052631" type="line"/>
      <point x="579.8421052631579" y="580.4736842105264"/>
      <point x="635.0000000000001" y="575.8421052631578"/>
      <point x="686.1052631578948" y="571.6842105263157" type="curve"/>
      <point x="715.7368421052632" y="713.0" type="line"/>
      <point x="468.52631578947364" y="713.0" type="line"/>
    </contour>
  </outline>
</glyph>
<glyph name="U" format="2">
  <advance width="728.8421052631579"/>
  <unicode hex="0055"/>
  <anchor x="312.89473684210526" y="0.0" name="bottom"/>
  <anchor x="440.6842105263158" y="0.0" name="ogonek"/>
  <anchor x="462.89473684210526" y="713.0" name="top"/>
  <anchor x="800.6842105263158" y="713.0" name="topright"/>
  <outline>
    <contour>
      <point x="330.9473684210526" y="-12.68421052631579" type="curve" smooth="yes"/>
      <point x="545.7368421052632" y="-12.68421052631579"/>
      <point x="629.8947368421052" y="96.36842105263158"/>
      <point x="662.0526315789473" y="245.4736842105263" type="curve" smooth="yes"/>
      <point x="670.9999999999999" y="287.68421052631584"/>
      <point x="688.8947368421052" y="384.84210526315786"/>
      <point x="707.3157894736842" y="473.52631578947364" type="curve"/>
      <point x="731.5263157894736" y="567.7368421052632"/>
      <point x="748.6315789473683" y="634.1052631578947"/>
      <point x="768.7368421052631" y="713.0" type="curve"/>
      <point x="601.7368421052632" y="713.0" type="line"/>
      <point x="588.8947368421052" y="635.0526315789473"/>
      <point x="578.0526315789473" y="567.7894736842105"/>
      <point x="562.6842105263158" y="473.52631578947364" type="curve"/>
      <point x="518.9473684210526" y="268.57894736842104" type="line" smooth="yes"/>
      <point x="498.3157894736842" y="172.31578947368425"/>
      <point x="453.15789473684214" y="110.26315789473684"/>
      <point x="341.42105263157896" y="107.1578947368421" type="curve"/>
      <point x="230.36842105263153" y="110.26315789473684"/>
      <point x="200.15789473684205" y="189.42105263157896"/>
      <point x="222.73684210526312" y="295.89473684210526" type="curve" smooth="yes"/>
      <point x="260.6315789473684" y="473.52631578947364" type="line"/>
      <point x="284.84210526315786" y="567.7368421052632"/>
      <point x="301.9473684210526" y="634.1052631578947"/>
      <point x="322.05263157894734" y="713.0" type="curve"/>
      <point x="155.57894736842107" y="713.0" type="line"/>
      <point x="142.73684210526318" y="635.0526315789473"/>
      <point x="131.89473684210526" y="567.7894736842105"/>
      <point x="116.52631578947368" y="473.52631578947364" type="curve"/>
      <point x="101.57894736842105" y="404.36842105263156"/>
      <point x="83.52631578947368" y="337.0"/>
      <point x="76.05263157894737" y="301.1578947368421" type="curve" smooth="yes"/>
      <point x="38.89473684210526" y="127.89473684210526"/>
      <point x="114.26315789473684" y="-12.68421052631579"/>
    </contour>
  </outline>
</glyph>
<glyph name="V" format="2">
  <advance width="705.8947368421052"/>
  <unicode hex="0056"/>
  <anchor x="301.42105263157896" y="0.0" name="bottom"/>
  <anchor x="451.42105263157896" y="713.0" name="top"/>
  <outline>
    <contour>
      <point x="194.26315789473685" y="0.0" type="curve"/>
      <point x="408.7894736842105" y="0.0" type="line"/>
      <point x="443.4210526315789" y="70.42105263157895"/>
      <point x="486.4736842105263" y="158.31578947368422"/>
      <point x="519.7368421052631" y="226.4736842105263" type="curve"/>
      <point x="639.0526315789474" y="450.0" type="line"/>
      <point x="684.4736842105264" y="527.0"/>
      <point x="742.3684210526316" y="625.4736842105262"/>
      <point x="793.7894736842106" y="713.0" type="curve"/>
      <point x="601.8947368421053" y="713.0" type="line"/>
      <point x="559.0526315789475" y="618.421052631579"/>
      <point x="510.421052631579" y="511.0"/>
      <point x="467.57894736842104" y="415.89473684210526" type="curve"/>
      <point x="334.52631578947364" y="147.05263157894734" type="line"/>
      <point x="323.26315789473676" y="147.05263157894734" type="line"/>
      <point x="300.05263157894734" y="414.42105263157896" type="line"/>
      <point x="294.2631578947368" y="508.4736842105263"/>
      <point x="287.0526315789474" y="618.421052631579"/>
      <point x="281.2631578947369" y="713.0" type="curve"/>
      <point x="108.05263157894737" y="713.0" type="line"/>
      <point x="122.94736842105266" y="626.9999999999999"/>
      <point x="140.31578947368422" y="525.578947368421"/>
      <point x="153.21052631578948" y="449.5263157894737" type="curve"/>
      <point x="178.42105263157896" y="226.47368421052633" type="line"/>
      <point x="183.57894736842107" y="158.47368421052633"/>
      <point x="189.63157894736844" y="72.05263157894737"/>
    </contour>
  </outline>
</glyph>
<glyph name="W" format="2">
  <advance width="1036.8947368421054"/>
  <unicode hex="0057"/>
  <anchor x="463.84210526315786" y="0.0" name="bottom"/>
  <anchor x="613.8421052631579" y="713.0" name="top"/>
  <outline>
    <contour>
      <point x="154.47368421052633" y="0.0" type="curve"/>
      <point x="345.57894736842104" y="0.0" type="line"/>
      <point x="379.57894736842104" y="83.6842105263158"/>
      <point x="419.8947368421053" y="184.57894736842107"/>
      <point x="453.36842105263156" y="266.1578947368421" type="curve"/>
      <point x="560.7894736842104" y="506.7368421052632" type="line"/>
      <point x="572.0526315789473" y="506.7368421052632" type="line"/>
      <point x="580.6315789473684" y="266.1578947368421" type="line"/>
      <point x="580.7368421052631" y="182.47368421052633"/>
      <point x="581.263157894737" y="83.6842105263158"/>
      <point x="581.8421052631579" y="0.0" type="curve"/>
      <point x="779.736842105263" y="0.0" type="line"/>
      <point x="809.5789473684209" y="67.0"/>
      <point x="847.3684210526316" y="152.47368421052633"/>
      <point x="879.6842105263158" y="225.47368421052633" type="curve"/>
      <point x="987.8421052631579" y="450.0" type="line"/>
      <point x="1029.2631578947369" y="527.3684210526316"/>
      <point x="1081.8421052631577" y="627.0"/>
      <point x="1127.8421052631577" y="713.0" type="curve"/>
      <point x="938.5789473684212" y="713.0" type="line"/>
      <point x="902.6315789473684" y="623.6315789473683"/>
      <point x="860.8947368421052" y="518.0526315789474"/>
      <point x="824.8947368421052" y="428.0526315789474" type="curve"/>
      <point x="714.0526315789474" y="171.21052631578948" type="line"/>
      <point x="702.7894736842105" y="171.21052631578948" type="line"/>
      <point x="697.3684210526316" y="427.0" type="line"/>
      <point x="697.8421052631579" y="518.8421052631578"/>
      <point x="698.8947368421053" y="622.1578947368421"/>
      <point x="699.3684210526316" y="713.0" type="curve"/>
      <point x="525.9473684210527" y="713.0" type="line"/>
      <point x="489.3684210526316" y="623.0526315789474"/>
      <point x="446.0" y="515.9473684210526"/>
      <point x="410.89473684210526" y="428.5263157894737" type="curve"/>
      <point x="299.3157894736842" y="171.21052631578948" type="line"/>
      <point x="288.05263157894734" y="171.21052631578948" type="line"/>
      <point x="284.36842105263156" y="423.68421052631584" type="line"/>
      <point x="285.9473684210526" y="515.0526315789474"/>
      <point x="288.10526315789474" y="622.1578947368421"/>
      <point x="289.6842105263157" y="713.0" type="curve"/>
      <point x="106.0" y="713.0" type="line"/>
      <point x="115.52631578947368" y="628.4736842105264"/>
      <point x="128.0526315789474" y="527.0526315789474"/>
      <point x="137.05263157894737" y="447.6315789473684" type="curve"/>
      <point x="150.1578947368421" y="225.0" type="line"/>
      <point x="151.94736842105266" y="154.0"/>
      <point x="153.6842105263158" y="71.52631578947368"/>
    </contour>
  </outline>
</glyph>
<glyph name="X" format="2">
  <advance width="711.1052631578947"/>
  <unicode hex="0058"/>
  <outline>
    <contour>
      <point x="-32.63157894736842" y="0.0" type="curve"/>
      <point x="165.73684210526315" y="0.0" type="line"/>
      <point x="201.99999999999997" y="53.73684210526316"/>
      <point x="233.57894736842104" y="102.36842105263159"/>
      <point x="267.42105263157896" y="152.10526315789474" type="curve"/>
      <point x="352.15789473684214" y="267.63157894736844" type="line"/>
      <point x="363.42105263157896" y="267.63157894736844" type="line"/>
      <point x="406.2105263157895" y="152.57894736842104" type="line"/>
      <point x="421.42105263157896" y="106.73684210526316"/>
      <point x="437.10526315789474" y="56.31578947368421"/>
      <point x="454.15789473684214" y="0.0" type="curve"/>
      <point x="640.2631578947369" y="0.0" type="line"/>
      <point x="603.5263157894738" y="76.0"/>
      <point x="570.2631578947369" y="143.52631578947364"/>
      <point x="533.5263157894736" y="219.52631578947367" type="curve"/>
      <point x="469.42105263157896" y="375.57894736842104" type="line"/>
      <point x="461.21052631578954" y="335.94736842105266" type="line"/>
      <point x="591.4736842105262" y="503.94736842105266" type="line"/>
      <point x="641.3157894736842" y="562.0"/>
      <point x="702.1578947368421" y="633.1578947368422"/>
      <point x="770.1578947368422" y="713.0" type="curve"/>
      <point x="570.7894736842105" y="713.0" type="line"/>
      <point x="532.8947368421052" y="655.5263157894736"/>
      <point x="494.63157894736844" y="597.6842105263157"/>
      <point x="460.6842105263158" y="548.2631578947369" type="curve"/>
      <point x="389.5263157894737" y="450.8421052631579" type="line"/>
      <point x="378.2631578947369" y="450.8421052631579" type="line"/>
      <point x="344.05263157894734" y="547.3157894736842" type="line"/>
      <point x="329.31578947368416" y="595.6842105263158"/>
      <point x="313.2105263157895" y="653.5789473684212"/>
      <point x="296.57894736842104" y="713.0" type="curve"/>
      <point x="116.26315789473685" y="713.0" type="line"/>
      <point x="153.4736842105263" y="630.8947368421052"/>
      <point x="182.73684210526318" y="563.8947368421052"/>
      <point x="213.0" y="496.8421052631579" type="curve"/>
      <point x="269.63157894736844" y="349.7368421052632" type="line"/>
      <point x="277.89473684210526" y="386.7368421052631" type="line"/>
      <point x="140.31578947368422" y="207.42105263157893" type="line"/>
      <point x="79.05263157894737" y="134.3157894736842"/>
      <point x="24.789473684210527" y="69.26315789473685"/>
    </contour>
  </outline>
</glyph>
<glyph name="Y" format="2">
  <advance width="673.2105263157895"/>
  <unicode hex="0059"/>
  <anchor x="286.1578947368421" y="0.0" name="bottom"/>
  <anchor x="437.2105263157894" y="713.0" name="top"/>
  <anchor x="117.47368421052632" y="713.0" name="topleft"/>
  <outline>
    <contour>
      <point x="279.42105263157896" y="258.94736842105266" type="line"/>
      <point x="406.7894736842105" y="258.94736842105266" type="line"/>
      <point x="615.9473684210527" y="534.6842105263158" type="line"/>
      <point x="662.4736842105265" y="590.3684210526317"/>
      <point x="711.5263157894736" y="649.578947368421"/>
      <point x="763.7368421052631" y="713.0" type="curve"/>
      <point x="565.7894736842105" y="713.0" type="line"/>
      <point x="514.0526315789475" y="628.4736842105262"/>
      <point x="487.0" y="585.5263157894735"/>
      <point x="443.9473684210526" y="515.3157894736842" type="curve"/>
      <point x="372.4210526315789" y="410.0526315789474" type="line"/>
      <point x="361.6842105263158" y="410.0526315789474" type="line"/>
      <point x="331.05263157894734" y="518.2105263157895" type="line"/>
      <point x="316.0" y="585.0000000000001"/>
      <point x="306.63157894736844" y="627.4736842105264"/>
      <point x="287.36842105263156" y="713.0" type="curve"/>
      <point x="107.42105263157895" y="713.0" type="line"/>
      <point x="138.0" y="642.1578947368422"/>
      <point x="159.57894736842104" y="592.421052631579"/>
      <point x="184.6315789473684" y="534.6842105263158" type="curve"/>
    </contour>
    <contour>
      <point x="203.42105263157896" y="0.0" type="curve"/>
      <point x="370.9473684210526" y="0.0" type="line"/>
      <point x="383.2631578947369" y="76.26315789473684"/>
      <point x="393.6315789473683" y="141.6842105263158"/>
      <point x="408.4736842105263" y="233.26315789473685" type="curve"/>
      <point x="439.578947368421" y="380.2105263157895" type="line"/>
      <point x="294.42105263157896" y="380.2105263157895" type="line"/>
      <point x="263.3157894736842" y="233.26315789473685" type="line"/>
      <point x="240.10526315789477" y="143.63157894736844"/>
      <point x="223.52631578947373" y="78.26315789473684"/>
    </contour>
  </outline>
</glyph>
<glyph name="bracketleft" format="2">
  <advance width="397.63157894736844"/>
  <unicode hex="005B"/>
  <outline>
    <contour>
      <point x="-5.473684210526315" y="-121.47368421052632" type="curve"/>
      <point x="135.26315789473682" y="-121.47368421052632" type="line"/>
      <point x="139.4736842105263" y="-99.0" type="line"/>
      <point x="152.3157894736842" y="-21.684210526315788"/>
      <point x="162.6315789473684" y="45.63157894736842"/>
      <point x="176.99999999999997" y="134.73684210526315" type="curve"/>
      <point x="256.36842105263156" y="511.10526315789474" type="line"/>
      <point x="279.57894736842104" y="602.3157894736842"/>
      <point x="297.6842105263158" y="670.7368421052631"/>
      <point x="317.7894736842105" y="749.6315789473684" type="curve"/>
      <point x="323.0" y="772.1052631578947" type="line"/>
      <point x="182.26315789473685" y="772.1052631578947" type="line"/>
      <point x="168.36842105263162" y="692.1578947368421"/>
      <point x="156.5263157894737" y="626.3684210526316"/>
      <point x="141.63157894736844" y="533.578947368421" type="curve"/>
      <point x="52.8421052631579" y="111.78947368421052" type="line"/>
      <point x="30.210526315789476" y="22.68421052631579"/>
      <point x="13.578947368421057" y="-45.21052631578947"/>
    </contour>
    <contour>
      <point x="107.3157894736842" y="-121.47368421052632" type="line"/>
      <point x="299.0" y="-121.47368421052632" type="line"/>
      <point x="322.36842105263156" y="-8.894736842105269" type="line"/>
      <point x="275.47368421052636" y="-11.000000000000005"/>
      <point x="227.21052631578945" y="-13.578947368421058"/>
      <point x="169.26315789473688" y="-16.21052631578948" type="curve"/>
      <point x="129.10526315789474" y="-16.21052631578948" type="line"/>
    </contour>
    <contour>
      <point x="264.3157894736842" y="666.8421052631579" type="line"/>
      <point x="305.15789473684214" y="666.8421052631579" type="line"/>
      <point x="371.4736842105263" y="664.2105263157895"/>
      <point x="417.8421052631579" y="661.6315789473684"/>
      <point x="460.7368421052632" y="659.5263157894738" type="curve"/>
      <point x="484.57894736842104" y="772.1052631578947" type="line"/>
      <point x="286.63157894736844" y="772.1052631578947" type="line"/>
    </contour>
  </outline>
</glyph>
<glyph name="backslash" format="2">
  <advance width="462.7368421052631"/>
  <unicode hex="005C"/>
  <outline>
    <contour>
      <point x="257.7368421052632" y="0.0" type="curve"/>
      <point x="398.0" y="0.0" type="line"/>
      <point x="379.0" y="75.10526315789474"/>
      <point x="362.99999999999994" y="137.57894736842104"/>
      <point x="340.05263157894734" y="228.0" type="curve"/>
      <point x="290.1052631578946" y="475.5263157894737" type="line"/>
      <point x="275.0" y="570.4736842105265"/>
      <point x="264.7894736842105" y="636.4210526315791"/>
      <point x="252.57894736842104" y="713.0" type="curve"/>
      <point x="113.36842105263158" y="713.0" type="line"/>
      <point x="132.8421052631579" y="633.421052631579"/>
      <point x="148.78947368421055" y="567.9999999999999"/>
      <point x="171.73684210526318" y="474.4736842105263" type="curve"/>
      <point x="221.15789473684214" y="228.0" type="line"/>
      <point x="235.78947368421058" y="136.0"/>
      <point x="246.05263157894737" y="74.0"/>
    </contour>
  </outline>
</glyph>
<glyph name="asciicircum" format="2">
  <advance width="625.7894736842105"/>
  <unicode hex="005E"/>
  <outline>
    <contour>
      <point x="490.6315789473684" y="365.0526315789474" type="curve"/>
      <point x="599.8421052631579" y="366.57894736842104" type="line"/>
      <point x="560.7894736842104" y="473.5789473684211"/>
      <point x="522.2105263157894" y="580.1578947368422"/>
      <point x="483.1578947368421" y="687.1578947368421" type="curve"/>
      <point x="303.2631578947368" y="687.1578947368421" type="line"/>
      <point x="227.78947368421055" y="581.1578947368421"/>
      <point x="151.78947368421052" y="474.5789473684211"/>
      <point x="76.31578947368422" y="368.57894736842104" type="curve"/>
      <point x="199.94736842105266" y="368.57894736842104" type="line"/>
      <point x="259.47368421052636" y="438.2631578947369"/>
      <point x="317.36842105263156" y="505.7894736842105"/>
      <point x="376.89473684210526" y="575.4736842105264" type="curve"/>
      <point x="387.63157894736844" y="575.4736842105264" type="line"/>
      <point x="421.6315789473684" y="505.8421052631579"/>
      <point x="456.63157894736844" y="434.6842105263158"/>
    </contour>
  </outline>
</glyph>
<glyph name="underscore" format="2">
  <advance width="422.1052631578947"/>
  <unicode hex="005F"/>
  <outline>
    <contour>
      <point x="-95.73684210526316" y="-156.31578947368422" type="line"/>
      <point x="-28.789473684210527" y="-154.26315789473685"/>
      <point x="43.94736842105263" y="-152.21052631578948"/>
      <point x="91.05263157894737" y="-151.1578947368421" type="curve"/>
      <point x="162.6315789473684" y="-151.1578947368421" type="line"/>
      <point x="208.6842105263158" y="-152.21052631578948"/>
      <point x="279.42105263157896" y="-154.26315789473685"/>
      <point x="346.36842105263156" y="-156.31578947368422" type="curve"/>
      <point x="371.2631578947369" y="-39.05263157894737" type="line"/>
      <point x="303.7894736842105" y="-41.10526315789474"/>
      <point x="231.05263157894737" y="-43.1578947368421"/>
      <point x="184.4736842105263" y="-44.21052631578947" type="curve"/>
      <point x="112.89473684210527" y="-44.21052631578947" type="line"/>
      <point x="66.3157894736842" y="-43.1578947368421"/>
      <point x="-4.421052631578949" y="-41.10526315789474"/>
      <point x="-70.84210526315789" y="-39.05263157894737" type="curve"/>
    </contour>
  </outline>
</glyph>
<glyph name="b" format="2">
  <advance width="594.2105263157895"/>
  <unicode hex="0062"/>
  <outline>
    <contour>
      <point x="318.42105263157896" y="-12.68421052631579" type="curve" smooth="yes"/>
      <point x="437.2631578947368" y="-12.68421052631579"/>
      <point x="519.8947368421052" y="83.89473684210526"/>
      <point x="549.8947368421052" y="226.31578947368422" type="curve" smooth="yes"/>
      <point x="581.4210526315788" y="377.36842105263156"/>
      <point x="529.9473684210526" y="511.36842105263156"/>
      <point x="389.05263157894734" y="511.36842105263156" type="curve" smooth="yes"/>
      <point x="353.94736842105254" y="511.36842105263156"/>
      <point x="294.42105263157896" y="477.421052631579"/>
      <point x="254.26315789473682" y="445.2105263157894" type="curve"/>
      <point x="243.0" y="445.2105263157894" type="line"/>
      <point x="252.84210526315792" y="493.4736842105263" type="line"/>
      <point x="277.10526315789474" y="584.2631578947369"/>
      <point x="298.7894736842105" y="666.9473684210526"/>
      <point x="320.8947368421053" y="746.3157894736842" type="curve"/>
      <point x="151.00000000000003" y="730.578947368421" type="line"/>
      <point x="142.26315789473685" y="652.7894736842105"/>
      <point x="132.5263157894737" y="575.3157894736842"/>
      <point x="121.78947368421053" y="493.4736842105263" type="curve"/>
      <point x="63.26315789473684" y="216.78947368421052" type="line"/>
      <point x="41.10526315789474" y="134.21052631578948"/>
      <point x="25.52631578947369" y="71.84210526315789"/>
      <point x="6.421052631578952" y="0.0" type="curve"/>
      <point x="120.15789473684212" y="0.0" type="line"/>
      <point x="150.63157894736844" y="69.31578947368422" type="line"/>
      <point x="160.31578947368422" y="69.31578947368422" type="line"/>
      <point x="210.36842105263162" y="23.368421052631582"/>
      <point x="273.3157894736843" y="-12.68421052631579"/>
    </contour>
    <contour>
      <point x="282.10526315789474" y="101.42105263157895" type="curve"/>
      <point x="252.89473684210526" y="103.94736842105263"/>
      <point x="209.15789473684208" y="126.57894736842104"/>
      <point x="182.26315789473685" y="158.26315789473685" type="curve"/>
      <point x="220.94736842105266" y="341.0" type="line"/>
      <point x="252.7894736842106" y="372.578947368421"/>
      <point x="302.36842105263156" y="396.2631578947369"/>
      <point x="325.9473684210526" y="398.8421052631579" type="curve"/>
      <point x="406.2105263157895" y="395.8421052631579"/>
      <point x="434.7894736842105" y="320.5263157894737"/>
      <point x="417.31578947368416" y="236.6315789473684" type="curve" smooth="yes"/>
      <point x="401.2105263157894" y="159.5263157894737"/>
      <point x="357.31578947368416" y="104.94736842105263"/>
    </contour>
  </outline>
</glyph>
<glyph name="c" format="2">
  <advance width="487.2631578947368"/>
  <unicode hex="0063"/>
  <anchor x="229.05263157894737" y="0.0" name="bottom"/>
  <anchor x="329.8421052631579" y="498.2105263157895" name="top"/>
  <outline>
    <contour>
      <point x="283.8421052631579" y="-11.105263157894738" type="curve" smooth="yes"/>
      <point x="315.1052631578947" y="-11.105263157894738"/>
      <point x="374.9473684210526" y="4.631578947368421"/>
      <point x="401.9473684210526" y="14.052631578947368" type="curve"/>
      <point x="418.2631578947369" y="131.4736842105263" type="line"/>
      <point x="384.94736842105266" y="116.68421052631578"/>
      <point x="326.6315789473684" y="98.73684210526315"/>
      <point x="308.05263157894734" y="98.26315789473684" type="curve" smooth="yes"/>
      <point x="210.52631578947367" y="100.26315789473684"/>
      <point x="152.89473684210526" y="160.73684210526315"/>
      <point x="175.94736842105263" y="266.47368421052636" type="curve" smooth="yes"/>
      <point x="195.0" y="351.68421052631584"/>
      <point x="252.84210526315792" y="393.8421052631579"/>
      <point x="327.4736842105263" y="398.8421052631579" type="curve"/>
      <point x="341.26315789473676" y="398.8421052631579"/>
      <point x="404.57894736842104" y="379.42105263157896"/>
      <point x="462.7894736842106" y="355.57894736842104" type="curve"/>
      <point x="495.89473684210526" y="470.63157894736844" type="line"/>
      <point x="443.7894736842105" y="487.7368421052632"/>
      <point x="357.7894736842105" y="510.8421052631579"/>
      <point x="327.42105263157896" y="510.8421052631579" type="curve" smooth="yes"/>
      <point x="175.31578947368422" y="510.8421052631579"/>
      <point x="72.94736842105263" y="417.42105263157896"/>
      <point x="43.89473684210527" y="278.78947368421046" type="curve" smooth="yes"/>
      <point x="7.736842105263161" y="105.21052631578948"/>
      <point x="105.99999999999999" y="-11.105263157894738"/>
    </contour>
  </outline>
</glyph>
<glyph name="d" format="2">
  <advance width="583.578947368421"/>
  <unicode hex="0064"/>
  <anchor x="261.89473684210526" y="0.0" name="bottom"/>
  <anchor x="292.6842105263158" y="249.10526315789474" name="center"/>
  <anchor x="414.94736842105266" y="728.2631578947369" name="top"/>
  <anchor x="614.3684210526316" y="498.2105263157895" name="topright"/>
  <outline>
    <contour>
      <point x="205.6842105263158" y="-12.68421052631579" type="curve" smooth="yes"/>
      <point x="245.42105263157902" y="-12.68421052631579"/>
      <point x="307.3684210526316" y="20.000000000000004"/>
      <point x="358.05263157894734" y="64.7894736842105" type="curve"/>
      <point x="367.7368421052631" y="64.7894736842105" type="line"/>
      <point x="359.7368421052632" y="0.0" type="line"/>
      <point x="481.3157894736841" y="0.0" type="line"/>
      <point x="493.157894736842" y="71.84210526315789"/>
      <point x="502.99999999999994" y="134.21052631578948"/>
      <point x="516.3684210526314" y="216.78947368421052" type="curve"/>
      <point x="574.8947368421052" y="493.4736842105263" type="line"/>
      <point x="599.157894736842" y="584.2631578947369"/>
      <point x="620.8421052631578" y="666.9473684210526"/>
      <point x="642.9473684210526" y="746.3157894736842" type="curve"/>
      <point x="473.0526315789474" y="730.578947368421" type="line"/>
      <point x="464.3157894736842" y="652.7894736842105"/>
      <point x="454.5789473684211" y="575.3157894736842"/>
      <point x="443.8421052631579" y="493.4736842105263" type="curve"/>
      <point x="433.52631578947376" y="442.36842105263156" type="line"/>
      <point x="422.2631578947369" y="442.36842105263156" type="line"/>
      <point x="380.2631578947368" y="478.4210526315789"/>
      <point x="318.68421052631584" y="511.36842105263156"/>
      <point x="276.3157894736842" y="511.36842105263156" type="curve" smooth="yes"/>
      <point x="157.4736842105263" y="511.36842105263156"/>
      <point x="74.84210526315789" y="414.7894736842105"/>
      <point x="44.84210526315789" y="272.3684210526316" type="curve" smooth="yes"/>
      <point x="13.315789473684207" y="121.31578947368422"/>
      <point x="64.78947368421052" y="-12.68421052631579"/>
    </contour>
    <contour>
      <point x="268.7894736842105" y="99.84210526315789" type="curve"/>
      <point x="188.52631578947367" y="102.36842105263158"/>
      <point x="159.47368421052633" y="178.63157894736844"/>
      <point x="177.42105263157896" y="262.05263157894734" type="curve" smooth="yes"/>
      <point x="194.00000000000003" y="340.10526315789474"/>
      <point x="237.42105263157896" y="393.7368421052632"/>
      <point x="312.6315789473684" y="397.2631578947369" type="curve"/>
      <point x="343.2631578947368" y="395.21052631578954"/>
      <point x="385.57894736842104" y="372.57894736842104"/>
      <point x="412.9473684210526" y="348.9473684210526" type="curve"/>
      <point x="375.21052631578954" y="168.10526315789474" type="line"/>
      <point x="346.2105263157894" y="131.7894736842105"/>
      <point x="302.3157894736842" y="102.89473684210526"/>
    </contour>
  </outline>
</glyph>
<glyph name="e" format="2">
  <advance width="526.873786407767"/>
  <unicode hex="0065"/>
  <anchor x="228.86407766990294" y="0.0" name="bottom"/>
  <anchor x="355.9320388349515" y="0.0" name="ogonek"/>
  <anchor x="328.74757281553394" y="498.504854368932" name="top"/>
  <outline>
    <contour>
      <point x="279.0097087378641" y="-12.504854368932039" type="curve" smooth="yes"/>
      <point x="317.51456310679606" y="-12.504854368932039"/>
      <point x="385.8932038834952" y="1.36893203883495"/>
      <point x="435.0194174757281" y="17.116504854368934" type="curve"/>
      <point x="452.6601941747573" y="133.08737864077665" type="line"/>
      <point x="388.78640776699035" y="110.46601941747574"/>
      <point x="328.29126213592224" y="96.59223300970874"/>
      <point x="306.54368932038835" y="96.59223300970874" type="curve" smooth="yes"/>
      <point x="205.20388349514562" y="96.59223300970874"/>
      <point x="147.33980582524273" y="150.41747572815535"/>
      <point x="168.20388349514565" y="253.74757281553397" type="curve"/>
      <point x="172.70873786407768" y="274.0194174757281" type="line"/>
      <point x="194.69902912621362" y="365.2233009708739"/>
      <point x="250.53398058252426" y="409.6990291262136"/>
      <point x="308.86407766990294" y="412.8252427184466" type="curve"/>
      <point x="369.0679611650486" y="409.6990291262136"/>
      <point x="395.4174757281553" y="359.8446601941748"/>
      <point x="380.92233009708735" y="296.378640776699" type="curve" smooth="yes"/>
      <point x="378.92233009708735" y="287.63106796116506"/>
      <point x="375.92233009708735" y="277.63106796116506"/>
      <point x="372.92233009708735" y="268.631067961165" type="curve"/>
      <point x="479.8932038834951" y="226.7378640776699" type="line"/>
      <point x="486.0194174757282" y="243.9902912621359"/>
      <point x="491.8932038834951" y="263.73786407766994"/>
      <point x="497.0194174757282" y="284.495145631068" type="curve" smooth="yes"/>
      <point x="530.2718446601941" y="418.2718446601942"/>
      <point x="459.2621359223301" y="511.00970873786406"/>
      <point x="306.48543689320394" y="511.00970873786406" type="curve" smooth="yes"/>
      <point x="169.46601941747574" y="511.00970873786406"/>
      <point x="71.97087378640776" y="416.50485436893206"/>
      <point x="42.09708737864077" y="272.252427184466" type="curve" smooth="yes"/>
      <point x="6.097087378640775" y="98.11650485436893"/>
      <point x="102.61165048543691" y="-12.504854368932039"/>
    </contour>
    <contour>
      <point x="83.3883495145631" y="226.7378640776699" type="line"/>
      <point x="479.8932038834951" y="226.7378640776699" type="line"/>
      <point x="491.65048543689323" y="284.0194174757282" type="line"/>
      <point x="416.45631067961165" y="313.49514563106794" type="line"/>
      <point x="95.14563106796116" y="307.8640776699029" type="line"/>
    </contour>
  </outline>
</glyph>
<glyph name="h" format="2">
  <advance width="583.7894736842106"/>
  <unicode hex="0068"/>
  <guideline x="128.31578947368422" y="737.3157894736842" angle="4.470799999999997"/>
  <anchor x="243.31578947368422" y="0.0" name="bottom"/>
  <anchor x="329.31578947368416" y="409.0" name="center"/>
  <anchor x="373.0526315789474" y="728.2631578947369" name="top"/>
  <outline>
    <contour>
      <point x="6.421052631578952" y="0.0" type="curve"/>
      <point x="158.78947368421052" y="0.0" type="line"/>
      <point x="170.63157894736847" y="71.84210526315789"/>
      <point x="179.94736842105263" y="134.21052631578948"/>
      <point x="192.73684210526318" y="209.94736842105263" type="curve"/>
      <point x="216.47368421052636" y="320.84210526315786" type="line"/>
      <point x="256.89473684210526" y="358.8947368421054"/>
      <point x="312.94736842105266" y="390.9473684210526"/>
      <point x="337.84210526315786" y="390.9473684210526" type="curve" smooth="yes"/>
      <point x="396.4210526315789" y="390.9473684210526"/>
      <point x="410.8421052631579" y="349.1578947368421"/>
      <point x="394.10526315789474" y="273.52631578947364" type="curve"/>
      <point x="381.42105263157896" y="209.94736842105263" type="line"/>
      <point x="361.89473684210526" y="134.21052631578948"/>
      <point x="346.3157894736843" y="71.84210526315789"/>
      <point x="327.7368421052632" y="0.0" type="curve"/>
      <point x="479.0526315789474" y="0.0" type="line"/>
      <point x="490.89473684210526" y="71.84210526315789"/>
      <point x="500.2105263157895" y="134.21052631578948"/>
      <point x="514.0526315789474" y="216.78947368421052" type="curve"/>
      <point x="522.0526315789474" y="255.31578947368425"/>
      <point x="532.7894736842106" y="290.84210526315786"/>
      <point x="538.7894736842106" y="318.89473684210526" type="curve" smooth="yes"/>
      <point x="564.2105263157896" y="436.6842105263157"/>
      <point x="517.6842105263158" y="511.36842105263156"/>
      <point x="409.84210526315786" y="511.36842105263156" type="curve" smooth="yes"/>
      <point x="366.1578947368421" y="511.36842105263156"/>
      <point x="297.42105263157896" y="467.1052631578947"/>
      <point x="250.3684210526316" y="427.5789473684211" type="curve"/>
      <point x="239.0526315789474" y="427.5789473684211" type="line"/>
      <point x="252.84210526315792" y="493.4736842105263" type="line"/>
      <point x="277.10526315789474" y="584.2631578947369"/>
      <point x="298.7894736842105" y="666.9473684210527"/>
      <point x="320.89473684210526" y="746.3157894736842" type="curve"/>
      <point x="151.00000000000003" y="730.578947368421" type="line"/>
      <point x="142.26315789473685" y="652.7894736842105"/>
      <point x="132.5263157894737" y="575.3157894736842"/>
      <point x="121.78947368421053" y="493.4736842105263" type="curve"/>
      <point x="63.26315789473684" y="216.78947368421052" type="line"/>
      <point x="41.10526315789474" y="134.21052631578948"/>
      <point x="25.52631578947369" y="71.84210526315789"/>
    </contour>
  </outline>
</glyph>
<glyph name="l" format="2">
  <advance width="271.6842105263158"/>
  <unicode hex="006C"/>
  <anchor x="82.84210526315789" y="0.0" name="bottom"/>
  <anchor x="172.47368421052633" y="409.0" name="center"/>
  <anchor x="232.63157894736844" y="728.2631578947369" name="top"/>
  <anchor x="289.6842105263158" y="498.2105263157895" name="topright"/>
  <outline>
    <contour>
      <point x="6.421052631578952" y="0.0" type="curve"/>
      <point x="158.78947368421052" y="0.0" type="line"/>
      <point x="170.63157894736847" y="71.84210526315789"/>
      <point x="180.94736842105266" y="134.21052631578948"/>
      <point x="194.31578947368422" y="216.78947368421052" type="curve"/>
      <point x="252.84210526315792" y="493.4736842105263" type="line"/>
      <point x="277.10526315789474" y="584.2631578947369"/>
      <point x="298.7894736842105" y="666.9473684210526"/>
      <point x="320.8947368421053" y="746.3157894736842" type="curve"/>
      <point x="151.00000000000003" y="730.578947368421" type="line"/>
      <point x="142.26315789473685" y="652.7894736842105"/>
      <point x="132.5263157894737" y="575.3157894736842"/>
      <point x="121.78947368421053" y="493.4736842105263" type="curve"/>
      <point x="63.26315789473684" y="216.78947368421052" type="line"/>
      <point x="41.10526315789474" y="134.21052631578948"/>
      <point x="25.52631578947369" y="71.84210526315789"/>
    </contour>
  </outline>
</glyph>
<glyph name="m" format="2">
  <advance width="884.3684210526316"/>
  <unicode hex="006D"/>
  <anchor x="396.89473684210526" y="0.0" name="bottom"/>
  <anchor x="501.94736842105266" y="498.2105263157895" name="top"/>
  <outline>
    <contour>
      <point x="11.368421052631584" y="0.0" type="curve"/>
      <point x="163.73684210526315" y="0.0" type="line"/>
      <point x="175.5789473684211" y="71.84210526315789"/>
      <point x="185.42105263157896" y="134.21052631578948"/>
      <point x="197.6842105263158" y="209.94736842105263" type="curve"/>
      <point x="221.421052631579" y="320.84210526315786" type="line"/>
      <point x="261.842105263158" y="358.89473684210526"/>
      <point x="314.4736842105263" y="390.9473684210526"/>
      <point x="338.89473684210526" y="390.9473684210526" type="curve" smooth="yes"/>
      <point x="390.7368421052632" y="390.9473684210526"/>
      <point x="405.15789473684214" y="349.1578947368421"/>
      <point x="388.42105263157896" y="273.52631578947364" type="curve"/>
      <point x="375.7368421052632" y="209.94736842105263" type="line"/>
      <point x="356.2105263157895" y="134.21052631578948"/>
      <point x="340.6315789473685" y="71.84210526315789"/>
      <point x="322.05263157894734" y="0.0" type="curve"/>
      <point x="473.3684210526316" y="0.0" type="line"/>
      <point x="485.2105263157895" y="71.84210526315789"/>
      <point x="494.5263157894737" y="134.21052631578948"/>
      <point x="508.3684210526316" y="216.78947368421052" type="curve"/>
      <point x="516.3684210526316" y="255.31578947368425"/>
      <point x="527.1052631578948" y="290.84210526315786"/>
      <point x="533.1052631578948" y="318.89473684210526" type="curve" smooth="yes"/>
      <point x="539.1578947368421" y="347.10526315789474"/>
      <point x="541.1052631578947" y="372.7894736842105"/>
      <point x="538.9999999999999" y="394.9473684210526" type="curve"/>
      <point x="533.7894736842105" y="396.84210526315786" type="line"/>
      <point x="529.6842105263157" y="469.52631578947364"/>
      <point x="486.2105263157895" y="511.36842105263156"/>
      <point x="410.42105263157896" y="511.36842105263156" type="curve" smooth="yes"/>
      <point x="364.0" y="511.36842105263156"/>
      <point x="291.47368421052624" y="465.05263157894734"/>
      <point x="239.1578947368421" y="423.9473684210526" type="curve"/>
      <point x="227.84210526315786" y="423.9473684210526" type="line"/>
      <point x="236.0" y="504.89473684210526" type="line"/>
      <point x="108.26315789473685" y="498.2105263157895" type="line"/>
      <point x="100.26315789473684" y="430.36842105263156"/>
      <point x="93.78947368421053" y="364.7368421052632"/>
      <point x="86.31578947368422" y="300.42105263157896" type="curve"/>
      <point x="68.21052631578948" y="216.78947368421052" type="line"/>
      <point x="46.05263157894738" y="134.21052631578948"/>
      <point x="30.47368421052632" y="71.84210526315789"/>
    </contour>
    <contour>
      <point x="628.3157894736843" y="0.0" type="curve"/>
      <point x="779.6315789473683" y="0.0" type="line"/>
      <point x="791.4736842105264" y="71.84210526315789"/>
      <point x="800.7894736842104" y="134.21052631578948"/>
      <point x="814.6315789473683" y="216.78947368421052" type="curve"/>
      <point x="822.6315789473683" y="255.31578947368425"/>
      <point x="833.3684210526316" y="290.84210526315786"/>
      <point x="839.3684210526316" y="318.89473684210526" type="curve" smooth="yes"/>
      <point x="864.7894736842105" y="436.6842105263157"/>
      <point x="818.2631578947369" y="511.36842105263156"/>
      <point x="716.6842105263156" y="511.36842105263156" type="curve" smooth="yes"/>
      <point x="670.2631578947368" y="511.36842105263156"/>
      <point x="595.3157894736842" y="464.1052631578948"/>
      <point x="540.421052631579" y="420.47368421052636" type="curve"/>
      <point x="528.684210526316" y="420.47368421052636" type="line"/>
      <point x="527.6842105263157" y="320.84210526315786" type="line"/>
      <point x="568.1052631578948" y="358.8947368421053"/>
      <point x="620.736842105263" y="390.9473684210526"/>
      <point x="645.1578947368421" y="390.9473684210526" type="curve" smooth="yes"/>
      <point x="697.0" y="390.9473684210526"/>
      <point x="711.4210526315788" y="349.1578947368421"/>
      <point x="694.6842105263158" y="273.52631578947364" type="curve"/>
      <point x="682.0" y="209.94736842105263" type="line"/>
      <point x="662.4736842105264" y="134.21052631578948"/>
      <point x="646.8947368421052" y="71.84210526315789"/>
    </contour>
  </outline>
</glyph>
<glyph name="n" format="2">
  <advance width="588.7368421052632"/>
  <unicode hex="006E"/>
  <anchor x="244.10526315789477" y="0.0" name="bottom"/>
  <anchor x="349.15789473684214" y="498.2105263157895" name="top"/>
  <outline>
    <contour>
      <point x="11.368421052631584" y="0.0" type="curve"/>
      <point x="163.73684210526315" y="0.0" type="line"/>
      <point x="175.5789473684211" y="71.84210526315789"/>
      <point x="185.42105263157896" y="134.21052631578948"/>
      <point x="197.6842105263158" y="209.94736842105263" type="curve"/>
      <point x="221.421052631579" y="320.84210526315786" type="line"/>
      <point x="261.84210526315786" y="358.8947368421054"/>
      <point x="317.89473684210526" y="390.9473684210526"/>
      <point x="342.7894736842105" y="390.9473684210526" type="curve" smooth="yes"/>
      <point x="401.36842105263156" y="390.9473684210526"/>
      <point x="415.7894736842106" y="349.1578947368421"/>
      <point x="399.0526315789474" y="273.52631578947364" type="curve"/>
      <point x="386.3684210526316" y="209.94736842105263" type="line"/>
      <point x="366.8421052631579" y="134.21052631578948"/>
      <point x="351.26315789473693" y="71.84210526315789"/>
      <point x="332.6842105263158" y="0.0" type="curve"/>
      <point x="484.00000000000006" y="0.0" type="line"/>
      <point x="495.8421052631579" y="71.84210526315789"/>
      <point x="505.15789473684214" y="134.21052631578948"/>
      <point x="519.0" y="216.78947368421052" type="curve"/>
      <point x="527.0" y="255.31578947368425"/>
      <point x="537.7368421052632" y="290.84210526315786"/>
      <point x="543.7368421052632" y="318.89473684210526" type="curve" smooth="yes"/>
      <point x="569.1578947368422" y="436.6842105263157"/>
      <point x="522.6315789473684" y="511.36842105263156"/>
      <point x="414.7894736842105" y="511.36842105263156" type="curve" smooth="yes"/>
      <point x="367.42105263157896" y="511.36842105263156"/>
      <point x="290.94736842105266" y="465.05263157894734"/>
      <point x="238.63157894736844" y="423.9473684210526" type="curve"/>
      <point x="227.3157894736842" y="423.9473684210526" type="line"/>
      <point x="236.47368421052633" y="504.89473684210526" type="line"/>
      <point x="108.26315789473685" y="498.2105263157895" type="line"/>
      <point x="100.26315789473684" y="430.36842105263156"/>
      <point x="93.78947368421053" y="364.7368421052632"/>
      <point x="86.31578947368422" y="300.42105263157896" type="curve"/>
      <point x="68.21052631578948" y="216.78947368421052" type="line"/>
      <point x="46.05263157894738" y="134.21052631578948"/>
      <point x="30.47368421052632" y="71.84210526315789"/>
    </contour>
  </outline>
</glyph>
<glyph name="p" format="2">
  <advance width="599.1578947368421"/>
  <unicode hex="0070"/>
  <outline>
    <contour>
      <point x="-30.105263157894733" y="-196.10526315789474" type="curve"/>
      <point x="125.89473684210527" y="-192.0" type="line"/>
      <point x="136.68421052631578" y="-120.15789473684211"/>
      <point x="145.47368421052633" y="-57.78947368421053"/>
      <point x="157.21052631578948" y="17.94736842105263" type="curve"/>
      <point x="166.57894736842107" y="60.89473684210526" type="line"/>
      <point x="175.21052631578948" y="60.89473684210526" type="line"/>
      <point x="221.57894736842104" y="20.210526315789473"/>
      <point x="280.8947368421052" y="-12.68421052631579"/>
      <point x="323.3684210526316" y="-12.68421052631579" type="curve" smooth="yes"/>
      <point x="442.2105263157895" y="-12.68421052631579"/>
      <point x="524.8421052631578" y="83.89473684210526"/>
      <point x="554.8421052631578" y="226.31578947368422" type="curve" smooth="yes"/>
      <point x="586.3684210526314" y="377.36842105263156"/>
      <point x="534.8947368421052" y="511.36842105263156"/>
      <point x="394.0" y="511.36842105263156" type="curve" smooth="yes"/>
      <point x="355.7894736842105" y="511.36842105263156"/>
      <point x="289.99999999999994" y="475.84210526315786"/>
      <point x="245.68421052631575" y="436.89473684210526" type="curve"/>
      <point x="233.36842105263156" y="436.89473684210526" type="line"/>
      <point x="239.78947368421052" y="504.89473684210526" type="line"/>
      <point x="108.26315789473685" y="498.2105263157895" type="line"/>
      <point x="100.26315789473684" y="430.36842105263156"/>
      <point x="93.78947368421053" y="364.7368421052632"/>
      <point x="86.31578947368422" y="300.42105263157896" type="curve"/>
      <point x="27.73684210526316" y="24.789473684210527" type="line"/>
      <point x="6.578947368421057" y="-57.78947368421053"/>
      <point x="-11.52631578947368" y="-124.26315789473684"/>
    </contour>
    <contour>
      <point x="287.0526315789474" y="101.42105263157895" type="curve"/>
      <point x="257.8421052631579" y="103.94736842105263"/>
      <point x="214.1052631578947" y="126.57894736842104"/>
      <point x="187.21052631578948" y="158.26315789473685" type="curve"/>
      <point x="225.8947368421053" y="341.0" type="line"/>
      <point x="257.7368421052632" y="372.578947368421"/>
      <point x="307.3157894736842" y="396.2631578947369"/>
      <point x="330.89473684210526" y="398.8421052631579" type="curve"/>
      <point x="411.15789473684214" y="395.8421052631579"/>
      <point x="439.7368421052632" y="320.5263157894737"/>
      <point x="422.2631578947368" y="236.6315789473684" type="curve" smooth="yes"/>
      <point x="406.1578947368421" y="159.5263157894737"/>
      <point x="362.2631578947368" y="104.94736842105263"/>
    </contour>
  </outline>
</glyph>
<glyph name="q" format="2">
  <advance width="588.1052631578948"/>
  <unicode hex="0071"/>
  <outline>
    <contour>
      <point x="287.94736842105266" y="-196.10526315789474" type="curve"/>
      <point x="440.78947368421046" y="-192.0" type="line"/>
      <point x="452.6315789473683" y="-120.15789473684211"/>
      <point x="462.47368421052624" y="-57.78947368421053"/>
      <point x="476.31578947368416" y="24.789473684210527" type="curve"/>
      <point x="534.9473684210525" y="300.42105263157896" type="line"/>
      <point x="553.2631578947368" y="366.7894736842105"/>
      <point x="574.5263157894735" y="435.0"/>
      <point x="595.8947368421052" y="504.89473684210526" type="curve"/>
      <point x="464.47368421052636" y="498.2105263157895" type="line"/>
      <point x="443.89473684210526" y="433.57894736842104" type="line"/>
      <point x="432.63157894736844" y="433.57894736842104" type="line"/>
      <point x="387.0" y="474.84210526315786"/>
      <point x="321.2631578947368" y="511.36842105263156"/>
      <point x="276.3157894736842" y="511.36842105263156" type="curve" smooth="yes"/>
      <point x="157.4736842105263" y="511.36842105263156"/>
      <point x="74.84210526315789" y="414.7894736842105"/>
      <point x="44.84210526315789" y="272.3684210526316" type="curve" smooth="yes"/>
      <point x="13.315789473684207" y="121.31578947368422"/>
      <point x="64.78947368421052" y="-12.68421052631579"/>
      <point x="205.6842105263158" y="-12.68421052631579" type="curve" smooth="yes"/>
      <point x="241.26315789473685" y="-12.68421052631579"/>
      <point x="297.4736842105263" y="16.42105263157895"/>
      <point x="341.36842105263156" y="56.05263157894738" type="curve"/>
      <point x="352.1052631578948" y="56.05263157894738" type="line"/>
      <point x="343.6842105263158" y="17.94736842105263" type="line"/>
      <point x="324.63157894736844" y="-57.78947368421053"/>
      <point x="306.5263157894737" y="-124.26315789473684"/>
    </contour>
    <contour>
      <point x="268.7894736842105" y="99.84210526315789" type="curve"/>
      <point x="188.52631578947367" y="102.36842105263158"/>
      <point x="159.47368421052633" y="178.63157894736844"/>
      <point x="177.42105263157896" y="262.05263157894734" type="curve" smooth="yes"/>
      <point x="194.00000000000003" y="340.10526315789474"/>
      <point x="237.42105263157896" y="393.7368421052632"/>
      <point x="312.6315789473684" y="397.2631578947369" type="curve"/>
      <point x="343.2631578947368" y="395.21052631578954"/>
      <point x="385.57894736842104" y="372.57894736842104"/>
      <point x="413.89473684210526" y="347.52631578947364" type="curve"/>
      <point x="375.68421052631584" y="168.10526315789474" type="line"/>
      <point x="346.2105263157894" y="131.7894736842105"/>
      <point x="302.3157894736842" y="102.89473684210526"/>
    </contour>
  </outline>
</glyph>
<glyph name="r" format="2">
  <advance width="417.1578947368421"/>
  <unicode hex="0072"/>
  <anchor x="81.1578947368421" y="0.0" name="bottom"/>
  <anchor x="287.15789473684214" y="498.2105263157895" name="top"/>
  <outline>
    <contour>
      <point x="11.368421052631584" y="0.0" type="curve"/>
      <point x="163.73684210526315" y="0.0" type="line"/>
      <point x="175.5789473684211" y="71.84210526315789"/>
      <point x="185.42105263157896" y="134.21052631578948"/>
      <point x="197.6842105263158" y="209.94736842105263" type="curve"/>
      <point x="217.3684210526316" y="297.99999999999994" type="line"/>
      <point x="269.10526315789474" y="349.15789473684214"/>
      <point x="323.5263157894737" y="378.8421052631579"/>
      <point x="343.94736842105266" y="378.8421052631579" type="curve" smooth="yes"/>
      <point x="352.4736842105263" y="378.8421052631579"/>
      <point x="379.94736842105254" y="371.84210526315786"/>
      <point x="410.2105263157894" y="363.7368421052632" type="curve"/>
      <point x="450.7368421052631" y="500.89473684210526" type="line"/>
      <point x="427.8421052631579" y="507.3684210526316"/>
      <point x="397.47368421052636" y="511.36842105263156"/>
      <point x="388.5789473684211" y="511.36842105263156" type="curve" smooth="yes"/>
      <point x="347.47368421052636" y="511.36842105263156"/>
      <point x="302.2631578947368" y="480.84210526315786"/>
      <point x="237.21052631578948" y="417.31578947368416" type="curve"/>
      <point x="225.89473684210526" y="417.31578947368416" type="line"/>
      <point x="236.0" y="504.89473684210526" type="line"/>
      <point x="108.26315789473685" y="498.2105263157895" type="line"/>
      <point x="100.26315789473684" y="430.36842105263156"/>
      <point x="93.78947368421053" y="364.7368421052632"/>
      <point x="86.31578947368422" y="300.42105263157896" type="curve"/>
      <point x="68.21052631578948" y="216.78947368421052" type="line"/>
      <point x="46.05263157894738" y="134.21052631578948"/>
      <point x="30.47368421052632" y="71.84210526315789"/>
    </contour>
  </outline>
</glyph>
<glyph name="u" format="2">
  <advance width="573.2105263157895"/>
  <unicode hex="0075"/>
  <anchor x="233.52631578947367" y="0.0" name="bottom"/>
  <anchor x="463.2105263157894" y="0.0" name="ogonek"/>
  <anchor x="338.0526315789474" y="498.2105263157895" name="top"/>
  <anchor x="600.5263157894736" y="498.2105263157895" name="topright"/>
  <outline>
    <contour>
      <point x="171.26315789473688" y="-12.68421052631579" type="curve" smooth="yes"/>
      <point x="215.78947368421055" y="-12.68421052631579"/>
      <point x="292.2631578947368" y="33.631578947368425"/>
      <point x="344.57894736842104" y="74.73684210526316" type="curve"/>
      <point x="355.89473684210526" y="74.73684210526316" type="line"/>
      <point x="344.8421052631579" y="0.0" type="line"/>
      <point x="466.36842105263156" y="0.0" type="line"/>
      <point x="478.2105263157895" y="71.84210526315789"/>
      <point x="487.52631578947364" y="134.21052631578948"/>
      <point x="500.89473684210526" y="216.78947368421052" type="curve"/>
      <point x="512.9473684210526" y="272.05263157894734" type="line"/>
      <point x="536.2105263157895" y="363.05263157894734"/>
      <point x="552.7368421052631" y="426.36842105263156"/>
      <point x="571.3157894736842" y="498.2105263157895" type="curve"/>
      <point x="420.0526315789474" y="498.2105263157895" type="line"/>
      <point x="408.7368421052632" y="426.36842105263156"/>
      <point x="397.89473684210526" y="363.05263157894734"/>
      <point x="385.05263157894734" y="287.3157894736842" type="curve"/>
      <point x="361.2631578947368" y="175.21052631578942" type="line"/>
      <point x="320.8421052631579" y="137.15789473684214"/>
      <point x="264.7894736842105" y="105.10526315789473"/>
      <point x="242.73684210526312" y="105.10526315789473" type="curve" smooth="yes"/>
      <point x="184.1578947368421" y="105.10526315789473"/>
      <point x="169.21052631578948" y="146.89473684210523"/>
      <point x="185.94736842105263" y="222.5263157894737" type="curve"/>
      <point x="199.21052631578945" y="287.3157894736842" type="line"/>
      <point x="218.26315789473682" y="363.05263157894734"/>
      <point x="236.31578947368416" y="430.4736842105263"/>
      <point x="254.89473684210523" y="502.3157894736842" type="curve"/>
      <point x="101.05263157894737" y="498.2105263157895" type="line"/>
      <point x="89.73684210526315" y="426.36842105263156"/>
      <point x="78.89473684210526" y="363.0526315789474"/>
      <point x="65.0" y="272.05263157894734" type="curve"/>
      <point x="57.0" y="234.94736842105263"/>
      <point x="49.89473684210526" y="207.8421052631579"/>
      <point x="43.89473684210526" y="179.78947368421052" type="curve" smooth="yes"/>
      <point x="18.473684210526315" y="62.00000000000001"/>
      <point x="63.421052631578945" y="-12.68421052631579"/>
    </contour>
  </outline>
</glyph>
<glyph name="w" format="2">
  <advance width="827.1052631578948"/>
  <unicode hex="0077"/>
  <anchor x="358.84210526315786" y="0.0" name="bottom"/>
  <anchor x="463.36842105263156" y="498.2105263157895" name="top"/>
  <outline>
    <contour>
      <point x="117.36842105263158" y="0.0" type="curve"/>
      <point x="268.15789473684214" y="0.0" type="line"/>
      <point x="296.7368421052631" y="64.73684210526315"/>
      <point x="327.7368421052631" y="133.3684210526316"/>
      <point x="356.3157894736842" y="197.63157894736844" type="curve"/>
      <point x="414.68421052631584" y="321.2631578947369" type="line"/>
      <point x="424.89473684210526" y="321.2631578947369" type="line"/>
      <point x="432.7894736842106" y="201.21052631578948" type="line"/>
      <point x="434.4210526315789" y="138.26315789473685"/>
      <point x="437.47368421052636" y="62.368421052631575"/>
      <point x="439.6315789473685" y="0.0" type="curve"/>
      <point x="604.4736842105264" y="0.0" type="line"/>
      <point x="634.3684210526316" y="61.05263157894737"/>
      <point x="664.7368421052631" y="124.57894736842105"/>
      <point x="697.1052631578948" y="190.57894736842104" type="curve"/>
      <point x="743.0526315789474" y="277.57894736842104" type="line"/>
      <point x="784.6315789473684" y="351.6842105263158"/>
      <point x="825.157894736842" y="423.6842105263158"/>
      <point x="867.6842105263158" y="498.2105263157895" type="curve"/>
      <point x="704.5789473684212" y="498.2105263157895" type="line"/>
      <point x="676.8947368421054" y="433.10526315789474"/>
      <point x="641.8947368421052" y="350.6842105263158"/>
      <point x="611.2631578947369" y="278.63157894736844" type="curve"/>
      <point x="546.8947368421052" y="136.5263157894737" type="line"/>
      <point x="536.6315789473684" y="136.5263157894737" type="line"/>
      <point x="530.3684210526316" y="277.10526315789474" type="line"/>
      <point x="529.3157894736843" y="349.6842105263158"/>
      <point x="528.3157894736844" y="427.6315789473684"/>
      <point x="527.2631578947369" y="498.2105263157895" type="curve"/>
      <point x="390.89473684210526" y="498.2105263157895" type="line"/>
      <point x="359.3157894736842" y="423.7368421052632"/>
      <point x="328.7368421052632" y="350.7368421052632"/>
      <point x="297.1052631578948" y="276.1578947368421" type="curve"/>
      <point x="234.1578947368421" y="136.5263157894737" type="line"/>
      <point x="223.8947368421053" y="136.5263157894737" type="line"/>
      <point x="217.1578947368421" y="274.2631578947368" type="line"/>
      <point x="216.10526315789474" y="346.8421052631579"/>
      <point x="214.63157894736844" y="428.7894736842105"/>
      <point x="213.10526315789474" y="502.3157894736842" type="curve"/>
      <point x="62.36842105263158" y="498.2105263157895" type="line"/>
      <point x="73.36842105263158" y="423.2105263157895"/>
      <point x="83.89473684210526" y="351.6315789473684"/>
      <point x="94.42105263157895" y="277.57894736842104" type="curve"/>
      <point x="103.78947368421052" y="189.1052631578947" type="line"/>
      <point x="108.63157894736841" y="124.63157894736842"/>
      <point x="112.99999999999999" y="62.526315789473685"/>
    </contour>
  </outline>
</glyph>
<glyph name="x" format="2">
  <advance width="564.2105263157895"/>
  <unicode hex="0078"/>
  <outline>
    <contour>
      <point x="-35.94736842105263" y="0.0" type="curve"/>
      <point x="136.78947368421052" y="0.0" type="line"/>
      <point x="163.31578947368422" y="40.05263157894737"/>
      <point x="182.57894736842104" y="68.6842105263158"/>
      <point x="208.6315789473684" y="109.31578947368422" type="curve"/>
      <point x="263.89473684210526" y="184.89473684210526" type="line"/>
      <point x="273.10526315789474" y="184.89473684210526" type="line"/>
      <point x="301.7368421052631" y="105.73684210526316" type="line"/>
      <point x="313.99999999999994" y="66.6842105263158"/>
      <point x="322.47368421052636" y="38.0"/>
      <point x="334.73684210526324" y="0.0" type="curve"/>
      <point x="496.2631578947368" y="0.0" type="line"/>
      <point x="462.94736842105266" y="64.6842105263158"/>
      <point x="441.57894736842104" y="106.78947368421052"/>
      <point x="416.2631578947368" y="155.31578947368422" type="curve"/>
      <point x="361.7894736842105" y="272.63157894736844" type="line"/>
      <point x="362.4210526315789" y="243.3684210526316" type="line"/>
      <point x="456.0526315789474" y="351.0" type="line"/>
      <point x="500.89473684210526" y="400.5263157894737"/>
      <point x="529.8947368421053" y="432.63157894736844"/>
      <point x="589.2105263157896" y="498.2105263157895" type="curve"/>
      <point x="415.9473684210526" y="498.2105263157895" type="line"/>
      <point x="388.3684210526316" y="458.1578947368421"/>
      <point x="368.5263157894737" y="428.4736842105263"/>
      <point x="342.8421052631579" y="389.2631578947369" type="curve"/>
      <point x="289.36842105263156" y="316.5263157894737" type="line"/>
      <point x="279.57894736842104" y="316.5263157894737" type="line"/>
      <point x="253.68421052631578" y="389.7894736842105" type="line"/>
      <point x="243.26315789473685" y="427.578947368421"/>
      <point x="233.31578947368422" y="461.7368421052631"/>
      <point x="221.0" y="502.3157894736842" type="curve"/>
      <point x="69.36842105263158" y="498.2105263157895" type="line"/>
      <point x="98.63157894736842" y="436.6315789473684"/>
      <point x="116.52631578947368" y="399.05263157894734"/>
      <point x="140.78947368421052" y="348.57894736842104" type="curve"/>
      <point x="186.73684210526315" y="241.47368421052633" type="line"/>
      <point x="192.42105263157896" y="271.6842105263158" type="line"/>
      <point x="99.52631578947368" y="156.89473684210526" type="line"/>
      <point x="54.21052631578948" y="104.26315789473684"/>
      <point x="22.789473684210524" y="67.63157894736842"/>
    </contour>
  </outline>
</glyph>
<glyph name="z" format="2">
  <advance width="510.42105263157896"/>
  <unicode hex="007A"/>
  <anchor x="201.21052631578948" y="0.0" name="bottom"/>
  <anchor x="253.73684210526315" y="249.10526315789474" name="center"/>
  <anchor x="306.2631578947368" y="498.2105263157895" name="top"/>
  <outline>
    <contour>
      <point x="-19.05263157894737" y="0.0" type="line"/>
      <point x="426.3157894736842" y="0.0" type="line"/>
      <point x="450.15789473684214" y="112.05263157894737" type="line"/>
      <point x="385.6842105263158" y="106.8421052631579"/>
      <point x="304.10526315789474" y="101.10526315789474"/>
      <point x="254.63157894736844" y="97.47368421052632" type="curve"/>
      <point x="145.31578947368422" y="97.47368421052632" type="line"/>
      <point x="159.26315789473682" y="70.05263157894737" type="line"/>
      <point x="330.89473684210526" y="247.10526315789474" type="line"/>
      <point x="385.68421052631584" y="300.21052631578954"/>
      <point x="453.7368421052632" y="366.0526315789474"/>
      <point x="497.7894736842105" y="408.4736842105263" type="curve"/>
      <point x="516.4736842105262" y="498.2105263157895" type="line"/>
      <point x="89.6842105263158" y="498.2105263157895" type="line"/>
      <point x="65.3157894736842" y="383.5263157894737" type="line"/>
      <point x="133.21052631578945" y="389.2631578947368"/>
      <point x="218.3684210526316" y="396.0526315789474"/>
      <point x="268.42105263157896" y="400.2105263157895" type="curve"/>
      <point x="368.42105263157896" y="400.2105263157895" type="line"/>
      <point x="349.7368421052632" y="437.6842105263158" type="line"/>
      <point x="173.3157894736842" y="251.6315789473684" type="line"/>
      <point x="121.47368421052633" y="200.42105263157893"/>
      <point x="60.73684210526315" y="140.31578947368425"/>
      <point x="-2.4736842105263173" y="78.26315789473684" type="curve"/>
    </contour>
  </outline>
</glyph>
<glyph name="braceleft" format="2">
  <advance width="434.10526315789474"/>
  <unicode hex="007B"/>
  <outline>
    <contour>
      <point x="246.57894736842104" y="-121.47368421052632" type="curve" smooth="yes"/>
      <point x="335.9473684210526" y="-121.47368421052632" type="line"/>
      <point x="358.2631578947368" y="-13.105263157894743" type="line"/>
      <point x="324.7368421052631" y="-14.631578947368425"/>
      <point x="297.2105263157894" y="-15.684210526315795"/>
      <point x="280.2105263157894" y="-16.21052631578948" type="curve"/>
      <point x="228.31578947368422" y="-14.105263157894743"/>
      <point x="211.3157894736842" y="19.94736842105263"/>
      <point x="220.15789473684208" y="68.78947368421052" type="curve" smooth="yes"/>
      <point x="251.4736842105263" y="239.6315789473684" type="line" smooth="yes"/>
      <point x="253.52631578947367" y="251.421052631579"/>
      <point x="214.68421052631578" y="293.7368421052631"/>
      <point x="182.15789473684208" y="318.5263157894737" type="curve"/>
      <point x="184.21052631578945" y="329.2631578947368" type="line"/>
      <point x="224.7894736842105" y="354.10526315789474"/>
      <point x="285.57894736842104" y="403.3684210526316"/>
      <point x="288.68421052631584" y="416.7368421052631" type="curve" smooth="yes"/>
      <point x="330.6842105263158" y="594.6842105263158" type="line" smooth="yes"/>
      <point x="342.5789473684211" y="644.9473684210527"/>
      <point x="369.5263157894737" y="664.7368421052632"/>
      <point x="419.57894736842104" y="666.8421052631579" type="curve"/>
      <point x="438.00000000000006" y="666.3157894736843"/>
      <point x="470.63157894736844" y="664.7894736842106"/>
      <point x="497.7368421052631" y="663.7368421052632" type="curve"/>
      <point x="521.0526315789473" y="772.1052631578947" type="line"/>
      <point x="414.7894736842105" y="772.1052631578947" type="line" smooth="yes"/>
      <point x="304.0" y="772.1052631578947"/>
      <point x="228.94736842105263" y="729.2105263157894"/>
      <point x="210.8421052631579" y="627.6315789473684" type="curve"/>
      <point x="209.3684210526316" y="619.7368421052631"/>
      <point x="182.3157894736842" y="471.2631578947369"/>
      <point x="180.8421052631579" y="463.89473684210526" type="curve"/>
      <point x="168.94736842105263" y="404.4210526315789"/>
      <point x="119.57894736842105" y="372.2105263157895"/>
      <point x="83.3157894736842" y="372.2105263157895" type="curve" smooth="yes"/>
      <point x="41.10526315789474" y="372.2105263157895" type="line"/>
      <point x="21.42105263157895" y="277.94736842105266" type="line"/>
      <point x="63.63157894736842" y="277.94736842105266" type="line" smooth="yes"/>
      <point x="99.89473684210527" y="277.94736842105266"/>
      <point x="135.8421052631579" y="250.47368421052633"/>
      <point x="122.52631578947367" y="186.26315789473685" type="curve"/>
      <point x="121.05263157894736" y="178.89473684210526"/>
      <point x="92.78947368421052" y="61.15789473684211"/>
      <point x="91.31578947368419" y="53.78947368421052" type="curve"/>
      <point x="71.10526315789473" y="-45.84210526315789"/>
      <point x="131.52631578947367" y="-121.47368421052632"/>
    </contour>
  </outline>
</glyph>
<glyph name="cent" format="2">
  <advance width="487.2631578947368"/>
  <unicode hex="00A2"/>
  <anchor x="229.05263157894737" y="0.0" name="bottom"/>
  <anchor x="329.8421052631579" y="498.2105263157895" name="top"/>
  <outline>
    <contour>
      <point x="149.0" y="-137.0" type="curve"/>
      <point x="256.2105263157894" y="-137.0" type="line"/>
      <point x="280.4736842105263" y="-11.105263157894736"/>
      <point x="305.1578947368421" y="117.15789473684208"/>
      <point x="318.9473684210526" y="192.52631578947367" type="curve"/>
      <point x="340.9473684210526" y="296.10526315789474" type="line"/>
      <point x="358.9473684210526" y="371.4736842105263"/>
      <point x="388.7368421052632" y="498.2105263157895"/>
      <point x="418.2105263157894" y="625.6315789473684" type="curve"/>
      <point x="311.00000000000006" y="625.6315789473684" type="line"/>
      <point x="286.2105263157895" y="497.15789473684214"/>
      <point x="262.0526315789474" y="370.9473684210526"/>
      <point x="248.26315789473685" y="296.10526315789474" type="curve"/>
      <point x="226.26315789473685" y="192.52631578947367" type="line"/>
      <point x="208.78947368421055" y="119.26315789473685"/>
      <point x="178.47368421052633" y="-10.052631578947366"/>
    </contour>
    <contour>
      <point x="283.8421052631579" y="-11.105263157894738" type="curve" smooth="yes"/>
      <point x="315.1052631578947" y="-11.105263157894738"/>
      <point x="374.9473684210526" y="4.631578947368421"/>
      <point x="401.9473684210526" y="14.052631578947368" type="curve"/>
      <point x="418.2631578947369" y="131.4736842105263" type="line"/>
      <point x="384.94736842105266" y="116.68421052631578"/>
      <point x="326.6315789473684" y="98.73684210526315"/>
      <point x="308.05263157894734" y="98.26315789473684" type="curve" smooth="yes"/>
      <point x="210.52631578947367" y="100.26315789473684"/>
      <point x="152.89473684210526" y="160.73684210526315"/>
      <point x="175.94736842105263" y="266.47368421052636" type="curve" smooth="yes"/>
      <point x="195.0" y="351.68421052631584"/>
      <point x="252.84210526315792" y="393.8421052631579"/>
      <point x="327.4736842105263" y="398.8421052631579" type="curve"/>
      <point x="341.26315789473676" y="398.8421052631579"/>
      <point x="404.57894736842104" y="379.42105263157896"/>
      <point x="462.7894736842106" y="355.57894736842104" type="curve"/>
      <point x="495.89473684210526" y="470.63157894736844" type="line"/>
      <point x="443.7894736842105" y="487.7368421052632"/>
      <point x="357.7894736842105" y="510.8421052631579"/>
      <point x="327.42105263157896" y="510.8421052631579" type="curve" smooth="yes"/>
      <point x="175.31578947368422" y="510.8421052631579"/>
      <point x="72.94736842105263" y="417.42105263157896"/>
      <point x="43.89473684210527" y="278.78947368421046" type="curve" smooth="yes"/>
      <point x="7.736842105263161" y="105.21052631578948"/>
      <point x="105.99999999999999" y="-11.105263157894738"/>
    </contour>
  </outline>
</glyph>
<glyph name="sterling" format="2">
  <advance width="602.1578947368421"/>
  <unicode hex="00A3"/>
  <outline>
    <contour>
      <point x="1.421052631578946" y="0.0" type="line"/>
      <point x="517.2631578947369" y="0.0" type="line"/>
      <point x="545.3157894736842" y="131.94736842105263" type="line"/>
      <point x="468.4736842105263" y="128.31578947368422"/>
      <point x="352.2105263157895" y="123.63157894736842"/>
      <point x="263.2631578947369" y="119.47368421052632" type="curve"/>
      <point x="126.3157894736842" y="119.47368421052632" type="line"/>
      <point x="160.21052631578948" y="94.68421052631578" type="line"/>
      <point x="244.26315789473682" y="203.26315789473685"/>
      <point x="264.1578947368422" y="235.5263157894737"/>
      <point x="271.10526315789474" y="269.2631578947369" type="curve" smooth="yes"/>
      <point x="308.6842105263158" y="447.6842105263158" type="line" smooth="yes"/>
      <point x="328.2631578947369" y="539.7894736842106"/>
      <point x="375.15789473684214" y="581.9473684210526"/>
      <point x="451.6315789473684" y="584.5263157894736" type="curve"/>
      <point x="465.8947368421053" y="584.5263157894736"/>
      <point x="531.2105263157894" y="565.1052631578947"/>
      <point x="591.421052631579" y="540.7368421052631" type="curve"/>
      <point x="630.2631578947369" y="662.6315789473684" type="line"/>
      <point x="569.8421052631579" y="678.684210526316"/>
      <point x="471.8947368421052" y="701.2631578947369"/>
      <point x="437.89473684210526" y="701.2631578947369" type="curve" smooth="yes"/>
      <point x="294.7368421052632" y="701.2631578947369"/>
      <point x="201.31578947368425" y="621.1052631578947"/>
      <point x="169.26315789473688" y="466.2631578947369" type="curve" smooth="yes"/>
      <point x="154.421052631579" y="397.36842105263156"/>
      <point x="139.73684210526315" y="303.89473684210526"/>
      <point x="123.78947368421053" y="227.6315789473684" type="curve"/>
      <point x="118.3157894736842" y="203.89473684210526"/>
      <point x="98.47368421052632" y="171.78947368421058"/>
      <point x="17.421052631578945" y="75.94736842105263" type="curve"/>
    </contour>
    <contour>
      <point x="68.36842105263158" y="318.0526315789474" type="line"/>
      <point x="135.8421052631579" y="320.10526315789474"/>
      <point x="208.0526315789474" y="322.15789473684214"/>
      <point x="255.15789473684208" y="323.2105263157895" type="curve"/>
      <point x="292.5263157894737" y="323.2105263157895" type="line"/>
      <point x="338.57894736842104" y="322.15789473684214"/>
      <point x="409.8421052631579" y="320.10526315789474"/>
      <point x="476.2631578947368" y="318.0526315789474" type="curve"/>
      <point x="497.99999999999994" y="420.57894736842104" type="line"/>
      <point x="431.0526315789474" y="418.5263157894737"/>
      <point x="358.7894736842105" y="416.4736842105263"/>
      <point x="311.6842105263158" y="415.42105263157896" type="curve"/>
      <point x="274.31578947368416" y="415.42105263157896" type="line"/>
      <point x="228.26315789473685" y="416.4736842105263"/>
      <point x="157.05263157894734" y="418.5263157894737"/>
      <point x="90.10526315789474" y="420.57894736842104" type="curve"/>
    </contour>
  </outline>
</glyph>
<glyph name="yen" format="2">
  <advance width="645.1052631578947"/>
  <unicode hex="00A5"/>
  <outline>
    <contour>
      <point x="263.9473684210526" y="252.21052631578948" type="line"/>
      <point x="385.57894736842104" y="252.21052631578948" type="line"/>
      <point x="583.2631578947369" y="514.8947368421053" type="line"/>
      <point x="632.3157894736843" y="575.1578947368422"/>
      <point x="679.3684210526316" y="633.3684210526317"/>
      <point x="722.9473684210526" y="687.1578947368421" type="curve"/>
      <point x="538.5263157894738" y="687.1578947368421" type="line"/>
      <point x="488.21052631578954" y="606.1052631578947"/>
      <point x="464.94736842105254" y="568.0"/>
      <point x="424.7894736842105" y="503.2631578947369" type="curve"/>
      <point x="352.7894736842105" y="396.5263157894737" type="line"/>
      <point x="342.57894736842104" y="396.5263157894737" type="line"/>
      <point x="314.3684210526315" y="498.2105263157895" type="line"/>
      <point x="300.31578947368416" y="562.3684210526317"/>
      <point x="291.8947368421052" y="605.1578947368421"/>
      <point x="274.10526315789474" y="687.1578947368421" type="curve"/>
      <point x="106.15789473684211" y="687.1578947368421" type="line"/>
      <point x="141.6315789473684" y="598.7368421052631"/>
      <point x="155.15789473684208" y="564.5263157894738"/>
      <point x="175.6315789473684" y="513.3157894736843" type="curve"/>
    </contour>
    <contour>
      <point x="191.52631578947367" y="0.0" type="curve"/>
      <point x="350.6842105263158" y="0.0" type="line"/>
      <point x="363.0" y="74.78947368421052"/>
      <point x="373.3684210526315" y="137.1578947368421"/>
      <point x="387.2105263157894" y="222.21052631578948" type="curve"/>
      <point x="417.31578947368416" y="364.57894736842104" type="line"/>
      <point x="279.4736842105263" y="364.57894736842104" type="line"/>
      <point x="249.3684210526316" y="222.73684210526315" type="line"/>
      <point x="227.21052631578948" y="137.68421052631578"/>
      <point x="211.1052631578947" y="75.26315789473684"/>
    </contour>
    <contour>
      <point x="47.473684210526315" y="120.73684210526315" type="line"/>
      <point x="114.42105263157896" y="122.78947368421052"/>
      <point x="186.68421052631578" y="124.84210526315789"/>
      <point x="233.26315789473682" y="125.89473684210526" type="curve"/>
      <point x="361.1578947368421" y="125.89473684210526" type="line"/>
      <point x="407.7368421052631" y="124.84210526315789"/>
      <point x="478.9473684210526" y="122.78947368421052"/>
      <point x="545.8947368421053" y="120.73684210526315" type="curve"/>
      <point x="564.5263157894736" y="210.1052631578947" type="line"/>
      <point x="497.05263157894734" y="209.1052631578947"/>
      <point x="425.31578947368416" y="208.1052631578947"/>
      <point x="378.7368421052631" y="207.57894736842104" type="curve"/>
      <point x="250.8421052631579" y="207.57894736842104" type="line"/>
      <point x="204.26315789473685" y="208.1052631578947"/>
      <point x="132.5263157894737" y="209.1052631578947"/>
      <point x="66.10526315789474" y="210.1052631578947" type="curve"/>
    </contour>
    <contour>
      <point x="80.78947368421052" y="279.1578947368421" type="line"/>
      <point x="148.21052631578948" y="280.1578947368421"/>
      <point x="219.94736842105263" y="281.1578947368421"/>
      <point x="266.52631578947364" y="281.6842105263158" type="curve"/>
      <point x="394.4210526315789" y="281.6842105263158" type="line"/>
      <point x="440.99999999999994" y="281.1578947368421"/>
      <point x="512.7368421052631" y="280.1578947368421"/>
      <point x="579.2105263157895" y="279.1578947368421" type="curve"/>
      <point x="598.3157894736843" y="368.52631578947364" type="line"/>
      <point x="530.8421052631579" y="366.4736842105263"/>
      <point x="458.578947368421" y="364.4210526315789"/>
      <point x="411.99999999999994" y="363.36842105263156" type="curve"/>
      <point x="284.1052631578947" y="363.36842105263156" type="line"/>
      <point x="237.52631578947367" y="364.4210526315789"/>
      <point x="166.31578947368422" y="366.4736842105263"/>
      <point x="99.89473684210526" y="368.52631578947364" type="curve"/>
    </contour>
  </outline>
</glyph>
<glyph name="brokenbar" format="2">
  <advance width="277.36842105263156"/>
  <unicode hex="00A6"/>
  <outline>
    <contour>
      <point x="105.47368421052632" y="360.7368421052632" type="line"/>
      <point x="219.68421052631578" y="360.7368421052632" type="line"/>
      <point x="239.21052631578948" y="451.7368421052632" type="line"/>
      <point x="248.26315789473682" y="490.78947368421046"/>
      <point x="284.3684210526316" y="642.7894736842105"/>
      <point x="316.4736842105263" y="780.7368421052631" type="curve"/>
      <point x="187.73684210526315" y="780.7368421052631" type="line"/>
      <point x="161.3684210526316" y="642.7894736842105"/>
      <point x="132.47368421052633" y="490.2631578947368"/>
      <point x="125.0" y="451.7368421052632" type="curve"/>
    </contour>
    <contour>
      <point x="-12.263157894736839" y="-159.26315789473685" type="curve"/>
      <point x="116.4736842105263" y="-159.26315789473685" type="line"/>
      <point x="142.8421052631579" y="-22.315789473684212"/>
      <point x="171.73684210526315" y="131.21052631578948"/>
      <point x="179.21052631578948" y="169.73684210526315" type="curve"/>
      <point x="198.21052631578948" y="260.7368421052632" type="line"/>
      <point x="84.0" y="260.7368421052632" type="line"/>
      <point x="65.0" y="169.73684210526315" type="line"/>
      <point x="56.473684210526315" y="132.26315789473682"/>
      <point x="19.842105263157897" y="-21.789473684210527"/>
    </contour>
  </outline>
</glyph>
<glyph name="section" format="2">
  <advance width="570.6893203883494"/>
  <unicode hex="00A7"/>
  <outline>
    <contour>
      <point x="199.27184466019418" y="-129.0097087378641" type="curve" smooth="yes"/>
      <point x="340.4271844660194" y="-129.0097087378641"/>
      <point x="414.0582524271845" y="-71.74757281553397"/>
      <point x="433.18446601941747" y="17.883495145631073" type="curve" smooth="yes"/>
      <point x="455.43689320388347" y="123.64077669902915"/>
      <point x="396.33009708737865" y="176.2621359223301"/>
      <point x="282.6893203883495" y="224.64077669902912" type="curve" smooth="yes"/>
      <point x="192.22330097087382" y="262.99999999999994"/>
      <point x="178.7281553398058" y="288.8640776699029"/>
      <point x="188.09708737864077" y="330.0873786407767" type="curve" smooth="yes"/>
      <point x="198.4660194174757" y="376.31067961165047"/>
      <point x="249.43689320388347" y="397.5533980582524"/>
      <point x="287.1747572815534" y="401.5533980582524" type="curve"/>
      <point x="239.02912621359226" y="483.747572815534" type="line"/>
      <point x="161.49514563106797" y="474.495145631068"/>
      <point x="74.4757281553398" y="426.621359223301"/>
      <point x="55.970873786407765" y="341.09708737864077" type="curve" smooth="yes"/>
      <point x="38.22330097087378" y="257.4854368932039"/>
      <point x="71.2135922330097" y="200.84466019417476"/>
      <point x="183.97087378640776" y="149.97087378640776" type="curve" smooth="yes"/>
      <point x="282.32038834951453" y="105.48543689320388"/>
      <point x="313.80582524271847" y="85.24271844660194"/>
      <point x="302.43689320388347" y="33.90291262135923" type="curve" smooth="yes"/>
      <point x="291.19417475728153" y="-16.058252427184463"/>
      <point x="242.34951456310677" y="-23.679611650485437"/>
      <point x="187.25242718446603" y="-25.80582524271845" type="curve"/>
      <point x="155.76699029126215" y="-25.80582524271845"/>
      <point x="78.37864077669903" y="5.699029126213592"/>
      <point x="1.2524271844660184" y="41.82524271844661" type="curve"/>
      <point x="-29.271844660194173" y="-71.64077669902913" type="line"/>
      <point x="53.36893203883496" y="-100.2621359223301"/>
      <point x="149.51456310679617" y="-129.0097087378641"/>
    </contour>
    <contour>
      <point x="372.5339805825243" y="116.11650485436894" type="line"/>
      <point x="464.4271844660194" y="129.49514563106797"/>
      <point x="527.8252427184466" y="177.62135922330097"/>
      <point x="544.3300970873787" y="259.7669902912621" type="curve" smooth="yes"/>
      <point x="563.3300970873786" y="354.00970873786406"/>
      <point x="506.9708737864077" y="406.63106796116506"/>
      <point x="394.45631067961165" y="454.88349514563106" type="curve" smooth="yes"/>
      <point x="306.24271844660194" y="492.99029126213594"/>
      <point x="289.49514563106794" y="518.233009708738"/>
      <point x="298.8640776699029" y="561.2038834951456" type="curve" smooth="yes"/>
      <point x="309.9805825242718" y="610.1650485436893"/>
      <point x="366.19417475728164" y="619.9126213592233"/>
      <point x="397.8058252427186" y="622.9126213592233" type="curve"/>
      <point x="415.42718446601936" y="622.9126213592233"/>
      <point x="493.5533980582524" y="595.5339805825241"/>
      <point x="562.3009708737862" y="566.1553398058253" type="curve"/>
      <point x="593.9514563106796" y="678.1262135922331" type="line"/>
      <point x="533.3106796116501" y="696.378640776699"/>
      <point x="427.0485436893204" y="727.252427184466"/>
      <point x="381.5339805825243" y="727.252427184466" type="curve" smooth="yes"/>
      <point x="265.62135922330094" y="727.252427184466"/>
      <point x="187.36893203883494" y="674.368932038835"/>
      <point x="166.9902912621359" y="579.4757281553398" type="curve" smooth="yes"/>
      <point x="146.86407766990288" y="484.2233009708738"/>
      <point x="191.72815533980582" y="427.0873786407767"/>
      <point x="296.6116504854369" y="381.08737864077665" type="curve" smooth="yes"/>
      <point x="394.83495145631065" y="337.60194174757277"/>
      <point x="424.6990291262136" y="314.6116504854369"/>
      <point x="414.2038834951456" y="263.0194174757281" type="curve" smooth="yes"/>
      <point x="406.45631067961165" y="224.29126213592232"/>
      <point x="360.2330097087378" y="196.67961165048544"/>
      <point x="314.49514563106794" y="191.80582524271844" type="curve"/>
    </contour>
  </outline>
</glyph>
<glyph name="copyright" format="2">
  <advance width="806.8947368421053"/>
  <unicode hex="00A9"/>
  <outline>
    <contour>
      <point x="426.94736842105266" y="-12.68421052631579" type="curve" smooth="yes"/>
      <point x="655.6315789473684" y="-12.68421052631579"/>
      <point x="785.8421052631579" y="139.3684210526316"/>
      <point x="785.8421052631579" y="344.5263157894737" type="curve" smooth="yes"/>
      <point x="785.8421052631579" y="542.1052631578947"/>
      <point x="662.1578947368421" y="701.2631578947369"/>
      <point x="422.8421052631579" y="701.2631578947369" type="curve" smooth="yes"/>
      <point x="187.0" y="701.2631578947369"/>
      <point x="61.05263157894737" y="544.0526315789474"/>
      <point x="61.05263157894737" y="344.0" type="curve" smooth="yes"/>
      <point x="61.05263157894737" y="153.6315789473684"/>
      <point x="177.6315789473684" y="-12.68421052631579"/>
    </contour>
    <contour>
      <point x="435.5263157894737" y="155.47368421052633" type="curve" smooth="yes"/>
      <point x="465.8947368421053" y="155.47368421052633"/>
      <point x="518.1052631578948" y="166.73684210526315"/>
      <point x="545.6842105263158" y="175.15789473684208" type="curve"/>
      <point x="539.6842105263158" y="260.1578947368421" type="line"/>
      <point x="511.57894736842115" y="247.4736842105263"/>
      <point x="477.0526315789474" y="237.0"/>
      <point x="458.1578947368421" y="237.0" type="curve"/>
      <point x="387.94736842105266" y="238.47368421052633"/>
      <point x="347.4736842105263" y="278.4736842105263"/>
      <point x="347.4736842105263" y="346.05263157894734" type="curve" smooth="yes"/>
      <point x="347.4736842105263" y="412.2105263157895"/>
      <point x="385.94736842105266" y="446.84210526315786"/>
      <point x="438.4736842105263" y="449.36842105263156" type="curve"/>
      <point x="451.68421052631584" y="449.36842105263156"/>
      <point x="494.7894736842106" y="438.2631578947369"/>
      <point x="538.1052631578948" y="420.0" type="curve"/>
      <point x="545.7894736842105" y="507.10526315789474" type="line"/>
      <point x="509.36842105263156" y="519.1578947368421"/>
      <point x="455.99999999999994" y="533.0"/>
      <point x="427.9473684210526" y="533.0" type="curve" smooth="yes"/>
      <point x="310.94736842105266" y="533.0"/>
      <point x="248.05263157894737" y="451.5263157894737"/>
      <point x="248.05263157894737" y="343.42105263157896" type="curve" smooth="yes"/>
      <point x="248.05263157894737" y="235.31578947368422"/>
      <point x="316.2631578947368" y="155.47368421052633"/>
    </contour>
    <contour>
      <point x="426.42105263157896" y="61.94736842105263" type="curve"/>
      <point x="236.31578947368422" y="68.05263157894737"/>
      <point x="139.89473684210526" y="177.78947368421052"/>
      <point x="139.89473684210526" y="344.0" type="curve" smooth="yes"/>
      <point x="139.89473684210526" y="513.1052631578947"/>
      <point x="240.8421052631579" y="620.5263157894738"/>
      <point x="423.36842105263156" y="626.6315789473684" type="curve"/>
      <point x="607.421052631579" y="620.5263157894738"/>
      <point x="707.0" y="513.5263157894736"/>
      <point x="707.0" y="344.5263157894737" type="curve" smooth="yes"/>
      <point x="707.0" y="172.42105263157896"/>
      <point x="604.3157894736842" y="68.05263157894737"/>
    </contour>
  </outline>
</glyph>
<glyph name="ordfeminine" format="2">
  <advance width="401.7669902912621"/>
  <unicode hex="00AA"/>
  <outline>
    <contour>
      <point x="173.72815533980582" y="330.368932038835" type="curve" smooth="yes"/>
      <point x="200.21359223300965" y="330.368932038835"/>
      <point x="252.33009708737873" y="361.7378640776699"/>
      <point x="294.5825242718446" y="395.6116504854369" type="curve"/>
      <point x="302.0873786407766" y="395.6116504854369" type="line"/>
      <point x="303.9611650485437" y="338.62135922330094" type="line"/>
      <point x="397.0388349514563" y="338.62135922330094" type="line"/>
      <point x="397.2912621359223" y="381.504854368932"/>
      <point x="397.54368932038835" y="414.7669902912621"/>
      <point x="398.79611650485435" y="457.65048543689323" type="curve"/>
      <point x="407.1650485436893" y="497.62135922330094" type="line" smooth="yes"/>
      <point x="413.1650485436893" y="525.495145631068"/>
      <point x="421.91262135922324" y="554.1067961165049"/>
      <point x="426.2912621359223" y="578.495145631068" type="curve" smooth="yes"/>
      <point x="445.4174757281553" y="669.252427184466"/>
      <point x="394.3980582524272" y="727.252427184466"/>
      <point x="291.75728155339806" y="727.252427184466" type="curve" smooth="yes"/>
      <point x="267.2621359223301" y="727.252427184466"/>
      <point x="186.36893203883494" y="711.504854368932"/>
      <point x="147.73786407766988" y="703.631067961165" type="curve"/>
      <point x="133.34951456310682" y="610.0679611650486" type="line"/>
      <point x="197.10679611650485" y="629.6893203883496"/>
      <point x="252.35922330097085" y="644.4368932038835"/>
      <point x="263.72815533980577" y="644.4368932038835" type="curve" smooth="yes"/>
      <point x="318.2135922330097" y="644.4368932038835"/>
      <point x="344.9514563106796" y="620.4466019417476"/>
      <point x="335.70873786407765" y="583.6019417475728" type="curve"/>
      <point x="215.72815533980582" y="563.3592233009708" type="line" smooth="yes"/>
      <point x="148.49514563106794" y="551.8640776699028"/>
      <point x="93.61165048543691" y="524.9999999999999"/>
      <point x="77.61165048543691" y="451.74757281553394" type="curve" smooth="yes"/>
      <point x="61.7378640776699" y="381.495145631068"/>
      <point x="104.23300970873787" y="330.368932038835"/>
    </contour>
    <contour>
      <point x="222.40776699029124" y="406.80582524271847" type="curve" smooth="yes"/>
      <point x="189.05825242718447" y="406.80582524271847"/>
      <point x="163.69902912621362" y="426.5436893203884"/>
      <point x="171.19417475728156" y="462.2718446601942" type="curve" smooth="yes"/>
      <point x="178.6893203883495" y="495.99999999999994"/>
      <point x="210.41747572815532" y="504.62135922330094"/>
      <point x="243.76699029126215" y="512.1165048543688" type="curve" smooth="yes"/>
      <point x="297.22330097087377" y="524.233009708738"/>
      <point x="310.71844660194176" y="529.2330097087379"/>
      <point x="324.70873786407765" y="537.2330097087379" type="curve"/>
      <point x="307.4660194174757" y="460.51456310679606" type="line"/>
      <point x="276.24271844660194" y="426.66990291262135"/>
      <point x="238.89320388349515" y="406.80582524271847"/>
    </contour>
  </outline>
</glyph>
<glyph name="logicalnot" format="2">
  <advance width="575.7894736842105"/>
  <unicode hex="00AC"/>
  <outline>
    <contour>
      <point x="357.42105263157896" y="53.94736842105263" type="curve"/>
      <point x="485.1052631578947" y="53.94736842105263" type="line"/>
      <point x="497.6315789473684" y="121.84210526315789"/>
      <point x="510.6315789473683" y="192.10526315789477"/>
      <point x="519.2105263157895" y="238.1578947368421" type="curve"/>
      <point x="546.1052631578947" y="364.6315789473684" type="line"/>
      <point x="479.15789473684214" y="362.57894736842104"/>
      <point x="406.42105263157896" y="360.52631578947364"/>
      <point x="359.8421052631579" y="359.4736842105263" type="curve"/>
      <point x="263.0" y="359.4736842105263" type="line"/>
      <point x="216.42105263157893" y="360.52631578947364"/>
      <point x="145.68421052631578" y="362.57894736842104"/>
      <point x="78.73684210526316" y="364.6315789473684" type="curve"/>
      <point x="52.26315789473684" y="240.10526315789474" type="line"/>
      <point x="119.73684210526316" y="242.15789473684214"/>
      <point x="192.0" y="244.21052631578948"/>
      <point x="238.57894736842104" y="245.26315789473685" type="curve"/>
      <point x="335.42105263157896" y="245.26315789473685" type="line"/>
      <point x="376.84210526315786" y="244.21052631578948"/>
      <point x="440.36842105263156" y="242.15789473684214"/>
      <point x="499.10526315789474" y="240.10526315789474" type="curve"/>
      <point x="420.4736842105263" y="326.3157894736842" type="line"/>
      <point x="401.8421052631579" y="238.6842105263158" type="line"/>
      <point x="390.6842105263158" y="192.15789473684214"/>
      <point x="373.57894736842104" y="121.42105263157895"/>
    </contour>
  </outline>
</glyph>
<glyph name="registered" format="2">
  <advance width="575.6842105263158"/>
  <unicode hex="00AE"/>
  <outline>
    <contour>
      <point x="342.7368421052631" y="244.42105263157896" type="curve" smooth="yes"/>
      <point x="505.52631578947364" y="244.42105263157896"/>
      <point x="595.9473684210526" y="351.6842105263158"/>
      <point x="595.9473684210526" y="496.05263157894734" type="curve" smooth="yes"/>
      <point x="595.9473684210526" y="634.3157894736842"/>
      <point x="511.1052631578947" y="746.6315789473684"/>
      <point x="339.10526315789474" y="746.6315789473684" type="curve" smooth="yes"/>
      <point x="169.6842105263158" y="746.6315789473684"/>
      <point x="84.47368421052632" y="635.7894736842105"/>
      <point x="84.47368421052632" y="495.5263157894737" type="curve" smooth="yes"/>
      <point x="84.47368421052632" y="362.89473684210526"/>
      <point x="164.26315789473685" y="244.42105263157896"/>
    </contour>
    <contour>
      <point x="232.00000000000003" y="360.63157894736844" type="curve"/>
      <point x="300.31578947368416" y="360.63157894736844" type="line"/>
      <point x="298.26315789473676" y="397.89473684210526"/>
      <point x="297.2105263157894" y="414.89473684210526"/>
      <point x="295.1578947368421" y="454.63157894736844" type="curve"/>
      <point x="295.1578947368421" y="546.6315789473684" type="line"/>
      <point x="297.2105263157894" y="586.421052631579"/>
      <point x="298.26315789473676" y="604.3684210526316"/>
      <point x="299.7894736842105" y="636.3684210526316" type="curve"/>
      <point x="230.42105263157896" y="645.6315789473684" type="line"/>
      <point x="232.47368421052636" y="607.3157894736843"/>
      <point x="233.5263157894737" y="589.8947368421053"/>
      <point x="235.57894736842107" y="550.6315789473684" type="curve"/>
      <point x="235.57894736842107" y="454.63157894736844" type="line"/>
      <point x="234.0526315789474" y="413.8421052631579"/>
      <point x="233.52631578947373" y="399.47368421052636"/>
    </contour>
    <contour>
      <point x="342.2105263157895" y="289.6842105263158" type="curve"/>
      <point x="195.94736842105263" y="293.2631578947368"/>
      <point x="133.42105263157896" y="380.3157894736842"/>
      <point x="133.42105263157896" y="495.5263157894737" type="curve" smooth="yes"/>
      <point x="133.42105263157896" y="615.6315789473684"/>
      <point x="199.5263157894737" y="698.3157894736843"/>
      <point x="339.6315789473684" y="701.8947368421053" type="curve"/>
      <point x="480.7894736842105" y="698.3157894736843"/>
      <point x="546.5263157894736" y="615.0"/>
      <point x="546.5263157894736" y="496.05263157894734" type="curve" smooth="yes"/>
      <point x="546.5263157894736" y="373.8947368421053"/>
      <point x="476.57894736842104" y="293.2631578947368"/>
    </contour>
    <contour>
      <point x="396.89473684210526" y="360.63157894736844" type="curve"/>
      <point x="476.78947368421046" y="360.63157894736844" type="line"/>
      <point x="458.8421052631579" y="384.7368421052632"/>
      <point x="436.57894736842104" y="414.6315789473684"/>
      <point x="415.2105263157895" y="443.6842105263158" type="curve"/>
      <point x="375.52631578947364" y="500.7368421052632" type="line"/>
      <point x="351.84210526315786" y="478.89473684210526" type="line"/>
      <point x="423.4210526315789" y="478.89473684210526"/>
      <point x="448.84210526315786" y="517.421052631579"/>
      <point x="448.84210526315786" y="565.0" type="curve" smooth="yes"/>
      <point x="448.84210526315786" y="622.578947368421"/>
      <point x="409.84210526315786" y="647.6842105263158"/>
      <point x="341.7368421052631" y="647.6842105263158" type="curve"/>
      <point x="295.9473684210526" y="647.6842105263158"/>
      <point x="259.7368421052631" y="645.6315789473684"/>
      <point x="230.42105263157896" y="645.6315789473684" type="curve"/>
      <point x="276.1578947368421" y="597.578947368421" type="line"/>
      <point x="339.1578947368421" y="597.578947368421" type="line" smooth="yes"/>
      <point x="356.7894736842105" y="597.578947368421"/>
      <point x="386.6842105263158" y="596.1052631578948"/>
      <point x="386.6842105263158" y="558.6842105263158" type="curve" smooth="yes"/>
      <point x="386.6842105263158" y="523.7368421052631"/>
      <point x="363.6315789473684" y="512.8947368421053"/>
      <point x="329.84210526315786" y="512.8947368421053" type="curve" smooth="yes"/>
      <point x="283.31578947368416" y="512.8947368421053" type="line"/>
      <point x="283.31578947368416" y="472.6842105263158" type="line"/>
      <point x="350.4210526315789" y="472.6842105263158" type="line"/>
      <point x="314.0" y="495.2105263157895" type="line"/>
      <point x="357.05263157894734" y="430.1578947368421" type="line"/>
      <point x="369.84210526315786" y="407.63157894736844"/>
      <point x="381.6315789473684" y="387.1578947368421"/>
    </contour>
  </outline>
</glyph>
<glyph name="plusminus" format="2">
  <advance width="575.7894736842105"/>
  <unicode hex="00B1"/>
  <outline>
    <contour>
      <point x="0.1578947368421042" y="-5.157894736842105" type="line"/>
      <point x="67.63157894736842" y="-3.1052631578947367"/>
      <point x="139.3684210526316" y="-1.0526315789473684"/>
      <point x="186.4736842105263" y="0.0" type="curve"/>
      <point x="283.3157894736842" y="0.0" type="line"/>
      <point x="329.3684210526316" y="-1.0526315789473684"/>
      <point x="401.10526315789474" y="-3.1052631578947367"/>
      <point x="467.5263157894737" y="-5.157894736842105" type="curve"/>
      <point x="494.0" y="119.36842105263158" type="line"/>
      <point x="426.5263157894737" y="117.3157894736842"/>
      <point x="354.2631578947368" y="115.26315789473684"/>
      <point x="307.6842105263158" y="114.21052631578947" type="curve"/>
      <point x="210.8421052631579" y="114.21052631578947" type="line"/>
      <point x="164.26315789473685" y="115.26315789473684"/>
      <point x="93.05263157894737" y="117.3157894736842"/>
      <point x="26.63157894736842" y="119.36842105263158" type="curve"/>
    </contour>
    <contour>
      <point x="77.26315789473685" y="358.89473684210526" type="line"/>
      <point x="144.73684210526315" y="360.9473684210526"/>
      <point x="217.4736842105263" y="363.0"/>
      <point x="264.05263157894734" y="364.05263157894734" type="curve"/>
      <point x="360.89473684210526" y="364.05263157894734" type="line"/>
      <point x="407.4736842105263" y="363.0"/>
      <point x="478.2105263157895" y="360.9473684210526"/>
      <point x="544.6315789473684" y="358.89473684210526" type="curve"/>
      <point x="571.1052631578947" y="483.4210526315789" type="line"/>
      <point x="504.15789473684214" y="481.36842105263156"/>
      <point x="431.89473684210526" y="479.31578947368416"/>
      <point x="385.3157894736842" y="478.2631578947368" type="curve"/>
      <point x="288.4736842105263" y="478.2631578947368" type="line"/>
      <point x="241.89473684210526" y="479.31578947368416"/>
      <point x="170.68421052631578" y="481.36842105263156"/>
      <point x="103.73684210526316" y="483.4210526315789" type="curve"/>
    </contour>
    <contour>
      <point x="209.0" y="183.26315789473685" type="curve"/>
      <point x="337.6842105263158" y="183.26315789473685" type="line"/>
      <point x="350.2105263157894" y="251.1578947368421"/>
      <point x="363.2105263157894" y="321.94736842105266"/>
      <point x="371.7894736842105" y="368.5263157894737" type="curve"/>
      <point x="394.42105263157896" y="473.7894736842105" type="line"/>
      <point x="405.578947368421" y="520.3684210526317"/>
      <point x="422.6842105263158" y="592.1052631578947"/>
      <point x="438.84210526315786" y="659.0526315789474" type="curve"/>
      <point x="310.15789473684214" y="659.0526315789474" type="line"/>
      <point x="298.1052631578948" y="592.578947368421"/>
      <point x="284.63157894736844" y="519.8947368421054"/>
      <point x="276.0526315789474" y="473.7894736842105" type="curve"/>
      <point x="253.42105263157896" y="368.5263157894737" type="line"/>
      <point x="242.73684210526318" y="322.421052631579"/>
      <point x="225.63157894736847" y="250.6842105263158"/>
    </contour>
  </outline>
</glyph>
<glyph name="micro" format="2">
  <advance width="571.1052631578948"/>
  <unicode hex="00B5"/>
  <outline>
    <contour>
      <point x="-45.89473684210526" y="-196.10526315789474" type="curve"/>
      <point x="110.10526315789474" y="-192.0" type="line"/>
      <point x="120.89473684210527" y="-120.15789473684211"/>
      <point x="129.6842105263158" y="-57.78947368421053"/>
      <point x="141.42105263157896" y="17.94736842105263" type="curve" smooth="yes"/>
      <point x="147.6842105263158" y="47.894736842105274" type="line"/>
      <point x="87.05263157894736" y="47.894736842105274" type="line"/>
      <point x="102.1578947368421" y="9.31578947368421"/>
      <point x="136.21052631578948" y="-12.68421052631579"/>
      <point x="188.63157894736844" y="-12.68421052631579" type="curve" smooth="yes"/>
      <point x="230.0" y="-12.68421052631579"/>
      <point x="301.99999999999994" y="35.526315789473685"/>
      <point x="348.57894736842104" y="77.10526315789474" type="curve"/>
      <point x="359.89473684210526" y="77.10526315789474" type="line"/>
      <point x="362.8421052631579" y="0.0" type="line"/>
      <point x="485.89473684210526" y="0.0" type="line"/>
      <point x="486.05263157894734" y="58.10526315789473"/>
      <point x="486.6842105263158" y="107.94736842105263"/>
      <point x="487.7894736842105" y="156.78947368421055" type="curve"/>
      <point x="512.421052631579" y="273.1052631578947" type="line"/>
      <point x="533.0526315789473" y="363.57894736842104"/>
      <point x="547.5263157894735" y="426.36842105263156"/>
      <point x="564.0" y="498.2105263157895" type="curve"/>
      <point x="419.5263157894737" y="498.2105263157895" type="line"/>
      <point x="407.68421052631584" y="426.36842105263156"/>
      <point x="396.8421052631579" y="361.52631578947364"/>
      <point x="384.5263157894737" y="287.3157894736842" type="curve"/>
      <point x="360.73684210526324" y="175.21052631578942" type="line"/>
      <point x="320.3157894736842" y="137.15789473684214"/>
      <point x="264.2631578947368" y="105.10526315789473"/>
      <point x="242.21052631578948" y="105.10526315789473" type="curve" smooth="yes"/>
      <point x="183.6315789473684" y="105.10526315789473"/>
      <point x="169.2105263157895" y="146.89473684210523"/>
      <point x="185.42105263157896" y="222.5263157894737" type="curve"/>
      <point x="198.6842105263158" y="287.3157894736842" type="line"/>
      <point x="216.1578947368421" y="362.578947368421"/>
      <point x="232.1578947368421" y="430.4736842105263"/>
      <point x="249.1578947368421" y="502.3157894736842" type="curve"/>
      <point x="100.52631578947368" y="498.2105263157895" type="line"/>
      <point x="89.21052631578948" y="427.4210526315789"/>
      <point x="78.36842105263158" y="362.57894736842115"/>
      <point x="64.47368421052632" y="272.05263157894734" type="curve"/>
      <point x="11.947368421052632" y="24.789473684210527" type="line"/>
      <point x="-9.210526315789473" y="-57.78947368421053"/>
      <point x="-27.31578947368421" y="-124.26315789473684"/>
    </contour>
  </outline>
</glyph>
<glyph name="AE" format="2">
  <advance width="992.6699029126214"/>
  <unicode hex="00C6"/>
  <anchor x="490.81553398058253" y="0.0" name="bottom"/>
  <anchor x="640.8155339805826" y="713.0" name="top"/>
  <outline>
    <contour>
      <point x="-47.3883495145631" y="0.0" type="curve"/>
      <point x="131.5242718446602" y="0.0" type="line"/>
      <point x="180.74757281553397" y="78.61165048543688"/>
      <point x="235.5922330097087" y="165.9708737864078"/>
      <point x="283.94174757281553" y="242.83495145631065" type="curve"/>
      <point x="524.0873786407767" y="596.8932038834952" type="line"/>
      <point x="548.2233009708739" y="596.8932038834952" type="line"/>
      <point x="643.0582524271845" y="596.8932038834952" type="line"/>
      <point x="682.223300970874" y="713.0" type="line"/>
      <point x="444.5145631067961" y="713.0" type="line"/>
      <point x="399.7766990291263" y="642.1262135922331"/>
      <point x="352.0388349514563" y="567.8737864077668"/>
      <point x="303.17475728155335" y="490.49514563106794" type="curve"/>
      <point x="130.9611650485437" y="241.0" type="line"/>
      <point x="74.84466019417476" y="165.12621359223303"/>
      <point x="8.980582524271847" y="76.25242718446601"/>
    </contour>
    <contour>
      <point x="189.54368932038835" y="157.06796116504853" type="line"/>
      <point x="515.1650485436894" y="157.06796116504853" type="line"/>
      <point x="525.6699029126215" y="266.2912621359223" type="line"/>
      <point x="226.58252427184462" y="266.2912621359223" type="line"/>
    </contour>
    <contour>
      <point x="409.4854368932039" y="0.0" type="curve"/>
      <point x="573.0194174757281" y="0.0" type="line"/>
      <point x="578.5242718446602" y="22.524271844660195" type="line"/>
      <point x="591.0194174757281" y="98.76699029126213"/>
      <point x="601.7669902912621" y="166.2718446601942"/>
      <point x="616.2621359223301" y="255.01941747572815" type="curve"/>
      <point x="658.2524271844661" y="452.4757281553398" type="line"/>
      <point x="681.8834951456311" y="545.1067961165049"/>
      <point x="698.2621359223301" y="610.9805825242719"/>
      <point x="718.5145631067961" y="690.4757281553398" type="curve"/>
      <point x="723.0194174757282" y="713.0" type="line"/>
      <point x="559.4854368932039" y="713.0" type="line"/>
      <point x="546.8640776699029" y="635.126213592233"/>
      <point x="536.2427184466021" y="569.504854368932"/>
      <point x="520.621359223301" y="473.126213592233" type="curve"/>
      <point x="470.368932038835" y="235.11650485436894" type="line"/>
      <point x="446.8640776699029" y="143.99029126213594"/>
      <point x="429.73786407766994" y="78.49514563106796"/>
    </contour>
    <contour>
      <point x="545.4951456310679" y="0.0" type="line"/>
      <point x="888.3106796116506" y="0.0" type="line"/>
      <point x="916.7087378640776" y="131.4854368932039" type="line"/>
      <point x="853.8446601941748" y="128.23300970873785"/>
      <point x="757.873786407767" y="122.98058252427185"/>
      <point x="693.495145631068" y="119.60194174757282" type="curve"/>
      <point x="570.7669902912621" y="119.60194174757282" type="line"/>
    </contour>
    <contour>
      <point x="592.4660194174759" y="303.3300970873786" type="line"/>
      <point x="724.9514563106796" y="303.3300970873786" type="line"/>
      <point x="787.7087378640778" y="301.95145631067953"/>
      <point x="886.6699029126214" y="298.82524271844653"/>
      <point x="931.4271844660194" y="297.57281553398053" type="curve"/>
      <point x="958.4466019417475" y="424.4174757281553" type="line"/>
      <point x="902.7087378640781" y="422.29126213592235"/>
      <point x="834.339805825243" y="420.03883495145635"/>
      <point x="749.5922330097088" y="416.7864077669903" type="curve"/>
      <point x="616.233009708738" y="416.7864077669903" type="line"/>
    </contour>
    <contour>
      <point x="661.3398058252427" y="593.3980582524272" type="line"/>
      <point x="782.3203883495147" y="593.3980582524272" type="line"/>
      <point x="856.6990291262136" y="589.8932038834952"/>
      <point x="946.2912621359224" y="584.7669902912621"/>
      <point x="1008.2815533980583" y="581.5145631067961" type="curve"/>
      <point x="1035.6796116504854" y="713.0" type="line"/>
      <point x="686.4854368932038" y="713.0" type="line"/>
    </contour>
  </outline>
</glyph>
<glyph name="multiply" format="2">
  <advance width="577.1578947368421"/>
  <unicode hex="00D7"/>
  <outline>
    <contour>
      <point x="413.36842105263156" y="64.57894736842105" type="curve"/>
      <point x="508.2631578947369" y="147.05263157894737" type="line"/>
      <point x="468.36842105263156" y="192.89473684210526"/>
      <point x="424.6842105263158" y="243.47368421052633"/>
      <point x="396.7894736842105" y="275.84210526315786" type="curve"/>
      <point x="292.05263157894734" y="405.6842105263158" type="line"/>
      <point x="265.2631578947368" y="441.57894736842104"/>
      <point x="227.05263157894737" y="491.8421052631579"/>
      <point x="189.3157894736842" y="542.1578947368421" type="curve"/>
      <point x="93.42105263157896" y="458.6315789473684" type="line"/>
      <point x="133.7368421052632" y="412.3684210526316"/>
      <point x="176.47368421052633" y="363.73684210526324"/>
      <point x="204.8421052631579" y="330.89473684210526" type="curve"/>
      <point x="310.10526315789474" y="200.0" type="line"/>
      <point x="336.47368421052636" y="166.05263157894734"/>
      <point x="377.10526315789474" y="112.42105263157895"/>
    </contour>
    <contour>
      <point x="98.05263157894737" y="59.421052631578945" type="line"/>
      <point x="155.47368421052633" y="108.26315789473684"/>
      <point x="215.63157894736844" y="159.42105263157896"/>
      <point x="254.1578947368421" y="192.8947368421053" type="curve"/>
      <point x="415.1578947368421" y="323.05263157894734" type="line"/>
      <point x="456.1578947368421" y="354.3684210526317"/>
      <point x="519.4736842105264" y="402.00000000000006"/>
      <point x="578.9473684210526" y="446.7368421052632" type="curve"/>
      <point x="501.2105263157895" y="545.8421052631579" type="line"/>
      <point x="444.8421052631579" y="497.0"/>
      <point x="385.05263157894734" y="445.7368421052632"/>
      <point x="345.6315789473684" y="411.84210526315786" type="curve"/>
      <point x="187.0" y="283.57894736842104" type="line"/>
      <point x="146.47368421052633" y="252.73684210526315"/>
      <point x="80.78947368421053" y="202.73684210526312"/>
      <point x="21.315789473684212" y="158.0" type="curve"/>
    </contour>
  </outline>
</glyph>
<glyph name="Oslash" format="2">
  <advance width="814.7894736842105"/>
  <unicode hex="00D8"/>
  <anchor x="355.3684210526316" y="0.0" name="bottom"/>
  <anchor x="430.3684210526316" y="357.0" name="center"/>
  <anchor x="493.47368421052636" y="0.0" name="ogonek"/>
  <anchor x="505.3684210526316" y="713.0" name="top"/>
  <anchor x="123.36842105263158" y="713.0" name="topleft"/>
  <anchor x="792.0526315789473" y="713.0" name="topright"/>
  <outline>
    <contour>
      <point x="401.42105263157896" y="-12.68421052631579" type="curve" smooth="yes"/>
      <point x="607.8421052631579" y="-12.68421052631579"/>
      <point x="747.1578947368421" y="119.94736842105263"/>
      <point x="788.2105263157895" y="312.15789473684214" type="curve" smooth="yes"/>
      <point x="835.7368421052631" y="533.7368421052631"/>
      <point x="712.3157894736843" y="727.1052631578947"/>
      <point x="462.1578947368421" y="727.1052631578947" type="curve" smooth="yes"/>
      <point x="253.8421052631579" y="727.1052631578947"/>
      <point x="113.57894736842105" y="600.1578947368421"/>
      <point x="70.63157894736842" y="398.2631578947369" type="curve" smooth="yes"/>
      <point x="24.63157894736842" y="180.73684210526315"/>
      <point x="144.10526315789474" y="-12.68421052631579"/>
    </contour>
    <contour>
      <point x="403.52631578947364" y="107.1578947368421" type="curve"/>
      <point x="263.84210526315786" y="115.36842105263158"/>
      <point x="184.42105263157896" y="227.0"/>
      <point x="216.84210526315792" y="379.63157894736844" type="curve" smooth="yes"/>
      <point x="245.84210526315792" y="513.3684210526314"/>
      <point x="328.7368421052631" y="600.1052631578948"/>
      <point x="460.57894736842104" y="607.2631578947369" type="curve"/>
      <point x="602.0" y="599.0526315789475"/>
      <point x="673.3157894736842" y="480.57894736842104"/>
      <point x="640.9473684210526" y="328.63157894736844" type="curve" smooth="yes"/>
      <point x="614.2631578947368" y="199.78947368421052"/>
      <point x="531.3684210526317" y="113.26315789473684"/>
    </contour>
    <contour>
      <point x="125.00000000000001" y="-78.0" type="line"/>
      <point x="197.94736842105263" y="9.052631578947368"/>
      <point x="265.36842105263156" y="89.57894736842105"/>
      <point x="346.3157894736842" y="186.1578947368421" type="curve"/>
      <point x="572.3684210526316" y="446.6842105263158" type="line"/>
      <point x="656.421052631579" y="539.1052631578948"/>
      <point x="725.4736842105262" y="615.0526315789474"/>
      <point x="805.578947368421" y="703.0526315789473" type="curve"/>
      <point x="725.4736842105262" y="766.5789473684212" type="line"/>
      <point x="649.5263157894736" y="675.5263157894739"/>
      <point x="584.578947368421" y="597.4736842105264"/>
      <point x="502.6842105263158" y="498.94736842105266" type="curve"/>
      <point x="280.68421052631584" y="243.4736842105263" type="line"/>
      <point x="196.10526315789477" y="151.0"/>
      <point x="129.1578947368421" y="77.15789473684211"/>
      <point x="49.05263157894736" y="-10.368421052631579" type="curve"/>
    </contour>
  </outline>
</glyph>
<glyph name="Thorn" format="2">
  <advance width="645.6699029126214"/>
  <unicode hex="00DE"/>
  <outline>
    <contour>
      <point x="15.699029126213597" y="0.0" type="curve"/>
      <point x="181.10679611650485" y="0.0" type="line"/>
      <point x="192.72815533980588" y="75.49514563106796"/>
      <point x="203.3495145631068" y="142.1165048543689"/>
      <point x="217.9708737864078" y="233.36893203883494" type="curve"/>
      <point x="269.0970873786408" y="473.126213592233" type="line"/>
      <point x="293.6019417475729" y="567.6310679611651"/>
      <point x="310.8543689320389" y="634.252427184466"/>
      <point x="331.1067961165049" y="713.0" type="curve"/>
      <point x="165.6990291262136" y="713.0" type="line"/>
      <point x="152.2038834951456" y="635.1262135922331"/>
      <point x="141.58252427184465" y="567.7572815533981"/>
      <point x="126.83495145631068" y="473.126213592233" type="curve"/>
      <point x="75.70873786407766" y="233.36893203883494" type="line"/>
      <point x="52.20388349514563" y="143.99029126213594"/>
      <point x="35.9514563106796" y="78.36893203883494"/>
    </contour>
    <contour>
      <point x="345.9320388349515" y="142.5922330097087" type="curve"/>
      <point x="533.6601941747573" y="142.5922330097087"/>
      <point x="605.9320388349514" y="218.0970873786408"/>
      <point x="635.3106796116505" y="357.116504854369" type="curve" smooth="yes"/>
      <point x="669.3203883495145" y="517.0388349514564"/>
      <point x="588.5533980582525" y="600.5339805825242"/>
      <point x="418.4077669902913" y="600.5339805825242" type="curve"/>
      <point x="350.0679611650486" y="600.5339805825242"/>
      <point x="302.7087378640777" y="598.4077669902913"/>
      <point x="277.08737864077676" y="598.4077669902913" type="curve"/>
      <point x="252.94174757281556" y="483.31067961165047" type="line"/>
      <point x="390.12621359223306" y="483.31067961165047" type="line" smooth="yes"/>
      <point x="448.46601941747576" y="483.31067961165047"/>
      <point x="509.1553398058253" y="455.93203883495147"/>
      <point x="489.5436893203884" y="363.495145631068" type="curve" smooth="yes"/>
      <point x="472.55339805825247" y="284.03883495145635"/>
      <point x="432.7087378640777" y="258.17475728155335"/>
      <point x="336.7864077669903" y="258.17475728155335" type="curve" smooth="yes"/>
      <point x="205.46601941747576" y="258.17475728155335" type="line"/>
      <point x="181.69902912621362" y="144.71844660194174" type="line"/>
      <point x="220.69902912621362" y="144.71844660194174"/>
      <point x="296.0582524271845" y="142.5922330097087"/>
    </contour>
  </outline>
</glyph>
